<svg xmlns="http://www.w3.org/2000/svg" viewBox="0 0 20 30"><path d="M15.5 30H4.4C2 30 0 28 0 25.6V4.4C0 2 2 0 4.4 0h11.2C18 0 20 2 20 4.4v21.3c-.1 2.3-2 4.3-4.5 4.3zM4.4 1.5c-1.6 0-2.9 1.3-2.9 2.9v21.3c0 1.6 1.3 2.9 2.9 2.9h11.2c1.6 0 2.9-1.3 2.9-2.9V4.4c0-1.6-1.3-2.9-2.9-2.9H4.4zM13.1 15c0-1.2.4-2.3.9-3.4.4-1 .7-1.9.7-2.7 0-2.7-2.2-4.8-4.8-4.8-2.6-.1-4.8 2-4.8 4.7 0 .8.4 1.7.7 2.7.4 1.1.9 2.2.9 3.5 0 1.2-.5 2.3-.9 3.4-.4 1-.8 1.9-.8 2.8C5 23.9 7.2 26 9.8 26c2.7 0 4.8-2.2 4.8-4.8 0-.9-.4-1.8-.7-2.8-.3-1.1-.8-2.2-.8-3.4zM8 15c0-1.5-.5-2.8-1-3.9-.3-.8-.7-1.6-.7-2.2 0-2 1.6-3.6 3.6-3.6s3.6 1.6 3.6 3.6c0 .6-.3 1.4-.7 2.3-.5 1.1-1 2.4-1 3.9s.5 2.8 1 3.9c.3.9.7 1.7.7 2.3 0 2-1.6 3.6-3.6 3.6s-3.6-1.6-3.6-3.6c0-.7.3-1.5.7-2.3.5-1.3 1-2.6 1-4zm4.3 6.2c0-1.3-1.1-2.3-2.3-2.3S7.7 20 7.7 21.2c0 1.3 1.1 2.3 2.3 2.3s2.3-1 2.3-2.3zm-3.8 0c0-.8.6-1.4 1.4-1.4s1.4.6 1.4 1.4c0 .8-.6 1.4-1.4 1.4s-1.4-.6-1.4-1.4zm3.8-12.4c0-1.3-1.1-2.3-2.3-2.3s-2.4 1-2.4 2.3 1.1 2.3 2.3 2.3 2.4-1 2.4-2.3zm-3.8 0c0-.8.6-1.4 1.4-1.4s1.4.6 1.4 1.4c0 .8-.6 1.4-1.4 1.4s-1.4-.6-1.4-1.4z" fill="currentColor"/></svg>
