<svg xmlns="http://www.w3.org/2000/svg" viewBox="0 0 20 30"><path d="M15.5 0H4.4C2 0 0 2 0 4.4v21.3C0 28 2 30 4.4 30h11.2c2.4 0 4.4-2 4.4-4.4V4.4C19.9 2 18 0 15.5 0zm3 25.6c0 1.6-1.3 2.9-2.9 2.9H4.4c-1.6 0-2.9-1.3-2.9-2.9V4.4c0-1.6 1.3-2.9 2.9-2.9h11.2c1.6 0 2.9 1.3 2.9 2.9v21.2zm-2.3-7.2c.2.2.2.5.1.7 0 .1-.1.1-.1.2l-2.9 2.9c-.1.1-.3.2-.4.2-.2 0-.3-.1-.4-.2-.2-.2-.2-.6 0-.9l1.8-1.8H8.6c-2.7 0-4.9-2.2-4.9-4.9s2.2-4.9 4.9-4.9h4.3c.4 0 .6.3.6.6s-.3.6-.6.6H8.6c-1.3 0-2.5.7-3.2 1.8-.7 1.1-.7 2.5 0 3.7.6 1.1 1.9 1.8 3.2 1.8h5.6l-1.8-1.8c-.2-.3-.2-.7 0-.9.2-.2.6-.2.9 0l2.9 2.9z" fill="currentColor"/></svg>
