<?xml version="1.0" encoding="UTF-8"?>
<svg width="40px" height="40px" viewBox="0 0 40 40" version="1.1" xmlns="http://www.w3.org/2000/svg" xmlns:xlink="http://www.w3.org/1999/xlink">
    <!-- Generator: Sketch 47 (45396) - http://www.bohemiancoding.com/sketch -->
    <title>Summary-Aidience</title>
    <desc>Created with Sketch.</desc>
    <defs></defs>
    <g id="Page-1" stroke="none" stroke-width="1" fill="currentColor" fill-rule="evenodd">
        <g id="Group" transform="translate(8.000000, 11.000000)">
            <path d="M0.503671143,17.9881126 C0.471386953,16.6305764 0.513443535,16.5660089 1.62419331,16.0861636 C2.13014385,15.8675924 2.13880724,15.864595 4.27869167,15.1459089 C4.83050997,14.9605792 5.23298321,14.8213296 5.60732292,14.6841491 C7.32731779,14.0538397 8.05936803,13.6526954 8.05936803,12.97004 C8.05936803,12.7546312 8.06855452,12.5606156 8.08890065,12.2744766 C8.1448538,11.4875766 8.1448538,11.3559146 8.00959053,11.0759018 C7.95962078,10.9724578 7.90925307,10.8611231 7.84927142,10.7228662 C7.81667132,10.6477234 7.7065556,10.3896196 7.69446484,10.3615106 C7.26930984,9.37309552 6.96781836,8.93702128 6.34609732,8.76850426 C6.1256287,8.7087464 5.93073569,7.59967615 6.02206042,7.54676118 C6.61146165,7.20525293 6.61827087,6.91762012 6.41734507,5.63313482 C6.32218033,5.02476245 6.29540953,4.64000265 6.34596098,4.21832384 C6.54706321,2.54081407 7.80623021,1.33623068 10.221649,1.3574183 C12.6426399,1.336233 13.9012288,2.54110717 14.1022959,4.21832384 C14.1528474,4.64000265 14.1260766,5.02476245 14.0309119,5.63313482 C13.829986,6.91762012 13.8367953,7.20525293 14.4261965,7.54676118 C14.5175212,7.59967615 14.3226282,8.7087464 14.1021596,8.76850426 C13.4804386,8.93702128 13.1789471,9.37309552 12.7537921,10.3615106 C12.7417013,10.3896196 12.6315856,10.6477234 12.5989855,10.7228662 C12.5390038,10.8611231 12.4886361,10.9724578 12.4386664,11.0759018 C12.3034031,11.3559146 12.3034031,11.4875766 12.3593563,12.2744766 C12.3797024,12.5606156 12.3888889,12.7546312 12.3888889,12.97004 C12.3888889,13.6526954 13.1209391,14.0538397 14.840934,14.6841491 C15.2152737,14.8213296 15.6177469,14.9605792 16.1695652,15.1459089 C18.3094497,15.864595 18.3181131,15.8675924 18.8240636,16.0861636 C19.9348134,16.5660089 19.97687,16.6305764 19.9445858,17.9881126 C19.9380206,18.264177 20.1564928,18.4932935 20.4325571,18.4998587 C20.7086214,18.5064239 20.9377379,18.2879517 20.9443031,18.0118874 C20.9863519,16.2437523 20.7028258,15.808468 19.2206413,15.1681625 C18.6745876,14.9322666 18.6814033,14.9346247 16.4879417,14.1979446 C15.9440158,14.0152656 15.5490506,13.8786136 15.1850176,13.74521 C14.0912201,13.344377 13.3888889,12.9595179 13.3888889,12.97004 C13.3888889,12.7260389 13.3787223,12.5113235 13.3568378,12.2035499 C13.3204154,11.6913211 13.3204154,11.5495749 13.3391114,11.5108716 C13.3958115,11.393495 13.4514346,11.2705435 13.5163708,11.1208664 C13.5504309,11.0423583 13.6614184,10.7822112 13.6724152,10.7566454 C13.9729088,10.0580475 14.1587503,9.78924826 14.3637692,9.73367802 C15.4163334,9.44838129 15.8124455,7.19424089 14.9275361,6.68151061 C14.9067939,6.66949225 14.9033982,6.52604859 15.0188975,5.78768062 C15.1271391,5.09570972 15.1592728,4.63387343 15.0951867,4.0992947 C14.8355141,1.93321599 13.1625259,0.331628543 10.2216436,0.357456813 C7.28650536,0.33163327 5.6127937,1.93279124 5.35307022,4.0992947 C5.28898417,4.63387343 5.32111779,5.09570972 5.42935944,5.78768062 C5.54485876,6.52604859 5.54146298,6.66949225 5.52072077,6.68151061 C4.63581138,7.19424089 5.03192353,9.44838129 6.08448769,9.73367802 C6.28950664,9.78924826 6.4753481,10.0580475 6.77584171,10.7566454 C6.78683853,10.7822112 6.89782601,11.0423583 6.93188609,11.1208664 C6.9968223,11.2705435 7.05244545,11.393495 7.10914553,11.5108716 C7.12784155,11.5495749 7.12784155,11.6913211 7.09141912,12.2035499 C7.06953464,12.5113235 7.05936803,12.7260389 7.05936803,12.97004 C7.05936803,12.9595179 6.35703679,13.344377 5.26323932,13.74521 C4.89920628,13.8786136 4.50424108,14.0152656 3.96031522,14.1979446 C1.76685359,14.9346247 1.77366933,14.9322666 1.22761566,15.1681625 C-0.254568844,15.808468 -0.538095026,16.2437523 -0.496046198,18.0118874 C-0.489480986,18.2879517 -0.26036448,18.5064239 0.0156998405,18.4998587 C0.291764161,18.4932935 0.510236355,18.264177 0.503671143,17.9881126 Z" id="Path-5"></path>
            <path d="M11.8503083,1.25987409 C12.3715535,0.87946995 13.2350825,0.681181522 14.3984728,0.691386573 C16.6557949,0.671638699 17.8247521,1.79070642 18.0117322,3.35041588 C18.0587787,3.7428575 18.0338089,4.10173296 17.9448632,4.67034785 C17.753612,5.89298522 17.7601092,6.16743804 18.3308555,6.49813736 C18.2896735,6.47427587 18.3296199,6.71946122 18.2783552,7.0111912 C18.2201948,7.3421623 18.0853696,7.57527356 18.0339628,7.58920733 C17.4375191,7.75087297 17.1509276,8.16539599 16.747959,9.10223128 C16.7365741,9.12869921 16.6332186,9.37095767 16.6026566,9.44140269 C16.5464942,9.57085614 16.4993671,9.67502762 16.4526588,9.77172008 C16.3221028,10.0419883 16.3221028,10.1652909 16.3752316,10.9124707 C16.3942865,11.1804509 16.4028813,11.3619698 16.4028813,11.5633323 C16.4028813,12.2254375 17.0910759,12.6025501 18.7250402,13.2013327 C19.0768044,13.3302402 19.4548963,13.4610543 19.9732127,13.6351322 C21.9806068,14.3093211 21.9892137,14.3122989 22.4629996,14.516975 C23.4944715,14.9625721 23.5265735,15.0118568 23.496562,16.2738269 C23.4899968,16.5498912 23.708469,16.7790077 23.9845333,16.785573 C24.2605976,16.7921382 24.4897141,16.573666 24.4962793,16.2976017 C24.5360555,14.6250328 24.2624838,14.2050312 22.8595773,13.5989738 C22.3456882,13.3769731 22.3525604,13.3793508 20.2915891,12.6871679 C19.7811652,12.5157406 19.4105814,12.3875242 19.0691238,12.2623936 C18.473053,12.0439575 18.0283148,11.8559998 17.7231937,11.6888015 C17.4981604,11.5654891 17.4028813,11.4757264 17.4028813,11.5633323 C17.4028813,11.3333775 17.3933064,11.1311589 17.3727131,10.841544 C17.339115,10.3690355 17.339115,10.2356486 17.3531038,10.20669 C17.4065425,10.0960648 17.458925,9.98027653 17.5200419,9.83940288 C17.5520639,9.76559265 17.6562912,9.52129082 17.6665821,9.49736612 C17.9448893,8.85034793 18.1158308,8.60309995 18.2955725,8.55438109 C19.3092142,8.27963426 19.6872566,6.12832268 18.8321951,5.63288678 C18.8301078,5.63167736 18.8270241,5.50141369 18.9328488,4.82489365 C19.0348714,4.17268022 19.065204,3.73672828 19.004623,3.23138674 C18.7590374,1.18281525 17.1756809,-0.33296576 14.3984674,-0.30857491 C13.0484933,-0.320493676 11.9847596,-0.0762331108 11.2608028,0.452109729 C11.0377448,0.614897179 10.9888859,0.927686692 11.1516734,1.15074466 C11.3144608,1.37380263 11.6272503,1.42266154 11.8503083,1.25987409 Z" id="Path-5"></path>
        </g>
    </g>
</svg>
