<svg width="13" height="13" viewBox="0 0 13 13" xmlns="http://www.w3.org/2000/svg">
  <g fill="currentColor">
    <path d="M5.3606 4.98c.856-.6216 2.0566-.4306 2.677.424.301.414.4228.921.343 1.4263-.08.5057-.3524.95-.7666 1.251-.3396.2465-.7332.3653-1.124.3653-.593 0-1.1786-.274-1.553-.7895h-.0007c-.6204-.855-.4305-2.056.4243-2.677zm.4523 2.0402c.269.3714.791.455 1.164.1846.18-.131.299-.324.333-.5437.035-.219-.018-.44-.149-.62-.163-.224-.418-.343-.676-.343-.17 0-.341.052-.489.159-.372.27-.455.792-.185 1.164z"/>
    <path d="M.9675 9.2646c.0608-.3832.2676-.7207.583-.9497l.1036-.076c-.119-.337-.202-.684-.248-1.038l-.127-.02C.895 7.12.557 6.913.328 6.598.1 6.2826.007 5.8973.068 5.5127.194 4.718.946 4.174 1.735 4.3l.127.02c.154-.3225.34-.6266.558-.9096l-.075-.1037c-.229-.3145-.3216-.6996-.2603-1.084.061-.385.2683-.723.5836-.952.317-.2304.7036-.3246 1.0855-.262.384.061.7216.2683.95.5833l.0758.104c.3365-.1192.6835-.2022 1.038-.2485l.02-.1276c.125-.793.8768-1.336 1.667-1.21.386.061.7247.268.9532.583.2285.314.3205.699.2592 1.084l-.02.127c.3225.153.6266.34.9096.557l.1048-.076c.649-.472 1.5628-.327 2.0357.323.23.316.323.702.262 1.086-.061.3833-.268.721-.583.95l-.104.0753c.119.3362.203.6826.249 1.037l.128.02c.793.126 1.336.8743 1.211 1.669-.126.794-.877 1.338-1.667 1.2122l-.127-.021c-.153.3223-.339.6265-.557.9095l.076.104c.472.65.327 1.563-.323 2.036-.651.473-1.5632.3283-2.036-.321l-.076-.103c-.3364.1195-.6834.203-1.0373.249l-.0205.127c-.06.3844-.268.722-.583.951-.251.1827-.548.278-.853.278-.076 0-.154-.006-.231-.018-.794-.1254-1.338-.873-1.2125-1.667l.02-.127c-.323-.1538-.627-.34-.91-.557l-.104.075c-.3144.2285-.699.3203-1.084.2603-.385-.061-.723-.268-.9517-.583C1 10.036.9063 9.65.968 9.2653zm1.6657-.3972l-.446.3237c-.0808.06-.1343.146-.15.244-.0155.099.009.198.0686.28.0587.081.1455.135.245.151.0978.014.1972-.008.277-.066l.446-.324c.2074-.151.494-.135.6845.04.382.35.823.62 1.3108.803.242.09.386.338.345.592l-.086.5448c-.032.207.105.395.312.428.101.016.199-.008.28-.0667.081-.0587.134-.1452.15-.244l.087-.545c.041-.254.254-.445.511-.456.52-.0226 1.023-.1432 1.495-.3583.073-.033.15-.049.225-.049.169 0 .334.0794.438.2232l.324.446c.124.1695.353.2054.524.0816.167-.1213.205-.356.084-.5225l-.324-.446c-.152-.209-.136-.495.038-.685.352-.383.622-.824.803-1.31.09-.242.339-.385.592-.346l.546.0865c.209.0347.395-.1044.4275-.3115.032-.2046-.107-.397-.31-.429l-.5454-.086c-.2545-.04-.4455-.254-.4566-.512-.0225-.52-.143-1.0224-.358-1.494-.1078-.234-.0348-.5116.174-.663l.446-.3246c.0817-.059.134-.1453.15-.2432.0158-.0984-.009-.1975-.068-.2793-.122-.1677-.3573-.204-.523-.084l-.446.324c-.2083.152-.4945.1355-.6844-.039-.382-.3507-.823-.6207-1.31-.8024-.241-.09-.386-.3375-.345-.592l.086-.5455c.0154-.099-.008-.198-.066-.278-.059-.0805-.146-.134-.246-.1496-.204-.034-.396.108-.429.3108l-.086.545c-.0405.254-.254.445-.5118.456-.5192.0228-1.0223.143-1.494.358-.235.1078-.5117.0348-.663-.174l-.325-.4464c-.059-.081-.145-.134-.243-.15-.1-.016-.198.009-.28.068-.0805.059-.134.146-.15.245-.0152.099.0087.197.067.278l.324.4463c.1515.2085.135.4946-.039.684-.351.382-.6204.823-.803 1.3107-.0904.2414-.3422.386-.592.345l-.545-.086c-.207-.036-.395.104-.428.312-.015.099.0088.198.0675.279.059.0806.145.134.2436.1494l.544.0867c.2547.0406.4457.254.4568.512.022.519.143 1.022.359 1.495.1068.234.0338.5112-.1746.6625z"/>
  </g>
</svg>
