<?xml version="1.0" encoding="UTF-8"?>
<svg width="16px" height="16px" viewBox="0 0 16 16" version="1.1" xmlns="http://www.w3.org/2000/svg" xmlns:xlink="http://www.w3.org/1999/xlink">
    <g transform="translate(-18.000000, -16.000000)" fill="currentColor" fill-rule="nonzero">
        <g id="Rectangle">
            <path d="M25.0311419,16.9965398 C24.4807681,16.9965398 24.0346021,17.4427059 24.0346021,17.9930796 L24.0346021,26.9619377 C24.0346021,27.5123114 24.4807681,27.9584775 25.0311419,27.9584775 L32.0069204,27.9584775 C32.5572941,27.9584775 33.0034602,27.5123114 33.0034602,26.9619377 L33.0034602,17.9930796 C33.0034602,17.4427059 32.5572941,16.9965398 32.0069204,16.9965398 L25.0311419,16.9965398 Z M25.0311419,16 L32.0069204,16 C33.1076679,16 34,16.8923321 34,17.9930796 L34,26.9619377 C34,28.0626852 33.1076679,28.9550173 32.0069204,28.9550173 L25.0311419,28.9550173 C23.9303944,28.9550173 23.0380623,28.0626852 23.0380623,26.9619377 L23.0380623,17.9930796 C23.0380623,16.8923321 23.9303944,16 25.0311419,16 Z M27.9653979,29.7933762 L28.9619377,29.7933762 C28.9619377,31.0126114 27.9696765,32 26.7468833,32 L20.2150545,32 C18.9922613,32 18,31.0126114 18,29.7933762 L18,21.2516065 C18,20.1267705 18.8486452,19.1862074 19.9610499,19.0593788 C20.0420163,19.0501476 21.5472416,19.0449827 22.2671485,19.0449827 L22.2671485,20.0415225 C21.8422744,20.0415225 20.0912445,20.0475308 20.0739371,20.0495041 C19.4626669,20.1191968 18.9965398,20.6358108 18.9965398,21.2516065 L18.9965398,29.7933762 C18.9965398,30.4611365 19.5415398,31.0034602 20.2150545,31.0034602 L26.7468833,31.0034602 C27.4203979,31.0034602 27.9653979,30.4611365 27.9653979,29.7933762 Z"></path>
        </g>
    </g>
</svg>
