<?xml version="1.0" encoding="UTF-8"?>
<svg width="16px" height="12px" viewBox="0 0 16 12" version="1.1" xmlns="http://www.w3.org/2000/svg" xmlns:xlink="http://www.w3.org/1999/xlink">
    <g transform="translate(-18.000000, -50.000000)" fill="currentColor" fill-rule="nonzero">
        <g id="Oval">
            <path d="M26,62 C23.0634062,62 20.4443221,60.0548058 18.1426101,56.2365713 L18,56 L18.1426101,55.7634287 C20.4443221,51.9451942 23.0634062,50 26,50 C28.9365938,50 31.5556779,51.9451942 33.8573899,55.7634287 L34,56 L33.8573899,56.2365713 C31.5556779,60.0548058 28.9365938,62 26,62 Z M26,61.0769231 C28.4975944,61.0769231 30.8017856,59.4070887 32.912445,56 C30.8017856,52.5929113 28.4975944,50.9230769 26,50.9230769 C23.5024056,50.9230769 21.1982144,52.5929113 19.087555,56 C21.1982144,59.4070887 23.5024056,61.0769231 26,61.0769231 Z M26,60.1538462 C23.6833459,60.1538462 21.8053266,58.2941059 21.8053266,56 C21.8053266,53.7058941 23.6833459,51.8461538 26,51.8461538 C28.3166541,51.8461538 30.1946734,53.7058941 30.1946734,56 C30.1946734,58.2941059 28.3166541,60.1538462 26,60.1538462 Z M26,59.2307692 C27.8018421,59.2307692 29.2625238,57.7843046 29.2625238,56 C29.2625238,54.2156954 27.8018421,52.7692308 26,52.7692308 C24.1981579,52.7692308 22.7374762,54.2156954 22.7374762,56 C22.7374762,57.7843046 24.1981579,59.2307692 26,59.2307692 Z"></path>
        </g>
    </g>
</svg>
