<svg xmlns="http://www.w3.org/2000/svg" width="48" height="48" viewBox="0 0 48 48">
  <g fill="#000000">
    <path data-color="color-2" d="M7.133 17.118C7.521 15.852 8.674 15 10 15h30v-5c0-.552-.447-1-1-1H20.535l-3.703-5.555C16.646 3.167 16.334 3 16 3H2c-.553 0-1 .448-1 1v33.049l6.133-19.931z"/>
    <path d="M46.805 17.406C46.616 17.15 46.317 17 46 17H10c-.439 0-.827.286-.956.706l-8 26c-.093.303-.037.633.151.888S1.683 45 2 45h36c.439 0 .827-.286.956-.706l8-26c.093-.303.037-.633-.151-.888z"/>
  </g>
</svg>
