<?xml version="1.0" encoding="UTF-8"?>
<svg width="16px" height="16px" viewBox="0 0 16 16" version="1.1" xmlns="http://www.w3.org/2000/svg" xmlns:xlink="http://www.w3.org/1999/xlink">
    <!-- Generator: Sketch 51 (57462) - http://www.bohemiancoding.com/sketch -->
    <title>OpenTooltip</title>
    <desc>Created with Sketch.</desc>
    <defs></defs>
    <g id="OpenTooltip" stroke="none" stroke-width="1" fill="none" fill-rule="evenodd">
        <g id="tooltip-hover">
            <rect id="Rectangle-249" fill="#232325" transform="translate(8.000000, 8.000000) scale(1, -1) translate(-8.000000, -8.000000) " x="0" y="0" width="16" height="16" rx="8"></rect>
            <path d="M8.672,9.36533333 C8.672,8.88533333 8.928,8.608 9.30133333,8.33066667 L9.70666667,8.032 C10.3466667,7.552 10.7413333,6.96533333 10.7413333,6.112 C10.7413333,5.04533333 9.87733333,4.01066667 8.14933333,4.01066667 C6.592,4.01066667 5.664,5.06666667 5.664,6.31466667 C5.664,6.45333333 5.67466667,6.61333333 5.70666667,6.76266667 L7.2,6.816 C7.18933333,6.77333333 7.168,6.66666667 7.168,6.42133333 C7.168,5.92 7.53066667,5.41866667 8.14933333,5.41866667 C8.78933333,5.41866667 9.09866667,5.824 9.09866667,6.24 C9.09866667,6.51733333 9.00266667,6.77333333 8.71466667,6.98666667 L8.17066667,7.392 C7.56266667,7.85066667 7.36,8.39466667 7.36,8.896 C7.36,9.06666667 7.37066667,9.216 7.40266667,9.36533333 L8.672,9.36533333 Z M7.15733333,10.9226667 C7.15733333,11.424 7.56266667,11.84 8.07466667,11.84 C8.58666667,11.84 9.00266667,11.424 9.00266667,10.9226667 C9.00266667,10.4106667 8.58666667,9.99466667 8.07466667,9.99466667 C7.56266667,9.99466667 7.15733333,10.4106667 7.15733333,10.9226667 Z" id="?" fill="#FFFFFF"></path>
        </g>
    </g>
</svg>