<svg xmlns="http://www.w3.org/2000/svg" viewBox="0 0 15 29">
  <path d="M2.25 28.9646C2.3214 29 2.4286 29 2.5 29c.25 0 .4643-.1415.607-.3537L14.893 9.195c.1427-.212.1427-.495 0-.7072-.143-.2122-.3573-.3537-.6073-.3537h-4.5l1.643-7.285c.0356-.212 0-.424-.143-.601C11.143.0708 10.9287 0 10.7143 0h-10C.3213 0 0 .3183 0 .7073v14.5c0 .389.3214.7073.7143.7073h3.0714l-2 12.272c-.0357.3183.143.6366.4643.778zm3.107-13.6512c.036-.2122-.0356-.4244-.1784-.5658-.143-.1415-.3215-.2476-.5357-.2476H1.428V1.4146h8.393L8.25 8.5232c0 .0707-.0357.1414 0 .2122v.106c0 .389.3214.7074.7143.7074h4.107L3.7858 24.756l1.5714-9.4426z" fill="currentColor"/>
</svg>
