<svg viewBox="0 0 380 460" xmlns="http://www.w3.org/2000/svg"><g fill="none" fill-rule="evenodd"><path fill="#FFF" d="M0 0h80v100H0z"/><path fill="#F3F2F2" d="M10 12h60v22H10zM10 39h60v22H10zM10 66h60v22H10z"/><path fill="#FFF" d="M100 0h80v100h-80z"/><path fill="#F3F2F2" d="M110 12h60v22h-60zM110 39h16v49h-16zM132 39h16v49h-16zM154 39h16v49h-16z"/><path fill="#FFF" d="M200 0h80v100h-80z"/><path fill="#F3F2F2" d="M210 12h30v22h-30zM240 39h30v22h-30zM210 66h30v22h-30z"/><path fill="#FFF" d="M300 0h80v100h-80z"/><path fill="#F3F2F2" d="M310 12h26v22h-26zM310 66h26v22h-26zM344 12h26v22h-26zM344 66h26v22h-26zM310 39h60v22h-60z"/><g><path fill="#FFF" d="M100 120h80v100h-80z"/><path fill="#F3F2F2" d="M110 132h60v22h-60zM110 159h60v22h-60zM110 186h60v22h-60z"/></g><g><path fill="#FFF" d="M200 120h80v100h-80z"/><path fill="#F3F2F2" d="M210 132h60v22h-60zM210 159h16v49h-16zM232 159h16v49h-16zM254 159h16v49h-16z"/></g><g><path fill="#FFF" d="M300 120h80v100h-80z"/><path fill="#F3F2F2" d="M310 132h30v22h-30zM340 159h30v22h-30zM310 186h30v22h-30z"/></g><g><path fill="#FFF" d="M0 120h80v100H0z"/><path fill="#F3F2F2" d="M10 132h26v22H10zM10 186h26v22H10zM44 132h26v22H44zM44 186h26v22H44zM10 159h60v22H10z"/></g><g><path fill="#FFF" d="M200 240h80v100h-80z"/><path fill="#F3F2F2" d="M210 252h60v22h-60zM210 279h60v22h-60zM210 306h60v22h-60z"/></g><g><path fill="#FFF" d="M300 240h80v100h-80z"/><path fill="#F3F2F2" d="M310 252h60v22h-60zM310 279h16v49h-16zM332 279h16v49h-16zM354 279h16v49h-16z"/></g><g><path fill="#FFF" d="M0 240h80v100H0z"/><path fill="#F3F2F2" d="M10 252h30v22H10zM40 279h30v22H40zM10 306h30v22H10z"/></g><g><path fill="#FFF" d="M100 240h80v100h-80z"/><path fill="#F3F2F2" d="M110 252h26v22h-26zM110 306h26v22h-26zM144 252h26v22h-26zM144 306h26v22h-26zM110 279h60v22h-60z"/></g><g><path fill="#FFF" d="M300 360h80v100h-80z"/><path fill="#F3F2F2" d="M310 372h60v22h-60zM310 399h60v22h-60zM310 426h60v22h-60z"/></g><g><path fill="#FFF" d="M0 360h80v100H0z"/><path fill="#F3F2F2" d="M10 372h60v22H10zM10 399h16v49H10zM32 399h16v49H32zM54 399h16v49H54z"/></g><g><path fill="#FFF" d="M100 360h80v100h-80z"/><path fill="#F3F2F2" d="M110 372h30v22h-30zM140 399h30v22h-30zM110 426h30v22h-30z"/></g><g><path fill="#FFF" d="M200 360h80v100h-80z"/><path fill="#F3F2F2" d="M210 372h26v22h-26zM210 426h26v22h-26zM244 372h26v22h-26zM244 426h26v22h-26zM210 399h60v22h-60z"/></g></g></svg>
