<?xml version="1.0" encoding="UTF-8"?>
<svg width="80px" height="160px" viewBox="0 0 80 160" version="1.1" xmlns="http://www.w3.org/2000/svg" xmlns:xlink="http://www.w3.org/1999/xlink">
    <defs>
        <linearGradient x1="7.54049532%" y1="0%" x2="94.2426551%" y2="45.0548457%" id="linearGradient-1">
            <stop stop-color="#414B5A" offset="0%"></stop>
            <stop stop-color="#0F1019" offset="100%"></stop>
        </linearGradient>
        <linearGradient x1="6.81608021%" y1="4.21002515%" x2="100%" y2="39.2146581%" id="linearGradient-2">
            <stop stop-color="#343643" stop-opacity="0" offset="0%"></stop>
            <stop stop-color="#3C3E50" offset="50.0390631%"></stop>
            <stop stop-color="#262831" stop-opacity="0" offset="100%"></stop>
        </linearGradient>
        <path d="M15.3833112,-2.39786102e-15 L64.6166888,-1.15485265e-15 C69.9658012,-2.13746867e-15 71.9055187,0.556953667 73.8610742,1.60279622 C75.8166298,2.64863878 77.3513612,4.18337022 78.3972038,6.13892578 C79.4430463,8.09448133 80,10.0341988 80,15.3833112 L80,144.616689 C80,149.965801 79.4430463,151.905519 78.3972038,153.861074 C77.3513612,155.81663 75.8166298,157.351361 73.8610742,158.397204 C71.9055187,159.443046 69.9658012,160 64.6166888,160 L15.3833112,160 C10.0341988,160 8.09448133,159.443046 6.13892578,158.397204 C4.18337022,157.351361 2.64863878,155.81663 1.60279622,153.861074 C0.556953667,151.905519 2.4074122e-16,149.965801 -4.14336123e-16,144.616689 L4.14336123e-16,15.3833112 C-2.4074122e-16,10.0341988 0.556953667,8.09448133 1.60279622,6.13892578 C2.64863878,4.18337022 4.18337022,2.64863878 6.13892578,1.60279622 C8.09448133,0.556953667 10.0341988,-1.41524501e-15 15.3833112,-2.39786102e-15 Z" id="path-3"></path>
        <filter x="-2.5%" y="-1.2%" width="105.0%" height="102.5%" filterUnits="objectBoundingBox" id="filter-4">
            <feGaussianBlur stdDeviation="2" in="SourceAlpha" result="shadowBlurInner1"></feGaussianBlur>
            <feOffset dx="0" dy="0" in="shadowBlurInner1" result="shadowOffsetInner1"></feOffset>
            <feComposite in="shadowOffsetInner1" in2="SourceAlpha" operator="arithmetic" k2="-1" k3="1" result="shadowInnerInner1"></feComposite>
            <feColorMatrix values="0 0 0 0 0.225740746   0 0 0 0 0.230634295   0 0 0 0 0.255102041  0 0 0 1 0" type="matrix" in="shadowInnerInner1" result="shadowMatrixInner1"></feColorMatrix>
            <feGaussianBlur stdDeviation="2" in="SourceAlpha" result="shadowBlurInner2"></feGaussianBlur>
            <feOffset dx="0" dy="0" in="shadowBlurInner2" result="shadowOffsetInner2"></feOffset>
            <feComposite in="shadowOffsetInner2" in2="SourceAlpha" operator="arithmetic" k2="-1" k3="1" result="shadowInnerInner2"></feComposite>
            <feColorMatrix values="0 0 0 0 0.194758535   0 0 0 0 0.212861343   0 0 0 0 0.29432398  0 0 0 0.0944859601 0" type="matrix" in="shadowInnerInner2" result="shadowMatrixInner2"></feColorMatrix>
            <feMerge>
                <feMergeNode in="shadowMatrixInner1"></feMergeNode>
                <feMergeNode in="shadowMatrixInner2"></feMergeNode>
            </feMerge>
        </filter>
        <path d="M14.2555408,4 L65.7444592,4 C69.3105342,4 70.6036791,4.37130244 71.9073828,5.06853082 C73.2110865,5.76575919 74.2342408,6.78891348 74.9314692,8.09261719 C75.6286976,9.39632089 76,10.6894658 76,14.2555408 L76,145.744459 C76,149.310534 75.6286976,150.603679 74.9314692,151.907383 C74.2342408,153.211087 73.2110865,154.234241 71.9073828,154.931469 C70.6036791,155.628698 69.3105342,156 65.7444592,156 L14.2555408,156 C10.6894658,156 9.39632089,155.628698 8.09261719,154.931469 C6.78891348,154.234241 5.76575919,153.211087 5.06853082,151.907383 C4.37130244,150.603679 4,149.310534 4,145.744459 L4,14.2555408 C4,10.6894658 4.37130244,9.39632089 5.06853082,8.09261719 C5.76575919,6.78891348 6.78891348,5.76575919 8.09261719,5.06853082 C9.39632089,4.37130244 10.6894658,4 14.2555408,4 Z" id="path-5"></path>
        <linearGradient x1="50%" y1="0%" x2="50%" y2="100%" id="linearGradient-7">
            <stop stop-color="#0F101A" offset="1.04033801%"></stop>
            <stop stop-color="#404A59" offset="96.5939892%"></stop>
        </linearGradient>
        <path d="M14.2555408,4 L65.7444592,4 C69.3105342,4 70.6036791,4.37130244 71.9073828,5.06853082 C73.2110865,5.76575919 74.2342408,6.78891348 74.9314692,8.09261719 C75.6286976,9.39632089 76,10.6894658 76,14.2555408 L76,145.744459 C76,149.310534 75.6286976,150.603679 74.9314692,151.907383 C74.2342408,153.211087 73.2110865,154.234241 71.9073828,154.931469 C70.6036791,155.628698 69.3105342,156 65.7444592,156 L14.2555408,156 C10.6894658,156 9.39632089,155.628698 8.09261719,154.931469 C6.78891348,154.234241 5.76575919,153.211087 5.06853082,151.907383 C4.37130244,150.603679 4,149.310534 4,145.744459 L4,14.2555408 C4,10.6894658 4.37130244,9.39632089 5.06853082,8.09261719 C5.76575919,6.78891348 6.78891348,5.76575919 8.09261719,5.06853082 C9.39632089,4.37130244 10.6894658,4 14.2555408,4 Z" id="path-8"></path>
        <filter x="-0.0%" y="-0.0%" width="100.0%" height="100.0%" filterUnits="objectBoundingBox" id="filter-9">
            <feOffset dx="0" dy="0" in="SourceAlpha" result="shadowOffsetInner1"></feOffset>
            <feComposite in="shadowOffsetInner1" in2="SourceAlpha" operator="arithmetic" k2="-1" k3="1" result="shadowInnerInner1"></feComposite>
            <feColorMatrix values="0 0 0 0 0.120959804   0 0 0 0 0.14205174   0 0 0 0 0.17017432  0 0 0 1 0" type="matrix" in="shadowInnerInner1"></feColorMatrix>
        </filter>
    </defs>
    <g id="In-Progress" stroke="none" stroke-width="1" fill="none" fill-rule="evenodd">
        <g id="Action-Types" transform="translate(-786.000000, -128.000000)">
            <g id="Group-6" transform="translate(60.000000, 60.000000)">
                <g id="Group-8">
                    <g id="Group-2" transform="translate(6.000000, 68.000000)">
                        <g id="appfunction-url">
                            <g id="exit" transform="translate(720.000000, 0.000000)">
                                <g id="Body">
                                    <use fill="#151515" fill-rule="evenodd" xlink:href="#path-3"></use>
                                    <use fill="url(#linearGradient-1)" fill-rule="evenodd" xlink:href="#path-3"></use>
                                    <use fill="url(#linearGradient-2)" fill-rule="evenodd" xlink:href="#path-3"></use>
                                    <use fill="black" fill-opacity="1" filter="url(#filter-4)" xlink:href="#path-3"></use>
                                </g>
                                <mask id="mask-6" fill="white">
                                    <use xlink:href="#path-5"></use>
                                </mask>
                                <use id="Mask" fill="#1B1B1B" xlink:href="#path-5"></use>
                                <g id="Frame" mask="url(#mask-6)">
                                    <use fill="#000000" fill-rule="evenodd" xlink:href="#path-8"></use>
                                    <use fill="black" fill-opacity="1" filter="url(#filter-9)" xlink:href="#path-8"></use>
                                    <path stroke="url(#linearGradient-7)" stroke-width="2" d="M14.2555408,5 C11.155239,5 9.88115612,5.24603676 8.56421604,5.95034401 C7.43478081,6.55437258 6.55437258,7.43478081 5.95034401,8.56421604 C5.24603676,9.88115612 5,11.155239 5,14.2555408 L5,145.744459 C5,148.844761 5.24603676,150.118844 5.95034401,151.435784 C6.55437258,152.565219 7.43478081,153.445627 8.56421604,154.049656 C9.88115612,154.753963 11.155239,155 14.2555408,155 L65.7444592,155 C68.844761,155 70.1188439,154.753963 71.435784,154.049656 C72.5652192,153.445627 73.4456274,152.565219 74.049656,151.435784 C74.7539632,150.118844 75,148.844761 75,145.744459 L75,14.2555408 C75,11.155239 74.7539632,9.88115612 74.049656,8.56421604 C73.4456274,7.43478081 72.5652192,6.55437258 71.435784,5.95034401 C70.1188439,5.24603676 68.844761,5 65.7444592,5 L14.2555408,5 Z" stroke-linejoin="square"></path>
                                </g>
                                <path d="M52.0392475,106 L27.9607525,106 C25.7732893,106 24,104.226711 24,102.039247 L24,57.9607525 C24,55.7732893 25.7732893,54 27.9607525,54 L52.0392475,54 C54.2267107,54 56,55.7732893 56,57.9607525 L56,102.039247 C56,104.226711 54.2267107,106 52.0392475,106 Z" id="Line-2" fill="#D8D8D8" opacity="0.400000006" mask="url(#mask-6)"></path>
                                <path d="M54.0466955,63.2902126 C49.6126409,65.1443835 52.6235955,72.0685634 56.9044136,70.2255404 C61.3111682,68.3283007 58.2733273,61.5227629 54.0466955,63.2902126 Z M37.8181818,72.0013443 C41.3586864,70.8957651 44.4006,67.8255891 48.3181818,68.7309942 C50.52805,69.2417418 53.2928909,70.4110567 54.9712682,72.0748059 C56.1018636,73.1955258 56.8071773,74.9979898 58.1943545,75.785546 C59.2824091,76.4033129 60.8102227,76.1400239 62,76.1400239 L62,80.6235934 C58.3990727,80.6235934 55.2946364,80.7669642 53.4090909,76.8298038 C52.7282773,78.0811336 50.8433364,80.4915006 51.0949227,81.9895646 C51.4272955,83.9688192 54.2561227,85.1926612 54.9970409,87.1765028 C56.0718909,90.0543681 54.3815818,93.206145 53.3614591,95.7987519 C53.0155955,96.6778074 52.7441864,97.9760422 51.9775273,98.5482147 C50.9973045,99.2800712 49.1362273,98.9027616 48,98.9027616 C48.3808955,96.5049486 49.5289273,94.2583353 50.3541955,92.0049623 C50.6510273,91.1945053 51.2777182,90.0359165 51.0990909,89.131684 C50.9183318,88.2167599 49.9219773,87.6565896 49.2714864,87.1767787 C47.8443455,86.1240021 46.0419409,85.1846253 44.9561455,83.6953904 C42.5258727,80.3620979 46.5916955,75.9035673 48,73.0360142 C44.7762455,72.6256296 42.4100545,74.8584128 39.4090909,75.7951339 C38.8596864,74.5192825 38.1865727,73.3588312 37.8181818,72.0013443 Z M34,86.4867228 C36.1835991,86.4867228 38.5168773,86.741562 40.6818182,86.4215386 C41.7456273,86.2642688 42.7970909,85.2769523 43.8636364,85.404941 C44.8872591,85.5277908 45.8776955,86.603744 46.7272727,87.1765028 C45.0768955,92.3266067 37.9205409,90.9702924 34,90.9702924 L34,86.4867228 Z" id="Shape" fill="#FFFFFF" fill-rule="nonzero" mask="url(#mask-6)"></path>
                            </g>
                        </g>
                    </g>
                </g>
            </g>
        </g>
    </g>
</svg>
