<?xml version="1.0" encoding="UTF-8"?>
<svg width="80px" height="160px" viewBox="0 0 80 160" version="1.1" xmlns="http://www.w3.org/2000/svg" xmlns:xlink="http://www.w3.org/1999/xlink">
    <defs>
        <linearGradient x1="7.54049532%" y1="0%" x2="94.2426551%" y2="45.0548457%" id="linearGradient-1">
            <stop stop-color="#414B5A" offset="0%"></stop>
            <stop stop-color="#0F1019" offset="100%"></stop>
        </linearGradient>
        <linearGradient x1="6.81608021%" y1="4.21002515%" x2="100%" y2="39.2146581%" id="linearGradient-2">
            <stop stop-color="#343643" stop-opacity="0" offset="0%"></stop>
            <stop stop-color="#3C3E50" offset="50.0390631%"></stop>
            <stop stop-color="#262831" stop-opacity="0" offset="100%"></stop>
        </linearGradient>
        <path d="M15.3833112,-2.39786102e-15 L64.6166888,-1.15485265e-15 C69.9658012,-2.13746867e-15 71.9055187,0.556953667 73.8610742,1.60279622 C75.8166298,2.64863878 77.3513612,4.18337022 78.3972038,6.13892578 C79.4430463,8.09448133 80,10.0341988 80,15.3833112 L80,144.616689 C80,149.965801 79.4430463,151.905519 78.3972038,153.861074 C77.3513612,155.81663 75.8166298,157.351361 73.8610742,158.397204 C71.9055187,159.443046 69.9658012,160 64.6166888,160 L15.3833112,160 C10.0341988,160 8.09448133,159.443046 6.13892578,158.397204 C4.18337022,157.351361 2.64863878,155.81663 1.60279622,153.861074 C0.556953667,151.905519 2.4074122e-16,149.965801 -4.14336123e-16,144.616689 L4.14336123e-16,15.3833112 C-2.4074122e-16,10.0341988 0.556953667,8.09448133 1.60279622,6.13892578 C2.64863878,4.18337022 4.18337022,2.64863878 6.13892578,1.60279622 C8.09448133,0.556953667 10.0341988,-1.41524501e-15 15.3833112,-2.39786102e-15 Z" id="path-3"></path>
        <filter x="-2.5%" y="-1.2%" width="105.0%" height="102.5%" filterUnits="objectBoundingBox" id="filter-4">
            <feGaussianBlur stdDeviation="2" in="SourceAlpha" result="shadowBlurInner1"></feGaussianBlur>
            <feOffset dx="0" dy="0" in="shadowBlurInner1" result="shadowOffsetInner1"></feOffset>
            <feComposite in="shadowOffsetInner1" in2="SourceAlpha" operator="arithmetic" k2="-1" k3="1" result="shadowInnerInner1"></feComposite>
            <feColorMatrix values="0 0 0 0 0.225740746   0 0 0 0 0.230634295   0 0 0 0 0.255102041  0 0 0 1 0" type="matrix" in="shadowInnerInner1" result="shadowMatrixInner1"></feColorMatrix>
            <feGaussianBlur stdDeviation="2" in="SourceAlpha" result="shadowBlurInner2"></feGaussianBlur>
            <feOffset dx="0" dy="0" in="shadowBlurInner2" result="shadowOffsetInner2"></feOffset>
            <feComposite in="shadowOffsetInner2" in2="SourceAlpha" operator="arithmetic" k2="-1" k3="1" result="shadowInnerInner2"></feComposite>
            <feColorMatrix values="0 0 0 0 0.194758535   0 0 0 0 0.212861343   0 0 0 0 0.29432398  0 0 0 0.0944859601 0" type="matrix" in="shadowInnerInner2" result="shadowMatrixInner2"></feColorMatrix>
            <feMerge>
                <feMergeNode in="shadowMatrixInner1"></feMergeNode>
                <feMergeNode in="shadowMatrixInner2"></feMergeNode>
            </feMerge>
        </filter>
        <path d="M14.2555408,4 L65.7444592,4 C69.3105342,4 70.6036791,4.37130244 71.9073828,5.06853082 C73.2110865,5.76575919 74.2342408,6.78891348 74.9314692,8.09261719 C75.6286976,9.39632089 76,10.6894658 76,14.2555408 L76,145.744459 C76,149.310534 75.6286976,150.603679 74.9314692,151.907383 C74.2342408,153.211087 73.2110865,154.234241 71.9073828,154.931469 C70.6036791,155.628698 69.3105342,156 65.7444592,156 L14.2555408,156 C10.6894658,156 9.39632089,155.628698 8.09261719,154.931469 C6.78891348,154.234241 5.76575919,153.211087 5.06853082,151.907383 C4.37130244,150.603679 4,149.310534 4,145.744459 L4,14.2555408 C4,10.6894658 4.37130244,9.39632089 5.06853082,8.09261719 C5.76575919,6.78891348 6.78891348,5.76575919 8.09261719,5.06853082 C9.39632089,4.37130244 10.6894658,4 14.2555408,4 Z" id="path-5"></path>
        <linearGradient x1="50%" y1="0%" x2="50%" y2="100%" id="linearGradient-7">
            <stop stop-color="#0F101A" offset="1.04033801%"></stop>
            <stop stop-color="#404A59" offset="96.5939892%"></stop>
        </linearGradient>
        <path d="M14.2555408,4 L65.7444592,4 C69.3105342,4 70.6036791,4.37130244 71.9073828,5.06853082 C73.2110865,5.76575919 74.2342408,6.78891348 74.9314692,8.09261719 C75.6286976,9.39632089 76,10.6894658 76,14.2555408 L76,145.744459 C76,149.310534 75.6286976,150.603679 74.9314692,151.907383 C74.2342408,153.211087 73.2110865,154.234241 71.9073828,154.931469 C70.6036791,155.628698 69.3105342,156 65.7444592,156 L14.2555408,156 C10.6894658,156 9.39632089,155.628698 8.09261719,154.931469 C6.78891348,154.234241 5.76575919,153.211087 5.06853082,151.907383 C4.37130244,150.603679 4,149.310534 4,145.744459 L4,14.2555408 C4,10.6894658 4.37130244,9.39632089 5.06853082,8.09261719 C5.76575919,6.78891348 6.78891348,5.76575919 8.09261719,5.06853082 C9.39632089,4.37130244 10.6894658,4 14.2555408,4 Z" id="path-8"></path>
        <filter x="-0.0%" y="-0.0%" width="100.0%" height="100.0%" filterUnits="objectBoundingBox" id="filter-9">
            <feOffset dx="0" dy="0" in="SourceAlpha" result="shadowOffsetInner1"></feOffset>
            <feComposite in="shadowOffsetInner1" in2="SourceAlpha" operator="arithmetic" k2="-1" k3="1" result="shadowInnerInner1"></feComposite>
            <feColorMatrix values="0 0 0 0 0.120959804   0 0 0 0 0.14205174   0 0 0 0 0.17017432  0 0 0 1 0" type="matrix" in="shadowInnerInner1"></feColorMatrix>
        </filter>
    </defs>
    <g id="In-Progress" stroke="none" stroke-width="1" fill="none" fill-rule="evenodd">
        <g id="Action-Types" transform="translate(-666.000000, -128.000000)">
            <g id="Group-6" transform="translate(60.000000, 60.000000)">
                <g id="Group-8">
                    <g id="Group-2" transform="translate(6.000000, 68.000000)">
                        <g id="appfunction-url">
                            <g id="webhook" transform="translate(600.000000, 0.000000)">
                                <g id="Body">
                                    <use fill="#151515" fill-rule="evenodd" xlink:href="#path-3"></use>
                                    <use fill="url(#linearGradient-1)" fill-rule="evenodd" xlink:href="#path-3"></use>
                                    <use fill="url(#linearGradient-2)" fill-rule="evenodd" xlink:href="#path-3"></use>
                                    <use fill="black" fill-opacity="1" filter="url(#filter-4)" xlink:href="#path-3"></use>
                                </g>
                                <mask id="mask-6" fill="white">
                                    <use xlink:href="#path-5"></use>
                                </mask>
                                <use id="Mask" fill="#1B1B1B" xlink:href="#path-5"></use>
                                <g id="Frame" mask="url(#mask-6)">
                                    <use fill="#000000" fill-rule="evenodd" xlink:href="#path-8"></use>
                                    <use fill="black" fill-opacity="1" filter="url(#filter-9)" xlink:href="#path-8"></use>
                                    <path stroke="url(#linearGradient-7)" stroke-width="2" d="M14.2555408,5 C11.155239,5 9.88115612,5.24603676 8.56421604,5.95034401 C7.43478081,6.55437258 6.55437258,7.43478081 5.95034401,8.56421604 C5.24603676,9.88115612 5,11.155239 5,14.2555408 L5,145.744459 C5,148.844761 5.24603676,150.118844 5.95034401,151.435784 C6.55437258,152.565219 7.43478081,153.445627 8.56421604,154.049656 C9.88115612,154.753963 11.155239,155 14.2555408,155 L65.7444592,155 C68.844761,155 70.1188439,154.753963 71.435784,154.049656 C72.5652192,153.445627 73.4456274,152.565219 74.049656,151.435784 C74.7539632,150.118844 75,148.844761 75,145.744459 L75,14.2555408 C75,11.155239 74.7539632,9.88115612 74.049656,8.56421604 C73.4456274,7.43478081 72.5652192,6.55437258 71.435784,5.95034401 C70.1188439,5.24603676 68.844761,5 65.7444592,5 L14.2555408,5 Z" stroke-linejoin="square"></path>
                                </g>
                                <path d="M53.8057154,71 C51.7395526,71 49.5808751,71.8419085 47.2966419,72.7314314 C44.6313361,73.7702902 42.9626747,74.8437777 39.9273098,74.8437777 C36.9624324,74.8437777 35.293771,73.7681259 32.6306679,72.7271028 C30.3574484,71.8375799 28.2075818,71 26.1964874,71 C20.0222292,71 15,75.9345794 15,81.9989179 C15,88.0654206 20.0222292,93 26.1964874,93 C28.1635272,93 30.2869609,92.1537629 32.5359504,91.2577472 C35.0999306,90.2362027 36.916175,89.0804722 39.9273098,89.0804722 C42.9076064,89.0804722 44.5630514,90.1669454 47.2151408,91.21879 C49.5258068,92.1342843 51.7087144,92.9978357 53.8057154,92.9978357 C59.9777708,92.9978357 65,88.0632563 65,81.9967536 C65,75.9324152 59.9777708,71 53.8057154,71 Z M53.6029832,90.6735858 C51.9333123,90.6735858 49.9442452,89.8857846 47.8362305,89.0503689 C45.1224646,87.9747172 43.1322043,86.754058 39.7245777,86.754058 C36.2839101,86.754058 34.2562034,87.9941958 31.5071938,89.0893261 C29.4608556,89.9030989 27.5312623,90.6714215 25.9937553,90.6714215 C21.0354052,90.6714215 17,86.7064437 17,81.8346286 C17,76.9628136 21.0354052,73 25.9937553,73 C27.5841278,73 29.5423567,73.7661584 31.6151276,74.5756026 C34.3377045,75.6404329 36.3367757,76.845942 39.7245777,76.845942 C43.1806644,76.845942 45.1819383,75.6425971 47.906718,74.5799311 C49.9905026,73.7683227 51.9597451,73.0021643 53.605186,73.0021643 C58.563536,73.0021643 62.5967385,76.9649779 62.5967385,81.8367929 C62.5967385,86.708608 58.5613332,90.6735858 53.6029832,90.6735858 Z" id="Shape" stroke="#FFFFFF" stroke-width="1.5" fill="#FFFFFF" mask="url(#mask-6)" transform="translate(40.000000, 82.000000) rotate(-270.000000) translate(-40.000000, -82.000000) "></path>
                                <path d="M40,90 C36.6908665,90 34,92.6908665 34,96 C34,99.3091335 36.6908665,102 40,102 C43.3067916,102 46,99.3091335 46,96 C46,92.6908665 43.3067916,90 40,90 Z" id="Shape" fill="#FFFFFF" opacity="0.5" mask="url(#mask-6)"></path>
                                <path d="M40,62 C36.6908665,62 34,64.6908665 34,68 C34,71.3091335 36.6908665,74 40,74 C43.3091335,74 46,71.3091335 46,68 C46,64.6908665 43.3067916,62 40,62 Z" id="Shape" fill="#FFFFFF" opacity="0.5" mask="url(#mask-6)"></path>
                            </g>
                        </g>
                    </g>
                </g>
            </g>
        </g>
    </g>
</svg>
