<?xml version="1.0" encoding="UTF-8"?>
<svg width="16px" height="16px" viewBox="0 0 16 16" version="1.1" xmlns="http://www.w3.org/2000/svg" xmlns:xlink="http://www.w3.org/1999/xlink">
    <!-- Generator: Sketch 52.3 (67297) - http://www.bohemiancoding.com/sketch -->
    <title>Shape</title>
    <desc>Created with Sketch.</desc>
    <g id="v2" stroke="none" stroke-width="1" fill="none" fill-rule="evenodd">
        <g id="Action---Email---Preview-Tablet" transform="translate(-584.000000, -335.000000)" fill="#000000">
            <g id="Group-9" transform="translate(54.000000, 56.000000)">
                <g id="Left-Box">
                    <g id="Group-13" transform="translate(28.000000, 237.000000)">
                        <g id="Button-Copy-2" transform="translate(486.000000, 30.000000)">
                            <path fill="#0092DD" fill-rule="evenodd" d="M31.9836446,12.65397 L24.5576446,27.61997 C24.5556446,27.62897 24.5476446,27.63597 24.5446446,27.64397 C24.4976446,27.80697 24.3786446,27.94297 24.2016446,27.98697 C24.1116446,28.00897 24.0236446,27.99897 23.9396446,27.97497 C23.9366446,27.97397 23.9346446,27.97497 23.9316446,27.97397 C23.9256446,27.97297 23.9216446,27.96797 23.9156446,27.96597 C23.8646446,27.94897 23.8176446,27.92797 23.7726446,27.89597 C23.7516446,27.88097 23.7336446,27.86297 23.7136446,27.84497 C23.6876446,27.81897 23.6626446,27.79397 23.6416446,27.76297 C23.6236446,27.73697 23.6126446,27.70997 23.6006446,27.68197 C23.5896446,27.65897 23.5726446,27.63897 23.5656446,27.61297 L20.9246446,22.59697 L16.3856446,20.43297 C16.3606446,20.42497 16.3406446,20.40897 16.3176446,20.39797 C16.2896446,20.38597 16.2616446,20.37397 16.2356446,20.35597 C16.2056446,20.33497 16.1796446,20.31097 16.1546446,20.28397 C16.1356446,20.26497 16.1186446,20.24697 16.1026446,20.22497 C16.0716446,20.18197 16.0496446,20.13397 16.0326446,20.08297 C16.0306446,20.07697 16.0266446,20.07297 16.0246446,20.06697 L16.0246446,20.05997 C16.0006446,19.97597 15.9896446,19.88797 16.0126446,19.79797 C16.0566446,19.62097 16.1926446,19.50097 16.3556446,19.45397 C16.3646446,19.45197 16.3706446,19.44497 16.3796446,19.44197 L31.3466446,12.01597 C31.5026446,11.97397 31.6576446,12.01797 31.7786446,12.11097 C31.7996446,12.12597 31.8176446,12.14397 31.8366446,12.16197 C31.8546446,12.18097 31.8726446,12.19797 31.8866446,12.21897 C31.9816446,12.34197 32.0266446,12.49697 31.9836446,12.65397 L31.9836446,12.65397 Z M17.6526446,19.93197 L21.1896446,21.61797 L28.8136446,14.39397 L17.6526446,19.93197 L17.6526446,19.93197 Z M21.9006446,22.32497 L24.0456446,26.39997 L29.7636446,14.87597 L21.9006446,22.32497 L21.9006446,22.32497 Z" id="Shape"></path>
                        </g>
                    </g>
                </g>
            </g>
        </g>
    </g>
</svg>