<svg viewBox="0 0 13 3" version="1.1" xmlns="http://www.w3.org/2000/svg" xmlns:xlink="http://www.w3.org/1999/xlink">
    <!-- Generator: Sketch 47.1 (45422) - http://www.bohemiancoding.com/sketch -->
    <desc>Created with Sketch.</desc>
    <defs></defs>
    <g id="Page-1" stroke="none" stroke-width="1" fill="none" fill-rule="evenodd" opacity="0.800000012">
        <g id="nav-03" class="fillable" transform="translate(-30.000000, -299.000000)" fill="currentColor">
            <g id="icon-more" transform="translate(24.000000, 288.000000)">
                <g id="Group-4" transform="translate(6.000000, 11.000000)">
                    <path d="M12.336,1.296 C12.336,0.576 11.76,0 11.04,0 C10.336,0 9.76,0.576 9.76,1.296 C9.76,2 10.336,2.576 11.04,2.576 C11.76,2.576 12.336,2 12.336,1.296 Z M7.456,1.296 C7.456,0.576 6.88,0 6.16,0 C5.456,0 4.864,0.576 4.864,1.296 C4.864,2 5.456,2.576 6.16,2.576 C6.88,2.576 7.456,2 7.456,1.296 Z M2.576,1.296 C2.576,0.576 2.016,0 1.296,0 C0.576,0 0,0.576 0,1.296 C0,2 0.576,2.576 1.296,2.576 C2.016,2.576 2.576,2 2.576,1.296 Z" id="…"></path>
                </g>
            </g>
        </g>
    </g>
</svg>
