<svg viewBox="0 0 24 20" version="1.1" xmlns="http://www.w3.org/2000/svg" xmlns:xlink="http://www.w3.org/1999/xlink">
    <!-- Generator: Sketch 47.1 (45422) - http://www.bohemiancoding.com/sketch -->
    <desc>Created with Sketch.</desc>
    <defs></defs>
    <g id="Page-1" stroke="none" stroke-width="1" fill="none" fill-rule="evenodd" opacity="0.800000012">
        <g id="nav-03" class="fillable" transform="translate(-24.000000, -162.000000)" fill-rule="nonzero" fill="currentColor">
            <g id="icon-analytics" transform="translate(24.000000, 160.000000)">
                <path d="M1.5,3.5 L1.5,20.5 L22.5,20.5 L22.5,3.5 L1.5,3.5 Z M1.5,2 L22.5,2 C23.3284271,2 24,2.67157288 24,3.5 L24,20.5 C24,21.3284271 23.3284271,22 22.5,22 L1.5,22 C0.671572875,22 0,21.3284271 0,20.5 L0,3.5 C0,2.67157288 0.671572875,2 1.5,2 Z M5.89227494,15.5 L9.2778696,12.2684036 C9.71820025,11.848102 10.3503511,11.8295442 10.8086224,12.2234658 L12.1150804,13.3464732 C13.1405378,14.2279376 14.5588109,14.1690115 15.5267097,13.2047275 L18.9440664,9.80013338 L17.9718726,8.5 L14.5545159,11.9045941 C14.1145619,12.342905 13.4698923,12.3696896 13.0037753,11.969024 L11.6973173,10.8460166 C10.6891203,9.9793889 9.29838852,10.0202161 8.32966107,10.9448797 L4.94406642,14.1764761 L5.89227494,15.5 Z" id="Rectangle-21"></path>
            </g>
        </g>
    </g>
</svg>
