<?xml version="1.0" encoding="utf-8"?>
<!-- Generator: Adobe Illustrator 22.0.0, SVG Export Plug-In . SVG Version: 6.00 Build 0)  -->
<svg version="1.1" id="Layer_2" xmlns="http://www.w3.org/2000/svg" xmlns:xlink="http://www.w3.org/1999/xlink" x="0px" y="0px"
	 viewBox="0 0 24 24" style="enable-background:new 0 0 24 24;" xml:space="preserve">
<g id="Page-1">
	<g id="Message" class="fillable" fill="currentColor">
		<path d="M5,22.9c-0.3,0-0.6-0.1-0.8-0.4C4.1,22.4,4,22.1,4,21.9v-3.6c-2.5-2-4-4.8-4-7.8C0,4.7,5.4,0,12,0c6.6,0,12,4.7,12,10.5
			C24,16.3,18.6,21,12,21c-1.2,0-2.5-0.2-3.6-0.5l-2.7,2.2C5.4,22.8,5.2,22.9,5,22.9z M4.7,21.5C4.7,21.5,4.7,21.5,4.7,21.5
			L4.7,21.5z M12,1.5c-5.8,0-10.5,4-10.5,9c0,2.5,1.2,4.9,3.4,6.6l0.6,0.4v3.3l2.5-2l0.7,0.2c1,0.3,2.1,0.4,3.2,0.4
			c5.8,0,10.5-4,10.5-9C22.5,5.5,17.8,1.5,12,1.5z"/>
	</g>
</g>
</svg>
