<svg xmlns="http://www.w3.org/2000/svg" viewBox="0 0 26 30">
  <g transform="translate(1)" stroke-width="1.25" stroke="currentColor" fill="none" fill-rule="evenodd">
    <path d="M22.281 8.8304l1.581-1.6024c.0528-.0534.0895-.12.0994-.1834.011-.0656-.0033-.1234-.0406-.161l-1.847-1.871c-.0368-.0384-.0944-.0522-.1574-.0422-.0632.0105-.13.0466-.1822.1006l-1.581 1.602c-.0527.053 2.0752 2.2112 2.1278 2.1574zM17.0916 11.92l-6.1078 6.283"/>
    <ellipse cx="11.5529" cy="17.7154" rx="11.342" ry="11.4944"/>
    <path d="M13.375 6.3684V4.375h1.25V1.25c0-.345-.28-.625-.625-.625H9c-.345 0-.625.28-.625.625v3.125h1.25v1.9934"/>
  </g>
</svg>
