<?xml version="1.0" encoding="UTF-8"?>
<svg width="16px" height="16px" viewBox="0 0 16 16" version="1.1" xmlns="http://www.w3.org/2000/svg" xmlns:xlink="http://www.w3.org/1999/xlink">
    <g stroke="none" stroke-width="1" fill="currentColor" fill-rule="evenodd">
        <g transform="translate(-18.000000, -80.000000)">
            <path d="M32.9333333,82.0787402 L31.9851852,94.9291339 C31.9851852,95.520252 31.5073185,96 30.9185185,96 L21.0814815,96 C20.4916148,96 20.0148148,95.520252 20.0148148,94.9291339 L19.0666667,82.0787402 L18.5333333,82.0787402 C18.2389333,82.0787402 18,81.8388661 18,81.5433071 C18,81.247748 18.2389333,81.007874 18.5333333,81.007874 L20.1333333,81.007874 L31.8666667,81.007874 L33.4666667,81.007874 C33.76,81.007874 34,81.247748 34,81.5433071 C34,81.8388661 33.76,82.0787402 33.4666667,82.0787402 L32.9333333,82.0787402 Z M31.3333333,82.0787402 L31.8666667,82.0787402 L31.8666667,83.1506772 L30.9185185,94.3937008 C30.9185185,94.6892598 30.6785185,94.9291339 30.3851852,94.9291339 L21.6148148,94.9291339 C21.3204148,94.9291339 21.0814815,94.6892598 21.0814815,94.3937008 L20.1333333,83.1496063 L20.1333333,82.6141732 L20.1333333,82.0787402 L20.6666667,82.0787402 L31.3333333,82.0787402 Z M26.982755,88.5984079 L29.4604571,86.1011962 L28.691125,85.3258063 L26.2134228,87.8230179 L23.7470343,85.3372091 L22.9777022,86.112599 L25.4440906,88.5984079 L22.9663885,91.0956195 L23.7357206,91.8710094 L26.2134228,89.3737978 L28.6798112,91.8596066 L29.4491434,91.0842167 L26.982755,88.5984079 Z M29,81 L29,81.007874 L23,81.007874 L23,81 C23,80.4477153 23.4477153,80 24,80 L28,80 C28.5522847,80 29,80.4477153 29,81 Z"></path>
        </g>
    </g>
</svg>
