<svg width="16" height="18" viewBox="0 0 16 18" xmlns="http://www.w3.org/2000/svg">
  <g fill="currentColor" fill-rule="evenodd">
    <path d="M14.9333 3.1875l-.948 13.75c0 .5865-.478 1.0625-1.0668 1.0625h-9.837c-.59 0-1.0667-.476-1.0667-1.0625l-.948-13.75H.5332C.239 3.1875 0 2.9495 0 2.6562c0-.2932.239-.5312.5333-.5312h4.8V.5312c0-.2932.239-.5312.5334-.5312h4.2666c.2934 0 .5334.238.5334.5313V2.125h4.8c.2933 0 .5333.238.5333.5313 0 .2932-.24.5312-.5333.5312h-.5334zM6.4 1.0625V2.125h3.2V1.0625H6.4zm6.9333 2.125h-11.2V4.25l.9482 12.1563c0 .2932.239.5312.5333.5312h8.7704c.2933 0 .5333-.238.5333-.5313l.9482-12.155V3.1874h-.5334z"/>
    <text transform="rotate(45 11.107 8.293)" font-family="HelveticaNeue, Helvetica Neue" font-size="16">
      <tspan x="5.5995" y="16">+</tspan>
    </text>
  </g>
</svg>
