<svg viewbox="0 0 32 32" xmlns="http://www.w3.org/2000/svg"><path d="M11.79 14.918c-.02-1.163.223-2.013.759-3.143-.037.078.17-.357.218-.461.335-.723.457-1.198.417-1.834-.07-1.142-.11-1.635-.203-2.28-.384-2.648-1.33-3.946-3.328-3.847C8.37 3.417 7.56 4.53 7.155 6.471c-.23 1.106-.291 2.28-.256 3.27l.005.135c.155 1.297.302 2.268.462 3.077.11.556.22 1.017.382 1.618l.21.773.09.332 3.743-.758zm1.223.439l.041.53-5.889 1.192-.139-.556c-.07-.282-.14-.547-.226-.866l-.211-.775a24.387 24.387 0 0 1-.4-1.696c-.166-.842-.319-1.842-.48-3.2a7.599 7.599 0 0 1-.009-.202c-.038-1.08.026-2.341.28-3.558.504-2.413 1.639-3.973 3.613-4.071 2.782-.138 4.114 1.69 4.575 4.872.1.69.142 1.204.214 2.38.053.867-.115 1.524-.526 2.411-.05.11-.262.554-.223.472-.532 1.122-.714 1.854-.62 3.067zm-4.119 4.012c.68 2.95 1.377 3.745 2.87 3.509.85-.134 1.13-.386 1.195-.98.068-.606-.066-1.433-.512-3.249l-3.553.72zm4.578-1.568c.598 2.376.777 3.36.68 4.23-.13 1.173-.85 1.819-2.2 2.032-2.443.386-3.52-1.05-4.362-5.037l-.125-.592 5.867-1.189.14.556zm11.401 4.026c.02-.07.169-.617.21-.772.161-.6.271-1.059.381-1.613.16-.81.308-1.782.46-3.05a6.55 6.55 0 0 0 .008-.167c.036-.991-.025-2.164-.256-3.27-.405-1.941-1.214-3.054-2.498-3.118-1.998-.1-2.943 1.2-3.327 3.846-.094.645-.134 1.139-.204 2.281-.04.636.083 1.111.417 1.834l.219.461c.535 1.13.78 1.98.758 3.142l3.743.759.09-.333zm-5.096.543l.041-.53c.094-1.213-.088-1.946-.62-3.068l-.223-.47c-.41-.888-.58-1.544-.526-2.412.072-1.175.114-1.69.214-2.379.461-3.182 1.793-5.01 4.575-4.873 1.975.099 3.11 1.659 3.613 4.072.254 1.216.319 2.478.28 3.558a5.461 5.461 0 0 1-.012.234c-.158 1.328-.31 2.33-.478 3.173a24.39 24.39 0 0 1-.399 1.691c-.042.159-.192.707-.21.775-.087.319-.157.584-.227.866l-.14.556-5.888-1.193zm.077 5.881c.046.676.338.972 1.213 1.11 1.494.237 2.19-.557 2.87-3.508l-3.552-.72c-.475 1.94-.573 2.5-.53 3.118zm5.512-3.333l-.125.592c-.84 3.986-1.919 5.423-4.362 5.037-1.41-.223-2.136-.96-2.222-2.214-.059-.86.063-1.473.701-4.047l.139-.557 5.87 1.189z" fill="currentColor" fill-rule="nonzero"/></svg>
