<svg viewbox="0 0 32 32" xmlns="http://www.w3.org/2000/svg"><path d="M15.794 16.633l1.177-.236a15.796 15.796 0 0 1-3.59 13.515l-.904-.79a14.596 14.596 0 0 0 3.317-12.49zm-2.098.43l.013.077c.002.016-.193.063-.584.141l.084.49-.586.1-.115-.572c-.43-2.149.952-4.243 3.09-4.677 2.139-.434 4.221.959 4.652 3.109l.098.494a19.21 19.21 0 0 1-3.046 14.078l-.992-.675a17.958 17.958 0 0 0 2.76-13.66l-.03-.147a2.748 2.748 0 0 0-3.204-2.023 2.769 2.769 0 0 0-2.19 3.016l.05.25zm-.96 2.339l1.2-.013a12.434 12.434 0 0 1-3.902 9.172l-.823-.874a11.234 11.234 0 0 0 3.526-8.285zm9.856 2.82l1.19.152a22.546 22.546 0 0 1-2.069 6.964l-1.08-.523a21.346 21.346 0 0 0 1.96-6.593zm1.358-2.023l-1.199-.035a21.462 21.462 0 0 0-.407-4.86l-.023-.116c-.715-3.255-3.888-5.346-7.144-4.685-3.192.648-5.295 3.704-4.819 6.914l.062.31a9.05 9.05 0 0 1-3.11 8.765l-.764-.926a7.85 7.85 0 0 0 2.76-7.253l-.07-.349c-.795-3.969 1.757-7.836 5.702-8.637 3.946-.801 7.789 1.77 8.584 5.74l.074.37a22.97 22.97 0 0 1 .354 4.762zm1.667-5.56a9.457 9.457 0 0 0-5.86-6.978l.435-1.119a10.655 10.655 0 0 1 6.51 7.44l.094.42c.79 3.943.656 7.94-.351 11.746l-1.16-.307a24.694 24.694 0 0 0 .39-10.913l-.058-.29zm-18.42-.234l-1.171-.266c.925-4.07 4.12-7.268 8.252-8.107a10.51 10.51 0 0 1 3.75-.072l-.189 1.185a9.31 9.31 0 0 0-3.322.063c-3.665.744-6.5 3.582-7.32 7.197zM5.962 18.63a10.792 10.792 0 0 1-.206-2.254l1.2.014a9.656 9.656 0 0 0 .127 1.697l.061.306a5.675 5.675 0 0 1-1.879 5.436l-.779-.913a4.474 4.474 0 0 0 1.52-4.072l-.044-.214zm24.11-4.892c.204 1.016.295 2.04.276 3.061l-1.2-.023c.015-.789-.042-1.581-.173-2.37l-.086-.431c-1.394-6.96-8.124-11.463-15.033-10.06a12.66 12.66 0 0 0-4.938 2.171l-.705-.97a13.86 13.86 0 0 1 5.404-2.378c7.365-1.495 14.542 3.14 16.318 10.415l.137.585zM2.832 19.89c-.001-.003-.009-.006-.023-.009l-.118-.589A14.099 14.099 0 0 1 6.534 6.55l.85.847a12.897 12.897 0 0 0-3.595 11.232l.086.427c.037.185.078.368.122.549l-.594.146-.262.064-.31.076z" fill="currentColor" fill-rule="nonzero"/></svg>
