<svg viewBox="0 0 33 60" xmlns="http://www.w3.org/2000/svg"><path d="M3.737 1a2 2 0 0 0-2 2v54a2 2 0 0 0 2 2h26a2 2 0 0 0 2-2V3a2 2 0 0 0-2-2h-26zm-2 8h30v42h-30V9z" stroke="currentColor" stroke-width="2" fill-opacity="0"/><path d="M9.867 26.82c-.31 0-.572.108-.788.324a1.06 1.06 0 0 0-.324.778v4.643c0 .31.108.573.324.789.216.216.479.324.788.324.31 0 .57-.108.783-.324.213-.216.319-.479.319-.789v-4.643a1.06 1.06 0 0 0-.324-.778 1.06 1.06 0 0 0-.778-.324zM18.809 22.652l.767-1.414c.05-.094.032-.166-.054-.216-.094-.044-.166-.022-.216.064l-.778 1.426a5.309 5.309 0 0 0-2.17-.454c-.764 0-1.487.152-2.171.454l-.777-1.426c-.051-.086-.123-.108-.216-.064-.087.05-.105.122-.054.216l.767 1.414a4.735 4.735 0 0 0-1.858 1.658 4.187 4.187 0 0 0-.691 2.327h9.988c0-.842-.23-1.618-.69-2.327a4.755 4.755 0 0 0-1.847-1.658zm-4.433 2.057a.405.405 0 0 1-.297.125.386.386 0 0 1-.292-.125.414.414 0 0 1-.118-.297c0-.115.04-.213.118-.296a.388.388 0 0 1 .292-.124c.115 0 .214.04.297.124a.406.406 0 0 1 .124.296.407.407 0 0 1-.124.297zm4.551 0a.387.387 0 0 1-.291.125.404.404 0 0 1-.297-.125.404.404 0 0 1-.124-.297c0-.115.041-.213.124-.296a.405.405 0 0 1 .297-.124c.115 0 .212.04.291.124.08.083.12.181.12.296 0 .116-.04.215-.12.297zM11.4 34.217c0 .332.116.613.346.843.23.23.511.345.842.345h.8l.01 2.452c0 .31.109.572.324.788.216.216.476.324.778.324.31 0 .572-.108.788-.324.216-.216.324-.479.324-.788v-2.452h1.49v2.452c0 .31.108.572.324.788.216.216.479.324.788.324.31 0 .573-.108.789-.324.216-.216.324-.479.324-.788v-2.452h.81c.323 0 .6-.115.831-.345.23-.23.345-.51.345-.842v-7.193h-9.912v7.192zM22.848 26.82a1.07 1.07 0 0 0-.778.319 1.056 1.056 0 0 0-.324.783v4.643c0 .31.108.573.324.789.216.216.475.324.778.324.309 0 .572-.108.788-.324.216-.216.324-.479.324-.789v-4.643c0-.31-.108-.57-.324-.783a1.083 1.083 0 0 0-.788-.319z" fill="currentColor" stroke-opacity="0"/></svg>
