<svg viewBox="0 0 32 60" xmlns="http://www.w3.org/2000/svg"><path d="M3 1a2 2 0 0 0-2 2v54a2 2 0 0 0 2 2h26a2 2 0 0 0 2-2V3a2 2 0 0 0-2-2H3zM1 9h30v42H1V9z" stroke="currentColor" stroke-width="2" fill-opacity="0"/><path d="M22.195 34.469a8.699 8.699 0 0 1-.86 1.546c-.453.645-.823 1.092-1.109 1.34-.442.407-.916.615-1.424.627-.364 0-.804-.104-1.315-.314-.514-.21-.985-.313-1.417-.313-.452 0-.937.103-1.456.313-.52.21-.938.32-1.258.33-.487.021-.972-.193-1.457-.643-.309-.27-.696-.732-1.159-1.387-.497-.7-.905-1.51-1.225-2.434C9.172 32.535 9 31.568 9 30.632c0-1.072.232-1.997.696-2.772a4.082 4.082 0 0 1 1.457-1.474 3.92 3.92 0 0 1 1.97-.556c.387 0 .894.12 1.524.355.628.236 1.032.355 1.209.355.132 0 .58-.14 1.34-.418.718-.259 1.325-.366 1.821-.324 1.347.109 2.358.64 3.03 1.595-1.203.73-1.799 1.752-1.787 3.062.01 1.021.381 1.87 1.109 2.545.33.313.698.555 1.108.727-.089.258-.183.505-.282.742zM19.107 22.32c0 .8-.292 1.547-.875 2.239-.703.822-1.553 1.297-2.476 1.222a2.491 2.491 0 0 1-.018-.303c0-.768.334-1.59.928-2.263.296-.34.674-.623 1.13-.849.457-.222.889-.345 1.295-.366.011.107.016.214.016.32z" fill="currentColor" stroke-opacity="0"/></svg>
