<svg xmlns="http://www.w3.org/2000/svg" viewBox="0 0 8 8"><path d="M2.2 4.7c-.1 0-.1 0 0 0-.4-.1-.7 0-.8.3L1 6.3v.1c0 .4.3.6.6.6h5c.3-.1.4-.4.4-.7L6.6 5v-.1c-.1-.2-.5-.3-.8-.2L4 5.4l-1.8-.7zM4 4.3l1.5-.6c.8-.3 1.7.1 2.1.9 0 0 0 .1.1.1L7.9 6c.2.8-.2 1.7-1.1 1.9-.1.1-.2.1-.4.1H1.6C.7 8 0 7.3 0 6.5c0-.2 0-.3.1-.5l.4-1.3c.2-.8 1.1-1.3 2-1.1.1 0 .1 0 .2.1l1.3.6zm0 0c.9 0 1.7-.7 1.7-1.6S4.9 1 4 1s-1.7.7-1.7 1.6.8 1.7 1.7 1.7zm0 1c-1.5 0-2.7-1.2-2.7-2.6S2.5 0 4 0s2.7 1.2 2.7 2.6S5.5 5.3 4 5.3z" fill="#b2b7b9"/></svg>