<?xml version="1.0" encoding="UTF-8"?>
<svg width="16px" height="16px" viewBox="0 0 16 16" version="1.1" xmlns="http://www.w3.org/2000/svg" xmlns:xlink="http://www.w3.org/1999/xlink">
    <g id="Symbols" stroke="none" stroke-width="1" fill="none" fill-rule="evenodd">
        <g id="Zoom" transform="translate(-10.000000, -11.000000)" fill="currentColor">
            <g id="Icons">
                <path d="M21.9782825,22.3875518 C23.04398,21.1846116 23.7022138,19.5742385 23.7022138,17.8504376 C23.7022138,14.0625521 20.6170453,11 16.8512581,11 C13.0627837,11 10,14.0849352 10,17.8504376 C10,21.638323 13.0851685,24.7008752 16.8512581,24.7008752 C18.5975742,24.7008752 20.1856843,24.0429936 21.3887155,22.9770742 L25.410433,27 L26,26.4101751 L21.9782825,22.3875518 Z M16.8512581,23.8397309 C13.5389143,23.8397309 10.8391271,21.1398454 10.8391271,17.8280545 C10.8391271,14.5162636 13.5389143,11.8163781 16.8512581,11.8163781 C20.1632995,11.8163781 22.8633892,14.5162636 22.8633892,17.8280545 C22.8633892,21.1622285 20.1632995,23.8397309 16.8512581,23.8397309 Z M17.2587218,17.3743431 L17.2587218,14.2207462 L16.3512303,14.2207462 L16.3512303,17.3743431 L13.197395,17.3743431 L13.197395,18.2817659 L16.3512303,18.2817659 L16.3512303,21.4577459 L17.2587218,21.4577459 L17.2587218,18.2817659 L20.4125572,18.2817659 L20.4125572,17.3743431 L17.2587218,17.3743431 Z" id="Fill-2"></path>
            </g>
        </g>
    </g>
</svg>
