<?xml version="1.0" encoding="UTF-8"?>
<svg width="16px" height="16px" viewBox="0 0 16 16" version="1.1" xmlns="http://www.w3.org/2000/svg" xmlns:xlink="http://www.w3.org/1999/xlink">
    <g id="Symbols" stroke="none" stroke-width="1" fill="none" fill-rule="evenodd">
        <g id="Zoom" transform="translate(-10.000000, -47.000000)" fill="currentColor">
            <g id="Icons">
                <path d="M21.9782825,58.3875518 C23.04398,57.1846116 23.7022138,55.5742385 23.7022138,53.8504376 C23.7022138,50.0625521 20.6170453,47 16.8512581,47 C13.0627837,47 10,50.0849352 10,53.8504376 C10,57.638323 13.0851685,60.7008752 16.8512581,60.7008752 C18.5975742,60.7008752 20.1856843,60.0429936 21.3887155,58.9770742 L25.410433,63 L26,62.4101751 L21.9782825,58.3875518 Z M16.8512581,59.8397309 C13.5389143,59.8397309 10.8391271,57.1398454 10.8391271,53.8280545 C10.8391271,50.5162636 13.5389143,47.8163781 16.8512581,47.8163781 C20.1632995,47.8163781 22.8633892,50.5162636 22.8633892,53.8280545 C22.8633892,57.1622285 20.1632995,59.8397309 16.8512581,59.8397309 Z M13.197395,53.3743431 L13.197395,54.2817659 L20.4125572,54.2817659 L20.4125572,53.3743431 L13.197395,53.3743431 Z" id="Fill-2"></path>
            </g>
        </g>
    </g>
</svg>
