<?xml version="1.0" encoding="UTF-8"?>
<svg width="20px" height="20px" viewBox="0 0 20 20" version="1.1" xmlns="http://www.w3.org/2000/svg" xmlns:xlink="http://www.w3.org/1999/xlink">
    <path d="M7.64168105,9 L12.3579688,9 L11.0663166,6.74883473 C11.0228639,6.67310282 11,6.58731244 11,6.5 L11,3 L9,3 L9,6.5 C9,6.58731244 8.97713612,6.67310282 8.93368338,6.74883473 L7.64168105,9 Z M7.06775502,10 L5.4472136,12.8236068 C5.14307613,13.4318817 5,13.9428679 5,14.5 C5,15.9238576 6.07614237,17 7.5,17 L12.5,17 C13.9238576,17 15,15.9238576 15,14.5 C15,13.9428679 14.8569239,13.4318817 14.5663166,12.8488347 L12.9317393,10 L7.06775502,10 Z M8,3 L7.50109863,3 C7.22495626,3 7.00109863,2.77614237 7.00109863,2.5 C7.00109863,2.22385763 7.22495626,2 7.50109863,2 L12.5,2 C12.7761424,2 13,2.22385763 13,2.5 C13,2.77614237 12.7761424,3 12.5,3 L12,3 L12,6.36677674 L15.4472136,12.3763932 C15.8158034,13.1135728 16,13.7714178 16,14.5 C16,16.4761424 14.4761424,18 12.5,18 L7.5,18 C5.52385763,18 4,16.4761424 4,14.5 C4,13.7714178 4.18419659,13.1135728 4.56631662,12.3511653 L8,6.36674566 L8,3 Z M9.5,13 C9.22385763,13 9,12.7761424 9,12.5 C9,12.2238576 9.22385763,12 9.5,12 C9.77614237,12 10,12.2238576 10,12.5 C10,12.7761424 9.77614237,13 9.5,13 Z M11.5,14 C11.2238576,14 11,13.7761424 11,13.5 C11,13.2238576 11.2238576,13 11.5,13 C11.7761424,13 12,13.2238576 12,13.5 C12,13.7761424 11.7761424,14 11.5,14 Z M8.5,15 C8.22385763,15 8,14.7761424 8,14.5 C8,14.2238576 8.22385763,14 8.5,14 C8.77614237,14 9,14.2238576 9,14.5 C9,14.7761424 8.77614237,15 8.5,15 Z" fill="currentColor"></path>
</svg>