<?xml version="1.0" encoding="UTF-8"?>
<svg width="20px" height="20px" viewBox="0 0 20 20" version="1.1" xmlns="http://www.w3.org/2000/svg" xmlns:xlink="http://www.w3.org/1999/xlink">
    <path d="M16,4 C17.1045695,4 18,4.8954305 18,6 L18,13 C18,14.1045695 17.1045695,15 16,15 L4,15 C2.8954305,15 2,14.1045695 2,13 L2,6 C2,4.8954305 2.8954305,4 4,4 L16,4 Z M16,5 L4,5 C3.44771525,5 3,5.44771525 3,6 L3,13 C3,13.5522847 3.44771525,14 4,14 L16,14 C16.5522847,14 17,13.5522847 17,13 L17,6 C17,5.44771525 16.5522847,5 16,5 Z M13.5,7 C13.7454599,7 13.949608,7.17687479 13.991944,7.410124 L14,7.5 L14,11 L15.5,11 C15.7454599,11 15.949608,11.1768748 15.991944,11.410124 L16,11.5 C16,11.7454599 15.8231252,11.949608 15.589876,11.991944 L15.5,12 L13.5,12 C13.2545401,12 13.050392,11.8231252 13.008056,11.589876 L13,11.5 L13,7.5 C13,7.22385763 13.2238576,7 13.5,7 Z M7.5,7 C7.74545989,7 7.94960804,7.17687479 7.991944,7.410124 L8,7.5 L8,10.5 C8,11.3761424 7.37614237,12 6.5,12 C5.67539541,12 5.07426757,11.4473789 5.0064,10.651919 L5,10.5 L5,7.5 C5,7.22385763 5.22385763,7 5.5,7 C5.74545989,7 5.94960804,7.17687479 5.991944,7.410124 L6,7.5 L6,10.5 C6,10.8238576 6.17614237,11 6.5,11 C6.78787344,11 6.9590334,10.8608262 6.993515,10.602443 L7,10.5 L7,7.5 C7,7.22385763 7.22385763,7 7.5,7 Z M10.5,7 C11.3761424,7 12.0000294,7.62385763 12.0000294,8.5 C12.0000294,9.21532898 11.584139,9.76248589 10.954644,9.939245 L11.9,11.2 C12.0656854,11.4209139 12.0209139,11.7343146 11.8,11.9 C11.6036321,12.0472759 11.3341883,12.0282648 11.16037,11.867067 L11.1,11.8 L10,10.333 L10,11.5 C10,11.7454599 9.82312521,11.949608 9.589876,11.991944 L9.5,12.0000294 C9.25454011,12.0000294 9.05039196,11.8231252 9.008056,11.589876 L9,11.5 L9,7.5 C9,7.25454011 9.17687479,7.05039196 9.410124,7.008056 L9.5,7 L10.5,7 Z M10.5,8 L10,8 L10,9 L10.5,9 C10.8238576,9 11,8.82385763 11,8.5 C11,8.21212656 10.8608262,8.0409666 10.602443,8.006485 L10.5,8 Z" fill="currentColor"></path>
</svg>