<?xml version="1.0" encoding="UTF-8"?>
<svg width="20px" height="20px" viewBox="0 0 20 20" version="1.1" xmlns="http://www.w3.org/2000/svg" xmlns:xlink="http://www.w3.org/1999/xlink">
    <path d="M13,2 C14.1045695,2 15,2.8954305 15,4 L15,16 C15,17.1045695 14.1045695,18 13,18 L7,18 C5.8954305,18 5,17.1045695 5,16 L5,4 C5,2.8954305 5.8954305,2 7,2 L13,2 Z M13,3 L7,3 C6.44771525,3 6,3.44771525 6,4 L6,16 C6,16.5522847 6.44771525,17 7,17 L13,17 C13.5522847,17 14,16.5522847 14,16 L14,4 C14,3.44771525 13.5522847,3 13,3 Z M13.0000368,6.5 C13.0000368,6.77614237 12.7761608,7 12.5000184,7 L7.50001841,7 C7.22387604,7 7,6.77614237 7,6.5 L7,4.5 C7,4.22385763 7.22387604,4 7.50001841,4 L12.5000184,4 C12.7761608,4 13.0000368,4.22385763 13.0000368,4.5 L13.0000368,6.5 Z" fill="currentColor"></path>
</svg>