<?xml version="1.0" encoding="UTF-8"?>
<svg width="20px" height="20px" viewBox="0 0 20 20" version="1.1" xmlns="http://www.w3.org/2000/svg" xmlns:xlink="http://www.w3.org/1999/xlink">
    <path d="M13,2 C14.1045695,2 15,2.8954305 15,4 L15,16 C15,17.1045695 14.1045695,18 13,18 L7,18 C5.8954305,18 5,17.1045695 5,16 L5,4 C5,2.8954305 5.8954305,2 7,2 L13,2 Z M13,3 L7,3 C6.44771525,3 6,3.44771525 6,4 L6,16 C6,16.5522847 6.44771525,17 7,17 L13,17 C13.5522847,17 14,16.5522847 14,16 L14,4 C14,3.44771525 13.5522847,3 13,3 Z M11.3402062,9.97795507 C11.3402062,10.5258145 11.5463918,11.028019 11.6701031,11.5302235 C11.7938144,11.986773 11.9587629,12.3976676 11.9587629,12.8085622 C11.9587629,13.995591 11.0927835,15 9.97938144,15 C8.90721649,15 8,14.041246 8,12.8085622 C8,12.3976676 8.16494845,11.986773 8.32989691,11.5302235 C8.49484536,11.028019 8.70103093,10.5258145 8.70103093,9.97795507 C8.70103093,9.38444067 8.49484536,8.88223618 8.32989691,8.38003169 C8.20618557,7.92348215 8.04123711,7.51258757 8.04123711,7.14734793 C8.04123711,5.91466418 8.94845361,4.95591015 10.0206186,5.0015651 C11.0927835,5.0015651 12,5.96031913 12,7.19300289 C12,7.55824252 11.8762887,7.9691371 11.7113402,8.42568664 C11.5051546,8.92789114 11.3402062,9.43009563 11.3402062,9.97795507 Z M11,13 C11,12.4347826 10.5217391,12 10,12 C9.47826087,12 9,12.4782609 9,13 C9,13.5652174 9.47826087,14 10,14 C10.5217391,14 11,13.5652174 11,13 Z M9.9787234,8 C10.4893617,8 11,7.56521739 11,7 C11,6.43478261 10.5319149,6 10.0212766,6 C9.5106383,6 9,6.43478261 9,7 C9,7.56521739 9.46808511,8 9.9787234,8 Z" fill="currentColor"></path>
</svg>