<?xml version="1.0" encoding="UTF-8"?>
<svg width="20px" height="20px" viewBox="0 0 20 20" version="1.1" xmlns="http://www.w3.org/2000/svg" xmlns:xlink="http://www.w3.org/1999/xlink">
    <path d="M13,2 C14.1045695,2 15,2.8954305 15,4 L15,5.5 C15,5.77614237 14.7761424,6 14.5,6 C14.2238576,6 14,5.77614237 14,5.5 L14,4 C14,3.44771525 13.5522847,3 13,3 L7,3 C6.44771525,3 6,3.44771525 6,4 L6,16 C6,16.5522847 6.44771525,17 7,17 L13,17 C13.5522847,17 14,16.5522847 14,16 L14,15.5 C14,15.2238576 14.2238576,15 14.5,15 C14.7761424,15 15,15.2238576 15,15.5 L15,16 C15,17.1045695 14.1045695,18 13,18 L7,18 C5.8954305,18 5,17.1045695 5,16 L5,4 C5,2.8954305 5.8954305,2 7,2 L13,2 Z M10,10 L15.2928932,10 L14.1464466,8.85355339 C13.9511845,8.65829124 13.9511845,8.34170876 14.1464466,8.14644661 C14.3417088,7.95118446 14.6582912,7.95118446 14.8535534,8.14644661 L16.8535534,10.1464466 C17.0488155,10.3417088 17.0488155,10.6582912 16.8535534,10.8535534 L14.8535534,12.8535534 C14.6582912,13.0488155 14.3417088,13.0488155 14.1464466,12.8535534 C13.9511845,12.6582912 13.9511845,12.3417088 14.1464466,12.1464466 L15.2928932,11 L10,11 C9.35162354,11 9.35162354,10 10,10 Z" fill="currentColor"></path>
</svg>