<?xml version="1.0" encoding="UTF-8"?>
<svg width="20px" height="20px" viewBox="0 0 20 20" version="1.1" xmlns="http://www.w3.org/2000/svg" xmlns:xlink="http://www.w3.org/1999/xlink">
    <path d="M7,2 L13,2 C14.1045695,2 15,2.8954305 15,4 L15,16 C15,17.1045695 14.1045695,18 13,18 L7,18 C5.8954305,18 5,17.1045695 5,16 L5,4 C5,2.8954305 5.8954305,2 7,2 Z M7,3 C6.44771525,3 6,3.44771525 6,4 L6,16 C6,16.5522847 6.44771525,17 7,17 L13,17 C13.5522847,17 14,16.5522847 14,16 L14,4 C14,3.44771525 13.5522847,3 13,3 L7,3 Z M11.5,9 L8.5,9 C8.2,9 8,8.8 8,8.5 L8,5.5 C8,5.2 8.2,5 8.5,5 L11.5,5 C11.8,5 12,5.2 12,5.5 L12,8.5 C12,8.8 11.8,9 11.5,9 Z M8.85355339,11.1464466 L10,12.293 L11.1464466,11.1464466 C11.3417088,10.9511845 11.6582912,10.9511845 11.8535534,11.1464466 C12.0488155,11.3417088 12.0488155,11.6582912 11.8535534,11.8535534 L10.707,13 L11.8535534,14.1464466 C12.0271197,14.320013 12.0464049,14.5894374 11.9114088,14.7843055 L11.8535534,14.8535534 C11.6582912,15.0488155 11.3417088,15.0488155 11.1464466,14.8535534 L10,13.707 L8.85355339,14.8535534 C8.65829124,15.0488155 8.34170876,15.0488155 8.14644661,14.8535534 C7.95118446,14.6582912 7.95118446,14.3417088 8.14644661,14.1464466 L9.293,13 L8.14644661,11.8535534 C7.97288026,11.679987 7.95359511,11.4105626 8.08859116,11.2156945 L8.14644661,11.1464466 C8.34170876,10.9511845 8.65829124,10.9511845 8.85355339,11.1464466 Z M11,6 L9,6 L9,8 L11,8 L11,6 Z" fill="currentColor"></path>
</svg>