<?xml version="1.0" encoding="UTF-8"?>
<svg width="20px" height="20px" viewBox="0 0 20 20" version="1.1" xmlns="http://www.w3.org/2000/svg" xmlns:xlink="http://www.w3.org/1999/xlink">
    <path d="M13,2 C14.1045695,2 15,2.8954305 15,4 L15,16 C15,17.1045695 14.1045695,18 13,18 L7,18 C5.8954305,18 5,17.1045695 5,16 L5,4 C5,2.8954305 5.8954305,2 7,2 L13,2 Z M13,3 L7,3 C6.44771525,3 6,3.44771525 6,4 L6,16 C6,16.5522847 6.44771525,17 7,17 L13,17 C13.5522847,17 14,16.5522847 14,16 L14,4 C14,3.44771525 13.5522847,3 13,3 Z M12,6 L12,7 L10,7 C8.8954305,7 8,7.8954305 8,9 C8,10.1045695 8.8954305,11 10,11 L11.2928932,11 L10.1464466,9.85355339 C9.95118446,9.65829124 9.95118446,9.34170876 10.1464466,9.14644661 C10.3417088,8.95118446 10.6582912,8.95118446 10.8535534,9.14644661 L12.8535534,11.1464466 C13.0488155,11.3417088 13.0488155,11.6582912 12.8535534,11.8535534 L10.8535534,13.8535534 C10.6582912,14.0488155 10.3417088,14.0488155 10.1464466,13.8535534 C9.95118446,13.6582912 9.95118446,13.3417088 10.1464466,13.1464466 L11.2928932,12 L10,12 C8.34314575,12 7,10.6568542 7,9 C7,7.34314575 8.34314575,6 10,6 L12,6 Z" fill="currentColor"></path>
</svg>