<?xml version="1.0" encoding="UTF-8"?>
<svg width="20px" height="20px" viewBox="0 0 20 20" version="1.1" xmlns="http://www.w3.org/2000/svg" xmlns:xlink="http://www.w3.org/1999/xlink">
    <path d="M13,2 C14.1045695,2 15,2.8954305 15,4 L15,16 C15,17.1045695 14.1045695,18 13,18 L7,18 C5.8954305,18 5,17.1045695 5,16 L5,4 C5,2.8954305 5.8954305,2 7,2 L13,2 Z M13,3 L7,3 C6.44771525,3 6,3.44771525 6,4 L6,16 C6,16.5522847 6.44771525,17 7,17 L13,17 C13.5522847,17 14,16.5522847 14,16 L14,4 C14,3.44771525 13.5522847,3 13,3 Z M9.5527864,7.276393 C9.72287453,6.93621675 10.1840649,6.91004956 10.3989379,7.197891 L10.4472136,7.276393 L11.134,8.651 L12.5868927,8.907608 C12.9259697,8.96744513 13.0882489,9.33108721 12.9526386,9.614388 L12.9081773,9.689372 L12.8535534,9.753553 L11.735,10.871 L11.993197,12.417801 C12.0539583,12.7823692 11.7204024,13.0635981 11.3923267,12.989283 L11.3168962,12.965698 L11.2427521,12.928746 L10,12.183 L8.75724788,12.928746 C8.45157017,13.1121526 8.07888673,12.9255571 8.01076211,12.607391 L8.00029095,12.525246 L8.00305813,12.444784 L8.178,10.872 L7.13259828,9.73914 C6.90563798,9.49326635 6.98477768,9.11733349 7.25042863,8.965847 L7.32741328,8.930364 L7.41310733,8.907608 L8.865,8.651 L9.5527864,7.276393 Z M10,8.618 L9.6472136,9.323607 C9.59058183,9.43687054 9.49371996,9.52332864 9.37742891,9.567466 L9.28689267,9.592392 L8.488,9.733 L9.06740172,10.36086 C9.12637081,10.4247432 9.16697193,10.50209 9.18656149,10.584853 L9.19904927,10.669123 L9.19694187,10.755216 L9.107,11.552 L9.74275212,11.171254 C9.84831292,11.1079175 9.9714169,11.0868048 10.0886732,11.107917 L10.1751534,11.131668 L10.2572479,11.171254 L10.828,11.514 L10.706803,10.782199 C10.6908752,10.6866319 10.7032275,10.5899794 10.7403207,10.503285 L10.7855299,10.420319 L10.8464466,10.346447 L11.467,9.725 L10.7131073,9.592392 C10.6195781,9.57588685 10.5340527,9.53339371 10.4653065,9.471459 L10.4024784,9.403286 L10.3527864,9.323607 L10,8.618 Z" fill="currentColor"></path>
</svg>