<?xml version="1.0" encoding="UTF-8"?>
<svg width="20px" height="20px" viewBox="0 0 20 20" version="1.1" xmlns="http://www.w3.org/2000/svg" xmlns:xlink="http://www.w3.org/1999/xlink">
    <path d="M7,2 L13,2 C14.1045695,2 15,2.8954305 15,4 L15,16 C15,17.1045695 14.1045695,18 13,18 L7,18 C5.8954305,18 5,17.1045695 5,16 L5,4 C5,2.8954305 5.8954305,2 7,2 Z M14,13 L14,10 L6,10 L6,13 L14,13 Z M14,14 L6,14 L6,16 C6,16.5522847 6.44771525,17 7,17 L13,17 C13.5522847,17 14,16.5522847 14,16 L14,14 Z M14,6 L14,4 C14,3.44771525 13.5522847,3 13,3 L7,3 C6.44771525,3 6,3.44771525 6,4 L6,6 L14,6 Z" fill="currentColor"></path>
</svg>