<svg viewBox="0 0 20 20" xmlns="http://www.w3.org/2000/svg"><g fill="none" fill-rule="evenodd"><path d="M10 2c.318 0 .603.082.837.23-.187.28-.346.58-.473.895a.385.385 0 00-.17-.1l-.092-.019L10 3l-.077.004c-.243.024-.388.16-.418.4L9.5 3.5V4h.6c-.05.242-.08.49-.094.745L10 4.999l-.178.005C7.77 5.1 6.153 6.736 6.051 8.793L6.046 9v3.3a4.12 4.12 0 01-.833 2.44l-.149.188L5 15h10l-.056-.062a4.04 4.04 0 01-.943-2.179l-.02-.247-.005-.212V9.895c.248.052.502.085.762.098L15 10v2.3c0 1.18.664 2.223 1.724 2.753.444.222.321.865-.134.94l-.09.007H12l-.005.146C11.915 17.158 11.027 18 10 18c-1.076 0-2-.923-2-1.999L3.5 16c-.527 0-.695-.711-.223-.947.964-.482 1.64-1.506 1.716-2.556l.008-.197V9a4.979 4.979 0 013.5-4.772L8.5 3.5c0-.759.47-1.337 1.2-1.472l.15-.021L10 2zM9 16l.007.111c.061.478.507.889.993.889s.931-.41.993-.888l.007-.111L9 16z" fill="currentColor" fill-rule="nonzero"/><circle fill="#FE2A4B" cx="15" cy="5" r="4"/></g></svg>
