<svg viewBox="0 0 20 20" xmlns="http://www.w3.org/2000/svg"><path d="M10 2c.824 0 1.425.553 1.493 1.348l.007.152v.726a4.978 4.978 0 013.494 4.542L15 9v3.3c0 1.18.664 2.223 1.724 2.753.444.222.321.865-.134.94l-.09.007H12l-.005.146C11.915 17.158 11.027 18 10 18c-1.076 0-2-.923-2-1.999L3.5 16c-.527 0-.695-.711-.223-.947.964-.482 1.64-1.506 1.716-2.556l.008-.197V9a4.979 4.979 0 013.5-4.772L8.5 3.5c0-.759.47-1.337 1.2-1.472l.15-.021L10 2zm1 14.001L9 16l.007.111c.061.478.507.889.993.889.523 0 1-.476 1-.999zM10.01 5l-.188.004C7.77 5.1 6.153 6.736 6.051 8.793L6.046 9v3.3a4.12 4.12 0 01-.833 2.44l-.149.188L5 15h10l-.056-.062a4.04 4.04 0 01-.943-2.179l-.02-.247-.005-.212V9c0-2.156-1.656-3.892-3.766-3.995L10.01 5zM10 3l-.077.004c-.243.024-.388.16-.418.4L9.5 3.5V4h1v-.5c0-.252-.107-.414-.306-.474l-.092-.02L10 3z" fill="currentColor" fill-rule="nonzero"/></svg>
