<svg width="20" height="20" viewBox="0 0 20 20" fill="none" xmlns="http://www.w3.org/2000/svg">
<path d="M6.31797 11.7239C6.68535 11.7239 6.98419 11.4254 6.98419 11.0586C6.98419 10.6918 6.68535 10.3935 6.31797 10.3935C5.95058 10.3935 5.65176 10.6918 5.65176 11.0586C5.65176 11.4254 5.95058 11.7239 6.31797 11.7239ZM13.682 11.7239C14.0494 11.7239 14.3482 11.4254 14.3482 11.0586C14.3482 10.6918 14.0494 10.3935 13.682 10.3935C13.3147 10.3935 13.0158 10.6918 13.0158 11.0586C13.0158 11.4254 13.3147 11.7239 13.682 11.7239ZM6.07902 7.71717L4.74747 5.41478C4.67113 5.28244 4.71654 5.11341 4.84888 5.03699C4.98121 4.96078 5.15074 5.00611 5.22729 5.13823L6.5755 7.46977C7.60651 7.00001 8.76443 6.73836 10 6.73836C11.2356 6.73836 12.3935 7.00001 13.4245 7.46977L14.7727 5.13823C14.8493 5.00611 15.0188 4.96078 15.1511 5.03699C15.2835 5.11341 15.3291 5.28244 15.2525 5.41478L13.921 7.71717C16.2074 8.95871 17.7712 11.2697 18 14H2C2.22898 11.2697 3.79279 8.95871 6.07902 7.71717Z" fill="currentColor"/>
</svg>
