<svg xmlns="http://www.w3.org/2000/svg" xmlns:xlink="http://www.w3.org/1999/xlink" width="20px" height="20px" viewBox="0 0 20 20" version="1.1">
  <path fill="currentColor" d="M17,11 C17.5522847,11 18,11.4477153 18,12 L18,17 C18,17.5522847 17.5522847,18 17,18 L12,18 C11.4477153,18 11,17.5522847 11,17 L11,12 C11,11.4477153 11.4477153,11 12,11 L17,11 Z M8,11 C8.55228475,11 9,11.4477153 9,12 L9,17 C9,17.5522847 8.55228475,18 8,18 L3,18 C2.44771525,18 2,17.5522847 2,17 L2,12 C2,11.4477153 2.44771525,11 3,11 L8,11 Z M17,12 L12,12 L12,17 L17,17 L17,12 Z M8,12 L3,12 L3,17 L8,17 L8,12 Z M8,2 C8.55228475,2 9,2.44771525 9,3 L9,8 C9,8.55228475 8.55228475,9 8,9 L3,9 C2.44771525,9 2,8.55228475 2,8 L2,3 C2,2.44771525 2.44771525,2 3,2 L8,2 Z M8,3 L3,3 L3,8 L8,8 L8,3 Z"/>
</svg>