<svg width="20" height="20" viewBox="0 0 20 20" fill="none" xmlns="http://www.w3.org/2000/svg">
<path fill-rule="evenodd" clip-rule="evenodd" d="M12.952 5.87782C14.2902 5.98611 15.2946 6.51366 15.9623 7.46246C14.7671 8.18772 14.175 9.20309 14.1869 10.5046C14.1968 11.519 14.5654 12.3624 15.2887 13.0331C15.6165 13.344 15.9822 13.5845 16.3895 13.7553C16.3011 14.0117 16.2077 14.2571 16.1093 14.4925C15.8775 15.0322 15.5912 15.5469 15.2549 16.0285C14.8048 16.6693 14.4372 17.1134 14.1531 17.3598C13.714 17.7641 13.2431 17.9708 12.7384 17.9827C12.3767 17.9827 11.9396 17.8794 11.4319 17.6707C10.9212 17.4621 10.4533 17.3598 10.0241 17.3598C9.57503 17.3598 9.09318 17.4621 8.57755 17.6707C8.06092 17.8794 7.64564 17.9887 7.32771 17.9986C6.84388 18.0195 6.36203 17.8069 5.88018 17.3598C5.57318 17.0915 5.1887 16.6325 4.7287 15.9818C4.23493 15.2863 3.82958 14.4816 3.51166 13.5636C3.17088 12.5711 3 11.6104 3 10.6804C3 9.61539 3.23049 8.6964 3.69148 7.92643C4.03997 7.32188 4.53856 6.81748 5.13902 6.462C5.73099 6.10778 6.40642 5.91715 7.09623 5.90961C7.48072 5.90961 7.98442 6.02883 8.61033 6.26231C9.23425 6.49677 9.63563 6.615 9.81148 6.615C9.94262 6.615 10.3877 6.47591 11.1428 6.19972C11.8561 5.9424 12.4592 5.83609 12.952 5.87782ZM13.0255 2C13.0364 2.10631 13.0414 2.21261 13.0414 2.31792C13.0414 3.11273 12.7513 3.85488 12.1721 4.54238C11.4736 5.35905 10.6291 5.83096 9.71213 5.75645C9.70006 5.65656 9.69408 5.55603 9.69424 5.45542C9.69424 4.6924 10.0261 3.87574 10.6162 3.20711C10.9103 2.86932 11.2858 2.58816 11.7389 2.36362C12.1929 2.14306 12.6221 2.02086 13.0255 2Z" fill="currentColor"/>
</svg>
