<?xml version="1.0" encoding="UTF-8"?>
<svg width="20px" height="20px" viewBox="0 0 20 20" version="1.1" xmlns="http://www.w3.org/2000/svg" xmlns:xlink="http://www.w3.org/1999/xlink">
    <path d="M13.2928932,9 L11.1464466,6.85355339 C10.9511845,6.65829124 10.9511845,6.34170876 11.1464466,6.14644661 C11.3417088,5.95118446 11.6582912,5.95118446 11.8535534,6.14644661 L14.8535534,9.14644661 C15.0488155,9.34170876 15.0488155,9.65829124 14.8535534,9.85355339 L11.8535534,12.8535534 C11.6582912,13.0488155 11.3417088,13.0488155 11.1464466,12.8535534 C10.9511845,12.6582912 10.9511845,12.3417088 11.1464466,12.1464466 L13.2928932,10 L5.5,10 C5.22385763,10 5,9.77614237 5,9.5 C5,9.22385763 5.22385763,9 5.5,9 C5.68409492,9 8.28172599,9 13.2928932,9 Z" fill="currentColor"></path>
</svg>