<?xml version="1.0" encoding="UTF-8"?>
<svg width="20px" height="20px" viewBox="0 0 20 20" version="1.1" xmlns="http://www.w3.org/2000/svg" xmlns:xlink="http://www.w3.org/1999/xlink">
    <path d="M3,11 L3,16.5 C3,16.7761424 2.77614237,17 2.5,17 C2.22385763,17 2,16.7761424 2,16.5 L2,3.5 C2,3.22385763 2.22385763,3 2.5,3 C2.77614237,3 3,3.22385763 3,3.5 L3,10 L4,10 L4,8.5 C4,8.22385763 4.22385763,8 4.5,8 L6.5,8 C6.77614237,8 7,8.22385763 7,8.5 L7,10 L9,10 L9,6.5 C9,6.22385763 9.22385763,6 9.5,6 L11.5,6 C11.7761424,6 12,6.22385763 12,6.5 L12,10 L14,10 L14,4.5 C14,4.22385763 14.2238576,4 14.5,4 L16.5,4 C16.7761424,4 17,4.22385763 17,4.5 L17,10 L17.5,10 C17.7761424,10 18,10.2238576 18,10.5 C18,10.7761424 17.7761424,11 17.5,11 L3,11 Z M4,10 L7,10 L7,9 L4,9 L4,10 Z M14,10 L17,10 L17,9 L14,9 L14,10 Z M12,10 L12,9 L9,9 L9,10 L12,10 Z" fill="currentColor"></path>
</svg>