<?xml version="1.0" encoding="UTF-8"?>
<svg width="20px" height="20px" viewBox="0 0 20 20" version="1.1" xmlns="http://www.w3.org/2000/svg" xmlns:xlink="http://www.w3.org/1999/xlink">
    <path d="M13,16 L13,3.5 C13,3.22385763 13.2238576,3 13.5,3 L15.5,3 C15.7761424,3 16,3.22385763 16,3.5 L16,16 L16.5,16 C16.7761424,16 17,16.2238576 17,16.5 C17,16.7761424 16.7761424,17 16.5,17 L2.5,17 C2.22385763,17 2,16.7761424 2,16.5 C2,16.2238576 2.22385763,16 2.5,16 L3,16 L3,3.5 C3,3.22385763 3.22385763,3 3.5,3 L5.5,3 C5.77614237,3 6,3.22385763 6,3.5 L6,16 L8,16 L8,3.5 C8,3.22385763 8.22385763,3 8.5,3 L10.5,3 C10.7761424,3 11,3.22385763 11,3.5 L11,16 L13,16 Z M13,16 L16,16 L16,15 L13,15 L13,16 Z M13,12 L16,12 L16,11 L13,11 L13,12 Z M13,7 L16,7 L16,6 L13,6 L13,7 Z M3,8 L6,8 L6,7 L3,7 L3,8 Z M8,10 L11,10 L11,9 L8,9 L8,10 Z M8,16 L11,16 L11,15 L8,15 L8,16 Z M3,16 L6,16 L6,15 L3,15 L3,16 Z" fill="currentColor"></path>
</svg>