<?xml version="1.0" encoding="UTF-8"?>
<svg width="20px" height="20px" viewBox="0 0 20 20" version="1.1" xmlns="http://www.w3.org/2000/svg" xmlns:xlink="http://www.w3.org/1999/xlink">
    <path d="M13,16 L13,3.5 C13,3.22385763 13.2238576,3 13.5,3 L15.5,3 C15.7761424,3 16,3.22385763 16,3.5 L16,16 L16.5,16 C16.7761424,16 17,16.2238576 17,16.5 C17,16.7761424 16.7761424,17 16.5,17 L2.5,17 C2.22385763,17 2,16.7761424 2,16.5 C2,16.2238576 2.22385763,16 2.5,16 L3,16 L3,11.5 C3,11.2238576 3.22385763,11 3.5,11 L5.5,11 C5.77614237,11 6,11.2238576 6,11.5 L6,16 L8,16 L8,7.5 C8,7.22385763 8.22385763,7 8.5,7 L10.5,7 C10.7761424,7 11,7.22385763 11,7.5 L11,16 L13,16 Z M13,16 L16,16 L16,15 L13,15 L13,16 Z M11,16 L11,15 L8,15 L8,16 L11,16 Z M3,16 L6,16 L6,15 L3,15 L3,16 Z" fill="currentColor"></path>
</svg>