<?xml version="1.0" encoding="UTF-8"?>
<svg width="20px" height="20px" viewBox="0 0 20 20" version="1.1" xmlns="http://www.w3.org/2000/svg" xmlns:xlink="http://www.w3.org/1999/xlink">
    <g stroke="none" stroke-width="1" fill="none" fill-rule="evenodd">
        <path d="M17,2 C17.5522847,2 18,2.44771525 18,3 L18,17 C18,17.5522847 17.5522847,18 17,18 L3,18 C2.44771525,18 2,17.5522847 2,17 L2,3 C2,2.44771525 2.44771525,2 3,2 L17,2 Z M17,3 L3,3 L3,17 L17,17 L17,3 Z M7,8 C8.1045695,8 9,8.8954305 9,10 C9,11.1045695 8.1045695,12 7,12 C5.8954305,12 5,11.1045695 5,10 C5,8.8954305 5.8954305,8 7,8 Z M13,8 C14.1045695,8 15,8.8954305 15,10 C15,11.1045695 14.1045695,12 13,12 C11.8954305,12 11,11.1045695 11,10 C11,8.8954305 11.8954305,8 13,8 Z M7,9 C6.44771525,9 6,9.44771525 6,10 C6,10.5522847 6.44771525,11 7,11 C7.55228475,11 8,10.5522847 8,10 C8,9.44771525 7.55228475,9 7,9 Z" fill="currentColor"></path>
    </g>
</svg>
