<?xml version="1.0" encoding="UTF-8"?>
<svg width="20px" height="20px" viewBox="0 0 20 20" version="1.1" xmlns="http://www.w3.org/2000/svg" xmlns:xlink="http://www.w3.org/1999/xlink">
    <path d="M15,3 L17,3 C17.6,3 18,3.4 18,4 L18,16 C18,16.6 17.6,17 17,17 L3,17 C2.4,17 2,16.6 2,16 L2,4 C2,3.4 2.4,3 3,3 L5,3 L5,2.5 C5,2.2 5.2,2 5.5,2 L7.5,2 C7.8,2 8,2.2 8,2.5 L8,3 L12,3 L12,2.5 C12,2.2 12.2,2 12.5,2 L14.5,2 C14.8,2 15,2.2 15,2.5 L15,3 Z M3,4 L3,6 L17,6 L17,4 L3,4 Z M3,7 L3,16 L17,16 L17,7 L3,7 Z M6,4 L7,4 L7,3 L6,3 L6,4 Z M13,4 L14,4 L14,3 L13,3 L13,4 Z M14.5,14 L12.5,14 C12.2,14 12,13.8 12,13.5 L12,11.5 C12,11.2 12.2,11 12.5,11 L14.5,11 C14.8,11 15,11.2 15,11.5 L15,13.5 C15,13.8 14.8,14 14.5,14 Z M13,13 L14,13 L14,12 L13,12 L13,13 Z" fill="currentColor"></path>
</svg>