<svg width="20px" height="20px" viewBox="0 0 20 20" version="1.1" xmlns="http://www.w3.org/2000/svg" xmlns:xlink="http://www.w3.org/1999/xlink"><g stroke="none" stroke-width="1" fill="none" fill-rule="evenodd"><path d="M17,3 C17.552,3 18,3.42 18,3.938 L18,17.062 C18,17.58 17.552,18 17,18 L3,18 C2.448,18 2,17.58 2,17.062 L2,3.938 C2,3.42 2.448,3 3,3 L17,3 Z M17,4 L3,4 L3,17 L17,17 L17,4 Z M15,13 L15,14 L9,14 L9,13 L15,13 Z M7,13 L7,14 L5,14 L5,13 L7,13 Z M15,10 L15,11 L9,11 L9,10 L15,10 Z M7,10 L7,11 L5,11 L5,10 L7,10 Z M15,7 L15,8 L9,8 L9,7 L15,7 Z M7,7 L7,8 L5,8 L5,7 L7,7 Z" fill="currentColor"></path></g></svg>
