<svg viewBox="0 0 20 20" xmlns="http://www.w3.org/2000/svg">
  <g fill="none" fill-rule="evenodd">
    <circle fill="#FFF" cx="10" cy="10" r="7"/>
    <circle fill="currentColor" cx="10" cy="10" r="6"/>
    <path d="M12.76 7.24c.29.29.317.745.08 1.065l-.08.092L11.157 10l1.603 1.603a.818.818 0 01-1.065 1.237l-.092-.08L10 11.157 8.397 12.76a.818.818 0 01-1.237-1.065l.08-.092L8.843 10 7.24 8.397A.818.818 0 018.305 7.16l.092.08L10 8.843l1.603-1.603a.818.818 0 011.157 0z" fill="#FFF" fill-rule="nonzero"/>
  </g>
</svg>
