<?xml version="1.0" encoding="UTF-8"?>
<svg width="20px" height="20px" viewBox="0 0 20 20" version="1.1" xmlns="http://www.w3.org/2000/svg" xmlns:xlink="http://www.w3.org/1999/xlink">
    <path d="M10,9.29134669 L12.79,6.5 C12.9852621,6.30473785 13.3047379,6.30473785 13.5,6.5 C13.6952621,6.69526215 13.6952621,7.01184485 13.5,7.207107 L10.7077807,9.99932634 L13.5,12.792893 C13.6952621,12.9881551 13.6952621,13.3047379 13.5,13.5 C13.3047379,13.6952621 12.9881551,13.6952621 12.792893,13.5 L10,10.707107 L7.207107,13.5 C7.01184485,13.6952621 6.69526215,13.6952621 6.5,13.5 C6.30473785,13.3047379 6.30473785,12.9881551 6.5,12.792893 L9.29221934,9.99932634 L6.5,7.207107 C6.30473785,7.01184485 6.30473785,6.69526215 6.5,6.5 C6.69526215,6.30473785 7.01473785,6.30473785 7.21,6.5 L10,9.29134669 Z" fill="currentColor"></path>
</svg>