<?xml version="1.0" encoding="UTF-8"?>
<svg width="20px" height="20px" viewBox="0 0 20 20" version="1.1" xmlns="http://www.w3.org/2000/svg" xmlns:xlink="http://www.w3.org/1999/xlink">
    <path d="M10,9.29134669 L13.79,5.5 C13.9852621,5.30473785 14.3047379,5.30473785 14.5,5.5 C14.6952621,5.69526215 14.6952621,6.01184485 14.5,6.207107 L10.7077807,9.99932634 L14.5,13.792893 C14.6952621,13.9881551 14.6952621,14.3047379 14.5,14.5 C14.3047379,14.6952621 13.9881551,14.6952621 13.792893,14.5 L10,10.707107 L6.207107,14.5 C6.01184485,14.6952621 5.69526215,14.6952621 5.5,14.5 C5.30473785,14.3047379 5.30473785,13.9881551 5.5,13.792893 L9.29221934,9.99932634 L5.5,6.207107 C5.30473785,6.01184485 5.30473785,5.69526215 5.5,5.5 C5.69526215,5.30473785 6.01473785,5.30473785 6.21,5.5 L10,9.29134669 Z" fill="currentColor"></path>
</svg>