<?xml version="1.0" encoding="UTF-8"?>
<svg width="20px" height="20px" viewBox="0 0 20 20" version="1.1" xmlns="http://www.w3.org/2000/svg" xmlns:xlink="http://www.w3.org/1999/xlink">
    <path d="M10,9.29134669 L14.79,4.5 C14.9852621,4.30473785 15.3047379,4.30473785 15.5,4.5 C15.6952621,4.69526215 15.6952621,5.01184485 15.5,5.207107 L10.7077807,9.99932634 L15.5,14.792893 C15.6952621,14.9881551 15.6952621,15.3047379 15.5,15.5 C15.3047379,15.6952621 14.9881551,15.6952621 14.792893,15.5 L10,10.707107 L5.207107,15.5 C5.01184485,15.6952621 4.69526215,15.6952621 4.5,15.5 C4.30473785,15.3047379 4.30473785,14.9881551 4.5,14.792893 L9.29221934,9.99932634 L4.5,5.207107 C4.30473785,5.01184485 4.30473785,4.69526215 4.5,4.5 C4.69526215,4.30473785 5.01473785,4.30473785 5.21,4.5 L10,9.29134669 Z" fill="currentColor"></path>
</svg>