<?xml version="1.0" encoding="UTF-8"?>
<svg width="20px" height="20px" viewBox="0 0 20 20" version="1.1" xmlns="http://www.w3.org/2000/svg" xmlns:xlink="http://www.w3.org/1999/xlink">
    <path d="M13,13 L13,17.5 C13,17.7761424 12.7761424,18 12.5,18 C12.2238576,18 12,17.7761424 12,17.5 L12,12.5 C12,12.2238576 12.2238576,12 12.5,12 L17.5,12 C17.7761424,12 18,12.2238576 18,12.5 C18,12.7761424 17.7761424,13 17.5,13 L13,13 Z M7,13 L2.5,13 C2.22385763,13 2,12.7761424 2,12.5 C2,12.2238576 2.22385763,12 2.5,12 L7.5,12 C7.77614237,12 8,12.2238576 8,12.5 L8,17.5 C8,17.7761424 7.77614237,18 7.5,18 C7.22385763,18 7,17.7761424 7,17.5 L7,13 Z M13,7 L17.5,7 C17.7761424,7 18,7.22385763 18,7.5 C18,7.77614237 17.7761424,8 17.5,8 L12.5,8 C12.2238576,8 12,7.77614237 12,7.5 L12,2.5 C12,2.22385763 12.2238576,2 12.5,2 C12.7761424,2 13,2.22385763 13,2.5 L13,7 Z M7,7 L7,2.5 C7,2.22385763 7.22385763,2 7.5,2 C7.77614237,2 8,2.22385763 8,2.5 L8,7.5 C8,7.77614237 7.77614237,8 7.5,8 L2.5,8 C2.22385763,8 2,7.77614237 2,7.5 C2,7.22385763 2.22385763,7 2.5,7 L7,7 Z" fill="currentColor"></path>
</svg>