<?xml version="1.0" encoding="UTF-8"?>
<svg width="20px" height="20px" viewBox="0 0 20 20" version="1.1" xmlns="http://www.w3.org/2000/svg" xmlns:xlink="http://www.w3.org/1999/xlink">
    <path d="M13.7582542,10 L17.5,10 C17.7761424,10 18,10.2238576 18,10.5 C18,10.7761424 17.7761424,11 17.5,11 L13.4683752,11 C13.1290783,12.1734886 12.7346436,13.5472446 12.2850713,15.1212678 C12.0269788,16.1536374 11.0193894,16.9 9.9,16.9 C8.7544244,16.9 7.76044938,16.1269083 7.51336322,15.0148244 L6.5660655,11 L3,11 L3,16.5 C3,16.7761424 2.77614237,17 2.5,17 C2.22385763,17 2,16.7761424 2,16.5 L2,3.5 C2,3.22385763 2.22385763,3 2.5,3 C2.77614237,3 3,3.22385763 3,3.5 L3,4 L4,4 C5.10429394,4 6.12287743,4.82995692 6.38663678,5.88517559 L7.3575302,10 L12.7619724,10 L14.0177699,5.7674973 C14.2803401,4.74095203 15.2846754,4 16.4,4 L17.4,4 C17.6761424,4 17.9,4.22385763 17.9,4.5 C17.9,4.77614237 17.6761424,5 17.4,5 L16.4,5 C15.7293894,5 15.2727986,5.22901193 15,5.9 C14.8833868,6.18682711 14.4694716,7.55349378 13.7582542,10 L13.7582542,10 Z M6.33011552,10 L5.41492875,6.12126781 C5.26200629,5.50957796 4.63661515,5 4,5 L3,5 L3,10 L6.33011552,10 L6.33011552,10 Z M7.59348035,11 L8.48809353,14.7915348 C8.63358047,15.446226 9.21700417,15.9 9.9,15.9 C10.5706106,15.9 11.1707484,15.4554535 11.3206541,14.8577765 L12.4652691,11 L7.59348035,11 Z" fill="currentColor"></path>
</svg>