<?xml version="1.0" encoding="UTF-8"?>
<svg width="20px" height="20px" viewBox="0 0 20 20" version="1.1" xmlns="http://www.w3.org/2000/svg" xmlns:xlink="http://www.w3.org/1999/xlink">
    <path d="M3,11 L3,16.5 C3,16.7761424 2.77614237,17 2.5,17 C2.22385763,17 2,16.7761424 2,16.5 L2,4.5 C2,4.22385763 2.22385763,4 2.5,4 C2.77614237,4 3,4.22385763 3,4.5 L3,10 L17.5,10 C17.7761424,10 18,10.2238576 18,10.5 C18,10.7761424 17.7761424,11 17.5,11 L3,11 Z M8.5,8 C8.22385763,8 8,7.77614237 8,7.5 C8,7.22385763 8.22385763,7 8.5,7 L9.5,7 C9.77614237,7 10,7.22385763 10,7.5 C10,7.77614237 9.77614237,8 9.5,8 L8.5,8 Z M4.5,8 C4.22385763,8 4,7.77614237 4,7.5 C4,7.22385763 4.22385763,7 4.5,7 L5.5,7 C5.77614237,7 6,7.22385763 6,7.5 C6,7.77614237 5.77614237,8 5.5,8 L4.5,8 Z M12.5,8 C12.2238576,8 12,7.77614237 12,7.5 C12,7.22385763 12.2238576,7 12.5,7 L13.5,7 C13.7761424,7 14,7.22385763 14,7.5 C14,7.77614237 13.7761424,8 13.5,8 L12.5,8 Z M16.5,8 C16.2238576,8 16,7.77614237 16,7.5 C16,7.22385763 16.2238576,7 16.5,7 L17.5,7 C17.7761424,7 18,7.22385763 18,7.5 C18,7.77614237 17.7761424,8 17.5,8 L16.5,8 Z M8.5,14 C8.22385763,14 8,13.7761424 8,13.5 C8,13.2238576 8.22385763,13 8.5,13 L9.5,13 C9.77614237,13 10,13.2238576 10,13.5 C10,13.7761424 9.77614237,14 9.5,14 L8.5,14 Z M4.5,14 C4.22385763,14 4,13.7761424 4,13.5 C4,13.2238576 4.22385763,13 4.5,13 L5.5,13 C5.77614237,13 6,13.2238576 6,13.5 C6,13.7761424 5.77614237,14 5.5,14 L4.5,14 Z M12.5,14 C12.2238576,14 12,13.7761424 12,13.5 C12,13.2238576 12.2238576,13 12.5,13 L13.5,13 C13.7761424,13 14,13.2238576 14,13.5 C14,13.7761424 13.7761424,14 13.5,14 L12.5,14 Z M16.5,14 C16.2238576,14 16,13.7761424 16,13.5 C16,13.2238576 16.2238576,13 16.5,13 L17.5,13 C17.7761424,13 18,13.2238576 18,13.5 C18,13.7761424 17.7761424,14 17.5,14 L16.5,14 Z" fill="currentColor"></path>
</svg>