<?xml version="1.0" encoding="UTF-8"?>
<svg width="20px" height="20px" viewBox="0 0 20 20" version="1.1" xmlns="http://www.w3.org/2000/svg" xmlns:xlink="http://www.w3.org/1999/xlink">
        <path d="M15,2 C16.1045695,2 17,2.8954305 17,4 L17,16 C17,17.1045695 16.1045695,18 15,18 L5,18 C3.8954305,18 3,17.1045695 3,16 L3,4 C3,2.8954305 3.8954305,2 5,2 L15,2 Z M15,3 L5,3 C4.44771525,3 4,3.44771525 4,4 L4,16 C4,16.5522847 4.44771525,17 5,17 L15,17 C15.5522847,17 16,16.5522847 16,16 L16,4 C16,3.44771525 15.5522847,3 15,3 Z M10.5,15 C10.7761424,15 11,15.2238576 11,15.5 C11,15.7761424 10.7761424,16 10.5,16 L9.5,16 C9.22385763,16 9,15.7761424 9,15.5 C9,15.2238576 9.22385763,15 9.5,15 L10.5,15 Z" fill="currentColor"></path>
</svg>