<?xml version="1.0" encoding="UTF-8"?>
<svg width="20px" height="20px" viewBox="0 0 20 20" version="1.1" xmlns="http://www.w3.org/2000/svg" xmlns:xlink="http://www.w3.org/1999/xlink">
    <path d="M16,4 C17.1045695,4 18,4.8954305 18,6 L18,12 C18,13.1045695 17.1045695,14 16,14 L10.5,14 L10.5,15 L12,15 C12.3,15 12.5,15.2 12.5,15.5 C12.5,15.8 12.3,16 12,16 L8,16 C7.7,16 7.5,15.8 7.5,15.5 C7.5,15.2 7.7,15 8,15 L9.5,15 L9.5,14 L4,14 C2.8954305,14 2,13.1045695 2,12 L2,6 C2,4.8954305 2.8954305,4 4,4 L16,4 Z M16,5 L4,5 C3.44771525,5 3,5.44771525 3,6 L3,12 C3,12.5522847 3.44771525,13 4,13 L16,13 C16.5522847,13 17,12.5522847 17,12 L17,6 C17,5.44771525 16.5522847,5 16,5 Z" fill="currentColor"></path>
</svg>