<?xml version="1.0" encoding="UTF-8"?>
<svg width="20px" height="20px" viewBox="0 0 20 20" version="1.1" xmlns="http://www.w3.org/2000/svg" xmlns:xlink="http://www.w3.org/1999/xlink">
    <path d="M13,2 C14.1045695,2 15,2.8954305 15,4 L15,16 C15,17.1045695 14.1045695,18 13,18 L7,18 C5.8954305,18 5,17.1045695 5,16 L5,4 C5,2.8954305 5.8954305,2 7,2 L13,2 Z M13,3 L7,3 C6.44771525,3 6,3.44771525 6,4 L6,16 C6,16.5522847 6.44771525,17 7,17 L13,17 C13.5522847,17 14,16.5522847 14,16 L14,4 C14,3.44771525 13.5522847,3 13,3 Z M10.8193428,8.97582733 C11.1561052,9.00307834 11.4088646,9.13583326 11.5768708,9.3745921 C11.2761097,9.55709886 11.1271042,9.81260833 11.1301043,10.1401205 C11.1326044,10.3953799 11.2253578,10.6076378 11.4073645,10.776394 C11.4898676,10.8546469 11.581871,10.9151492 11.6843748,10.9581508 C11.662124,11.0226531 11.6386231,11.0844054 11.6138722,11.1436576 C11.5555239,11.2794675 11.4834822,11.4089752 11.3988642,11.5301719 C11.28561,11.6914279 11.1931066,11.8031821 11.121604,11.8651844 C11.0110999,11.9669381 10.8925955,12.0189401 10.7655908,12.0219402 C10.6745874,12.0219402 10.5645833,11.9959392 10.4368286,11.9434373 C10.3083238,11.8909353 10.1905695,11.8651844 10.0825655,11.8651844 C9.96956129,11.8651844 9.84830679,11.8909353 9.71855199,11.9434373 C9.58854717,11.9959392 9.4840433,12.0234402 9.40404034,12.0259403 C9.28228583,12.0311905 9.16103134,11.9776885 9.03977685,11.8651844 C8.96252398,11.7976819 8.8657704,11.6821776 8.75001611,11.5184215 C8.62576151,11.343415 8.52375773,11.1409075 8.44375477,10.909899 C8.35800159,10.6601397 8.315,10.4183808 8.315,10.1843721 C8.315,9.91636217 8.37300215,9.68510361 8.48900645,9.49134643 C8.57670184,9.3392161 8.70216709,9.21228695 8.85326994,9.12283278 C9.00223399,9.03369487 9.17220173,8.98572428 9.34578818,8.98382763 C9.44254176,8.98382763 9.56929646,9.01382874 9.72680229,9.07258092 C9.88380811,9.1315831 9.98481185,9.1613342 10.0290635,9.1613342 C10.0620647,9.1613342 10.1740689,9.12633291 10.3640759,9.05683033 C10.5435825,8.99207794 10.6953382,8.96532694 10.8193428,8.97582733 Z M10.8378434,8 C10.8405935,8.02675099 10.8418436,8.05350198 10.8418436,8.08000296 C10.8418436,8.28001037 10.7688409,8.46676729 10.6230855,8.6397737 C10.447329,8.84528131 10.2348211,8.96403571 10.0040626,8.94528501 C10.001024,8.92014903 9.99952118,8.89485114 9.99956157,8.86953221 C9.99956157,8.6775251 10.0830655,8.47201748 10.231571,8.30376125 C10.3055737,8.2187581 10.4000772,8.14800548 10.5140815,8.09150339 C10.6283357,8.03600133 10.7363397,8.00525019 10.8378434,8 Z" fill="currentColor"></path>
</svg>