<?xml version="1.0" encoding="UTF-8"?>
<svg width="20px" height="20px" viewBox="0 0 20 20" version="1.1" xmlns="http://www.w3.org/2000/svg" xmlns:xlink="http://www.w3.org/1999/xlink">
    <path d="M13,2 C14.1045695,2 15,2.8954305 15,4 L15,16 C15,17.1045695 14.1045695,18 13,18 L7,18 C5.8954305,18 5,17.1045695 5,16 L5,4 C5,2.8954305 5.8954305,2 7,2 L13,2 Z M13,3 L7,3 C6.44771525,3 6,3.44771525 6,4 L6,16 C6,16.5522847 6.44771525,17 7,17 L13,17 C13.5522847,17 14,16.5522847 14,16 L14,4 C14,3.44771525 13.5522847,3 13,3 Z M11.0490461,9.34120978 L11.0490461,10.9424052 C11.0490461,11.0163099 11.0234466,11.0786393 10.9722475,11.1298383 C10.9208258,11.1810374 10.8591643,11.2066369 10.787263,11.2066369 L10.6069532,11.2066369 L10.6069532,11.7524636 C10.6069532,11.8212484 10.5829119,11.8797935 10.5348293,11.9278761 C10.4867467,11.9759587 10.4282017,12 10.3591942,12 C10.2904094,12 10.2318644,11.9759587 10.1837818,11.9278761 C10.1356991,11.8797935 10.1116578,11.8214711 10.1116578,11.7524636 L10.1116578,11.2066369 L9.77997687,11.2066369 L9.77997687,11.7524636 C9.77997687,11.8212484 9.75593557,11.8797935 9.70785296,11.9278761 C9.65977035,11.9759587 9.60144793,12 9.53244048,12 C9.46521387,12 9.40733665,11.9759587 9.35925404,11.9278761 C9.31139404,11.8797935 9.28713013,11.8214711 9.28713013,11.7524636 L9.28490408,11.2066369 L9.10682034,11.2066369 C9.03313819,11.2066369 8.97058628,11.1810374 8.91938721,11.1298383 C8.86818813,11.0786393 8.84236599,11.0160873 8.84236599,10.9421826 L8.84258859,9.34120978 L11.0490461,9.34120978 Z M8.50111302,9.29557582 C8.56632877,9.29464853 8.6290196,9.32075628 8.67429946,9.36769973 C8.72124291,9.4129796 8.74735066,9.47567042 8.74642337,9.54088617 L8.74642337,10.5744397 C8.74642337,10.6434471 8.72282728,10.7019921 8.67541248,10.7500748 C8.62799769,10.7981574 8.57012047,10.8221987 8.50111302,10.8221987 C8.43232818,10.8221987 8.37378315,10.7981574 8.32570054,10.7500748 C8.27761793,10.7019921 8.25357663,10.6434471 8.25357663,10.5744397 L8.25357663,9.54088617 C8.25264934,9.47567042 8.27875709,9.4129796 8.32570054,9.36769973 C8.37378315,9.31961712 8.43210557,9.29557582 8.50111302,9.29557582 Z M11.3907443,9.29557582 C11.4564497,9.29434868 11.5198084,9.31999769 11.5661568,9.36658671 C11.6142394,9.4140015 11.6382807,9.47187872 11.6382807,9.54088617 L11.6382807,10.5744397 C11.6382807,10.6434471 11.6142394,10.7019921 11.5661568,10.7500748 C11.5180742,10.7981574 11.4595291,10.8221987 11.3907443,10.8221987 C11.3232951,10.8221987 11.2656405,10.7981574 11.2175579,10.7500748 C11.1694752,10.7019921 11.1454339,10.6434471 11.1454339,10.5744397 L11.1454339,9.54088617 C11.1440876,9.4752652 11.1702375,9.41206973 11.2175579,9.36658671 C11.2631775,9.32027468 11.325744,9.29462082 11.3907443,9.29557582 Z M10.6503611,8.00491392 C10.6695052,8.01604415 10.673512,8.03207169 10.6623818,8.05299653 L10.491644,8.36775954 C10.6589522,8.45221673 10.8008362,8.57958199 10.9027948,8.73683809 C11.005193,8.8946648 11.0563921,9.06740603 11.0563921,9.25483916 L8.83297627,9.25483916 C8.83201472,9.07077127 8.88553776,8.89052795 8.98683642,8.73683809 C9.08930344,8.57911312 9.23210871,8.45167979 9.40043591,8.36775954 L9.22969812,8.05299653 C9.21834528,8.03207169 9.22235217,8.01604415 9.24171877,8.00491392 C9.26242101,7.99511931 9.27844854,8.00001662 9.28980138,8.01916062 L9.46276521,8.33659488 C9.61502681,8.26936827 9.77596999,8.23553236 9.94603996,8.23553236 C10.1123753,8.23485026 10.2769811,8.26928853 10.4290921,8.33659488 L10.6022785,8.01916062 C10.6134088,8.00001662 10.6294363,7.99511931 10.6503611,8.00491392 Z M9.43872391,8.6660498 C9.41411362,8.66556808 9.39046699,8.6756098 9.37372334,8.69365278 C9.35636018,8.71212897 9.34745599,8.73394423 9.34745599,8.75954376 C9.34701009,8.78420905 9.35647169,8.80802342 9.37372334,8.82565735 C9.39039333,8.84383041 9.41406796,8.8539651 9.43872391,8.85348294 C9.46366184,8.85375142 9.48759691,8.84367774 9.5048375,8.82565735 C9.5227313,8.808348 9.53271389,8.78443808 9.53244048,8.75954376 C9.53267891,8.73472135 9.52269702,8.71089361 9.5048375,8.69365278 C9.48636131,8.67495399 9.46432345,8.6660498 9.43872391,8.6660498 Z M10.4531334,8.6660498 C10.4282288,8.6657233 10.4042987,8.67571432 10.3870198,8.69365278 C10.3685436,8.71212897 10.3594168,8.73394423 10.3594168,8.75954376 C10.3590636,8.78445356 10.3690589,8.8083939 10.3870198,8.82565735 C10.4042449,8.84370026 10.4281902,8.85377826 10.4531334,8.85348294 C10.4777066,8.85387227 10.5012762,8.84374786 10.5179114,8.82565735 C10.5357197,8.80740377 10.5446239,8.7853659 10.5446239,8.75954376 C10.5446239,8.73394423 10.5357197,8.71212897 10.5179114,8.69365278 C10.5003256,8.67495399 10.4787329,8.6660498 10.4531334,8.6660498 Z" fill="currentColor"></path>
</svg>