<?xml version="1.0" encoding="UTF-8"?>
<svg width="20px" height="20px" viewBox="0 0 20 20" version="1.1" xmlns="http://www.w3.org/2000/svg" xmlns:xlink="http://www.w3.org/1999/xlink">
    <path d="M4.91474582,14.3781474 L6.35187511,12.9410181 C5.82000945,12.2612586 5.5,11.4115348 5.5,10.5 C5.5,8.49287935 7.05154108,6.78544452 9,6.53231874 L9,4.52034814 C5.9118165,4.77285948 3.5,7.34455993 3.5,10.5 C3.5,11.9811656 4.03141232,13.3337118 4.91474582,14.3781474 L4.91474582,14.3781474 Z M5.6218526,15.0852542 C6.66628823,15.9685877 8.01883441,16.5 9.5,16.5 C12.6554401,16.5 15.2271405,14.0881835 15.4796519,11 L13.4676813,11 C13.2145555,12.9484589 11.5071206,14.5 9.5,14.5 C8.58846522,14.5 7.73874143,14.1799905 7.05898189,13.6481249 L5.6218526,15.0852542 L5.6218526,15.0852542 Z M9,7.54385288 C7.60338594,7.79051285 6.5,9.04594783 6.5,10.5 C6.5,12.1238576 7.87614237,13.5 9.5,13.5 C10.9540522,13.5 12.2094872,12.3966141 12.4561471,11 L12,11 C11.7238576,11 11.5,10.7761424 11.5,10.5 C11.5,9.37614237 10.6238576,8.5 9.5,8.5 C9.22385763,8.5 9,8.27614237 9,8 L9,7.54385288 Z M9,3.51744202 L9,3 C9,2.72385763 9.22385763,2.5 9.5,2.5 C13.8761424,2.5 17.5,6.12385763 17.5,10.5 C17.5,10.7761424 17.2761424,11 17,11 L16.482558,11 C16.2275588,14.6412894 13.2079955,17.5 9.5,17.5 C5.62385763,17.5 2.5,14.3761424 2.5,10.5 C2.5,6.79200449 5.35871058,3.77244124 9,3.51744202 L9,3.51744202 Z M16.4818246,10 C16.2317293,6.56847988 13.4315201,3.76827071 10,3.51817535 L10,7.54014697 C11.2696709,7.74681291 12.2531871,8.73032906 12.459853,10 L16.4818246,10 Z" fill="currentColor"></path>
</svg>