<?xml version="1.0" encoding="UTF-8"?>
<svg width="20px" height="20px" viewBox="0 0 20 20" version="1.1" xmlns="http://www.w3.org/2000/svg" xmlns:xlink="http://www.w3.org/1999/xlink">
    <path d="M3,17 L16,17 L16,14.5 C16,14.2238576 16.2238576,14 16.5,14 C16.7761424,14 17,14.2238576 17,14.5 L17,17.5 C17,17.7761424 16.7761424,18 16.5,18 L2.5,18 C2.22385763,18 2,17.7761424 2,17.5 L2,14.5 C2,14.2238576 2.22385763,14 2.5,14 C2.77614237,14 3,14.2238576 3,14.5 L3,17 Z M9,12.2928932 L9,2.5 C9,2.22385763 9.22385763,2 9.5,2 C9.77614237,2 10,2.22385763 10,2.5 L10,12.2928932 L12.1464466,10.1464466 C12.3417088,9.95118446 12.6582912,9.95118446 12.8535534,10.1464466 C13.0488155,10.3417088 13.0488155,10.6582912 12.8535534,10.8535534 L9.85355339,13.8535534 C9.65829124,14.0488155 9.34170876,14.0488155 9.14644661,13.8535534 L6.14644661,10.8535534 C5.95118446,10.6582912 5.95118446,10.3417088 6.14644661,10.1464466 C6.34170876,9.95118446 6.65829124,9.95118446 6.85355339,10.1464466 L9,12.2928932 Z" fill="currentColor"></path>
</svg>