<?xml version="1.0" encoding="UTF-8"?>
<svg width="20px" height="20px" viewBox="0 0 20 20" version="1.1" xmlns="http://www.w3.org/2000/svg" xmlns:xlink="http://www.w3.org/1999/xlink">
    <path d="M9.5,12 C9.74545989,12 9.94960837,12.1768752 9.99194433,12.4101244 L10,12.5 L10,17.5 C10,17.7761424 9.77614237,18 9.5,18 C9.25454011,18 9.05039163,17.8231248 9.00805567,17.5898756 L9,17.5 L9,12.5 C9,12.2238576 9.22385763,12 9.5,12 Z M14.5,5 C14.6169683,5 14.7302347,5.04100811 14.8200922,5.11588936 L17.8200922,7.61588936 C18.0599693,7.81578692 18.0599693,8.18421308 17.8200922,8.38411064 L14.8200922,10.8841106 C14.7302347,10.9589919 14.6169683,11 14.5,11 L3,11 C2.42385763,11 2,10.5761424 2,10 L2,6 C2,5.42385763 2.42385763,5 3,5 L14.5,5 Z M14.318975,6 L3,6 L3,10 L14.318975,10 L16.718975,8 L14.318975,6 Z M9.5,2 C9.74545989,2 9.94960837,2.17687516 9.99194433,2.41012437 L10,2.5 L10,3.5 C10,3.77614237 9.77614237,4 9.5,4 C9.25454011,4 9.05039163,3.82312484 9.00805567,3.58987563 L9,3.5 L9,2.5 C9,2.22385763 9.22385763,2 9.5,2 Z" fill="currentColor"></path>
</svg>