<?xml version="1.0" encoding="UTF-8"?>
<svg width="20px" height="20px" viewBox="0 0 20 20" version="1.1" xmlns="http://www.w3.org/2000/svg" xmlns:xlink="http://www.w3.org/1999/xlink">
    <path d="M3.77605053,16.0244747 L3.74594724,16.1953463 L3.71210052,16.2884247 L3.80517899,16.254578 L3.97605053,16.2244747 L5.16894374,16.2244747 L15.0224971,6.37092135 C15.2177593,6.1756592 15.5343418,6.1756592 15.7296039,6.37092135 C15.9248661,6.56618349 15.9248661,6.88276598 15.7296039,7.07802813 L5.72960392,17.0780281 C5.63583573,17.1717963 5.50865877,17.2244747 5.37605053,17.2244747 L4.06413801,17.2244747 L3.04692206,17.5943714 C2.64790894,17.7394671 2.26105813,17.3526163 2.40615381,16.9536032 L2.77605053,15.9363872 L2.77605053,14.6244747 C2.77605053,14.4918665 2.82872895,14.3646895 2.92249713,14.2709213 L12.9224971,4.27092135 C13.1177593,4.0756592 13.4343418,4.0756592 13.6296039,4.27092135 C13.8248661,4.46618349 13.8248661,4.78276598 13.6296039,4.97802813 L3.77605053,14.8315815 L3.77605053,16.0244747 Z M14.1214466,3.07092135 L14.2214466,2.97092135 C15.0167088,2.1756592 16.2332912,2.1756592 17.0285534,2.97092135 C17.8238155,3.76618349 17.8238155,4.98276598 17.0285534,5.77802813 L16.9285534,5.87802813 C16.7332912,6.07329027 16.4167088,6.07329027 16.2214466,5.87802813 L14.1214466,3.77802813 C13.9261845,3.58276598 13.9261845,3.26618349 14.1214466,3.07092135 Z M16.3214466,3.67802813 C16.0076014,3.36418297 15.5863182,3.29370221 15.2242179,3.46658585 L16.5328889,4.77525685 C16.7057725,4.41315656 16.6352918,3.99187329 16.3214466,3.67802813 Z" fill="currentColor"></path>
</svg>