<svg xmlns="http://www.w3.org/2000/svg" xmlns:xlink="http://www.w3.org/1999/xlink" width="20px" height="20px" viewBox="0 0 20 20" version="1.1">
    <path fill="currentColor" d="M17,5 C17.5522847,5 18,5.44771525 18,6 L18,15 C18,15.5522847 17.5522847,16 17,16 L3,16 C2.44771525,16 2,15.5522847 2,15 L2.00315415,5.94316964 L2.00315415,5.94316964 L2,6 C2,5.44771525 2.44771525,5 3,5 L17,5 Z M17,6.986 L10.2956818,11.9032025 C10.1448286,12.0138282 9.94741243,12.0296319 9.78325549,11.9506135 L9.70431817,11.9032025 L3,6.987 L3,15 L17,15 L17,6.986 Z M16.653,6 L3.346,6 L10,10.8799642 L16.653,6 Z"/>
</svg>