<?xml version="1.0" encoding="UTF-8"?>
<svg width="20px" height="20px" viewBox="0 0 20 20" version="1.1" xmlns="http://www.w3.org/2000/svg" xmlns:xlink="http://www.w3.org/1999/xlink">
    <path d="M6.05025253,5.05025253 C8.78392257,2.31658249 13.2160774,2.31658249 15.9497475,5.05025253 C16.1234798,5.22398489 16.1426141,5.49371917 16.007266,5.68859974 L15.9492693,5.75783748 L11.7013691,9.99426231 L15.9497475,14.2426407 C16.1450096,14.4379028 16.1450096,14.7544853 15.9497475,14.9497475 C13.2160774,17.6834175 8.78392257,17.6834175 6.05025253,14.9497475 C3.31658249,12.2160774 3.31658249,7.78392257 6.05025253,5.05025253 Z M14.8740262,5.41787064 L14.6950528,5.27200904 C12.3406961,3.42725788 8.92567732,3.58904131 6.75735931,5.75735931 C4.41421356,8.10050506 4.41421356,11.8994949 6.75735931,14.2426407 C8.91789952,16.4031809 12.3162126,16.5715557 14.6696766,14.747765 L14.8745655,14.5816723 L10.6402304,10.3473372 C10.4664981,10.1736048 10.4473638,9.90387057 10.5827121,9.70899023 L10.6407089,9.63975258 L14.8740262,5.41787064 L14.6950528,5.27200904 L14.8740262,5.41787064 Z M10,6 C10.5522847,6 11,6.44771525 11,7 C11,7.55228475 10.5522847,8 10,8 C9.44771525,8 9,7.55228475 9,7 C9,6.44771525 9.44771525,6 10,6 Z" fill="currentColor"></path>
</svg>