<?xml version="1.0" encoding="UTF-8"?>
<svg width="20px" height="20px" viewBox="0 0 20 20" version="1.1" xmlns="http://www.w3.org/2000/svg" xmlns:xlink="http://www.w3.org/1999/xlink">
    <g stroke="none" stroke-width="1" fill="none" fill-rule="evenodd">
        <path d="M9.5,2 C10.204808,2 10.7960812,2.48610066 10.9568484,3.14133101 C14.4011098,3.81886341 17,6.85593004 17,10.5 C17,14.6421356 13.6421356,18 9.5,18 C5.35786438,18 2,14.6421356 2,10.5 C2,9.18956059 2.33608445,7.9576179 2.92676082,6.88566447 L2.99590147,6.76888724 L2.99590147,6.76888724 C3.12687218,6.5521338 3.40876361,6.48261468 3.62550706,6.61360193 L3.66122324,6.63754218 C3.88922665,6.80638433 3.9538401,7.11965053 3.81125933,7.36493394 L3.70770276,7.54740343 L3.70770276,7.54740343 C3.25530348,8.43307175 3,9.43672121 3,10.5 C3,14.0898509 5.91014913,17 9.5,17 C13.0898509,17 16,14.0898509 16,10.5 C16,7.37468421 13.7942807,4.76454176 10.8546275,4.14135801 C10.615661,4.64912073 10.0988066,5 9.5,5 C8.67157288,5 8,4.32842712 8,3.5 C8,2.67157288 8.67157288,2 9.5,2 Z M5.09634416,5.79138838 C4.78467973,5.35221835 5.29068522,4.82548205 5.73790185,5.05611918 L5.81174333,5.1017163 L7.20000784,6.11530828 L8.38966037,6.99316536 L9.47995337,7.80801374 L10.2725733,8.41086771 L10.8952255,8.8974701 L11.2449746,9.18249377 L11.4200917,9.33303113 L11.547388,9.45110382 C12.1508707,10.046366 12.1508707,10.9629485 11.547388,11.5582106 C10.9816231,12.1162689 10.1295476,12.1511475 9.52799379,11.6628465 L9.41118238,11.5582106 L9.21887965,11.349165 L8.95638177,11.0331946 L8.62591945,10.6140585 L8.08343612,9.90122688 L6.96304881,8.38420965 L6.09643188,7.18844818 L5.09634416,5.79138838 Z M9.2537447,8.89735815 L7.78052334,7.79365721 L8.72995859,9.08107206 L9.40058917,9.96665687 L9.71658583,10.3696498 L9.96094319,10.6670173 L10.0812796,10.802801 L10.1280542,10.8511038 C10.3356195,11.0558417 10.6229509,11.0558417 10.8305162,10.8511038 C11.0380814,10.646366 11.0380814,10.3629485 10.8305162,10.1582106 L10.781072,10.1113166 L10.6435257,9.9904561 L10.3446641,9.74452172 L9.78492287,9.30444719 L9.2537447,8.89735815 Z M9.5,3 C9.22385763,3 9,3.22385763 9,3.5 C9,3.77614237 9.22385763,4 9.5,4 C9.77614237,4 10,3.77614237 10,3.5 C10,3.22385763 9.77614237,3 9.5,3 Z" fill="currentColor"></path>
    </g>
</svg>
