<?xml version="1.0" encoding="UTF-8"?>
<svg width="20px" height="20px" viewBox="0 0 20 20" version="1.1" xmlns="http://www.w3.org/2000/svg" xmlns:xlink="http://www.w3.org/1999/xlink">
    <g id="exclamation">
        <path d="M10,18 C14.418278,18 18,14.418278 18,10 C18,5.581722 14.418278,2 10,2 C5.581722,2 2,5.581722 2,10 C2,14.418278 5.581722,18 10,18 Z" id="circle" fill="currentColor"></path>
        <path d="M10,12.75 C10.4142136,12.75 10.75,13.0857864 10.75,13.5 C10.75,13.9142136 10.4142136,14.25 10,14.25 C9.58578644,14.25 9.25,13.9142136 9.25,13.5 C9.25,13.0857864 9.58578644,12.75 10,12.75 Z M10,5.75 C10.3996307,5.75 10.75,6.00026377 10.75,6.35714286 L10.75,10.6428571 C10.75,10.9997362 10.3996307,11.25 10,11.25 C9.60036927,11.25 9.25,10.9997362 9.25,10.6428571 L9.25,6.35714286 C9.25,6.00026377 9.60036927,5.75 10,5.75 Z" fill="#FFFFFF" fill-rule="nonzero"></path>
    </g>
</svg>
