<?xml version="1.0" encoding="UTF-8"?>
<svg width="20px" height="20px" viewBox="0 0 20 20" version="1.1" xmlns="http://www.w3.org/2000/svg" xmlns:xlink="http://www.w3.org/1999/xlink">
    <path d="M3,3 L3,7.5 C3,7.77614237 2.77614237,8 2.5,8 C2.22385763,8 2,7.77614237 2,7.5 L2,2.5 C2,2.22385763 2.22385763,2 2.5,2 L7.5,2 C7.77614237,2 8,2.22385763 8,2.5 C8,2.77614237 7.77614237,3 7.5,3 L3,3 Z M17,3 L12.5,3 C12.2238576,3 12,2.77614237 12,2.5 C12,2.22385763 12.2238576,2 12.5,2 L17.5,2 C17.7761424,2 18,2.22385763 18,2.5 L18,7.5 C18,7.77614237 17.7761424,8 17.5,8 C17.2238576,8 17,7.77614237 17,7.5 L17,3 Z M3,17 L7.5,17 C7.77614237,17 8,17.2238576 8,17.5 C8,17.7761424 7.77614237,18 7.5,18 L2.5,18 C2.22385763,18 2,17.7761424 2,17.5 L2,12.5 C2,12.2238576 2.22385763,12 2.5,12 C2.77614237,12 3,12.2238576 3,12.5 L3,17 Z M17,17 L17,12.5 C17,12.2238576 17.2238576,12 17.5,12 C17.7761424,12 18,12.2238576 18,12.5 L18,17.5 C18,17.7761424 17.7761424,18 17.5,18 L12.5,18 C12.2238576,18 12,17.7761424 12,17.5 C12,17.2238576 12.2238576,17 12.5,17 L17,17 Z" fill="currentColor"></path>
</svg>