<?xml version="1.0" encoding="UTF-8"?>
<svg width="20px" height="20px" viewBox="0 0 20 20" version="1.1" xmlns="http://www.w3.org/2000/svg" xmlns:xlink="http://www.w3.org/1999/xlink">
    <path d="M11,15.2324081 L11,9.5004539 C11,9.39784592 11.0309078,9.30245685 11.0839211,9.22308892 L15.5657807,3 L4.43421935,3 L8.91603483,9.22311832 C8.94449167,9.26580681 8.96551812,9.31127956 8.9794194,9.35801076 C8.99227305,9.39965065 9,9.44914991 9,9.5004539 L9,16.5657415 L11,15.2324081 Z M8.5,18 C8.22385763,18 8,17.7761424 8,17.5 L8,9.65183219 L3.23239689,3 L3,3 C2.72385763,3 2.5,2.77614237 2.5,2.5 C2.5,2.22385763 2.72385763,1.99994685 3,1.99994685 L3.49224385,1.99994685 C3.49711079,1.99994685 3.50197579,1.99994685 3.50683726,1.99994685 L16.4931586,1.99994685 C16.4980242,1.99994685 16.5028892,1.99994685 16.5077561,1.99994685 L17,1.99994685 C17.2761424,1.99994685 17.5,2.22385763 17.5,2.5 C17.5,2.77614237 17.2761424,3 17,3 L16.7676031,3 L12,9.65183219 L12,15.5 C12,15.6735281 11.9116013,15.8264097 11.7773795,15.9160692 L8.7773501,17.9160251 C8.69800867,17.9690884 8.60261423,18 8.5,18 Z" fill="currentColor"></path>
</svg>