<?xml version="1.0" encoding="UTF-8"?>
<svg width="20px" height="20px" viewBox="0 0 20 20" version="1.1" xmlns="http://www.w3.org/2000/svg" xmlns:xlink="http://www.w3.org/1999/xlink">
    <path d="M9.70710678,5 L7.85355339,3.14644661 C7.7597852,3.05267842 7.63260824,3 7.5,3 L3,3 C2.42385763,3 2,3.42385763 2,4 L2,15 C2,15.5761424 2.42385763,16 3,16 L17,16 C17.5761424,16 18,15.5761424 18,15 L18,6 C18,5.42385763 17.5761424,5 17,5 L9.70710678,5 Z M7.29289322,4 L9.14644661,5.85355339 C9.2402148,5.94732158 9.36739176,6 9.5,6 L17,6 L17,15 L3,15 L3,4 L7.29289322,4 Z" fill="currentColor"></path>
</svg>