<?xml version="1.0" encoding="UTF-8"?>
<svg width="20px" height="20px" viewBox="0 0 20 20" version="1.1" xmlns="http://www.w3.org/2000/svg" xmlns:xlink="http://www.w3.org/1999/xlink">
    <g stroke="none" stroke-width="1" fill="none" fill-rule="evenodd">
        <path d="M9.65462316,4 C9.93275024,4 10.1582168,4.22385763 10.1582168,4.5 C10.1582168,4.74545989 9.98007038,4.94960837 9.74514475,4.99194433 L9.65462316,5 L9.23865482,5 L9.15424872,5.07393608 C8.18579704,5.94764492 7.4549097,7.04944049 7.01404066,8.26480212 C7.66162393,8.42179657 8.34112978,8.5 9.05031081,8.5 C9.53104934,8.5 10.0325268,8.43505666 10.6637663,8.30970966 C10.9364924,8.25555369 11.2017981,8.43116206 11.2563433,8.70194193 C11.3108885,8.97272181 11.134018,9.23613436 10.861292,9.29029034 C10.1705982,9.42744334 9.61033244,9.5 9.05031081,9.5 C8.24446331,9.5 7.46962174,9.40853179 6.73165492,9.2269005 C6.60046753,9.80326593 6.53234266,10.3983251 6.53234266,11 C6.53234266,13.2129999 7.45394721,15.3365001 9.0495053,16.8298144 C10.5761986,15.4019524 11.4850889,13.3999486 11.562845,11.2943341 L11.568279,11 L11.568279,10.6 C11.568279,10.3238576 11.7937455,10.1 12.0718726,10.1 C12.3190967,10.1 12.5247124,10.2768752 12.5673526,10.5101244 L12.5754662,10.6 L12.5754662,11 C12.5754662,13.1539677 11.7991739,15.2321656 10.4242717,16.843091 C12.6990857,16.3178576 14.5358847,14.5183454 15.0024951,12.2019419 C15.0570403,11.9311621 15.3223461,11.7555537 15.5950721,11.8097097 C15.8677981,11.8638656 16.0446686,12.1272782 15.9901234,12.3980581 C15.3543412,15.5542848 12.5541146,17.8812155 9.30138447,17.9955893 L9.05022043,18.0000111 C5.1463096,18.0000111 2,14.8761424 2,11 C2,7.20461059 5.01657895,4.13048725 8.80731891,4.00404608 L9.05031081,4 L9.65462316,4 Z M3.85247293,7.92869662 L3.76001376,8.0892912 C3.28006628,8.95039235 3.00718726,9.94240894 3.00718726,11 C3.00718726,13.8552095 4.99607631,16.2324769 7.67889454,16.8460831 C6.30241995,15.2347677 5.5251554,13.1553162 5.5251554,11 C5.5251554,10.2968624 5.60787865,9.6017989 5.7671443,8.9284284 C5.09022634,8.67852531 4.45052858,8.34436055 3.85247293,7.92869662 Z M14.5,2 C16.4761424,2 18,3.52385763 18,5.5 C18,6.12299663 17.7046608,6.87672699 17.1792307,7.76174824 C16.9567939,8.13641517 16.6962622,8.52780243 16.4052108,8.9304235 C16.0695291,9.39478324 15.7108152,9.85034995 15.3521288,10.2787808 L15.1531032,10.5138055 L14.86997,10.8363364 C14.6715899,11.0545545 14.3284101,11.0545545 14.13003,10.8363364 L14.009341,10.7010564 L13.6478712,10.2787808 C13.2891848,9.85034995 12.9304709,9.39478324 12.5947892,8.9304235 C12.3037378,8.52780243 12.0432061,8.13641517 11.8207693,7.76174824 C11.2953392,6.87672699 11,6.12299663 11,5.5 C11,3.52385763 12.5238576,2 14.5,2 Z M14.5,3 C13.0761424,3 12,4.07614237 12,5.5 C12,5.89657855 12.2399479,6.50894565 12.6806459,7.25124635 C12.8865001,7.59798196 13.1307166,7.96485949 13.4052108,8.3445765 C13.618923,8.64021167 13.843232,8.93315764 14.0710814,9.21750671 L14.499,9.738 L14.5853712,9.63684417 L14.9289186,9.21750671 L15.2671553,8.78527389 L15.5947892,8.3445765 C15.8692834,7.96485949 16.1134999,7.59798196 16.3193541,7.25124635 C16.7600521,6.50894565 17,5.89657855 17,5.5 C17,4.07614237 15.9238576,3 14.5,3 Z M7.67893287,5.15388398 L7.5102831,5.19503121 C6.29288339,5.51043539 5.22734614,6.1915046 4.43879534,7.11400773 C4.9444812,7.4658929 5.48321873,7.75029856 6.05243995,7.96818534 C6.3776075,7.05500779 6.84878753,6.19836828 7.44818386,5.43549392 L7.67893287,5.15388398 Z M14.5,4 C15.3284271,4 16,4.67157288 16,5.5 C16,6.32842712 15.3284271,7 14.5,7 C13.6715729,7 13,6.32842712 13,5.5 C13,4.67157288 13.6715729,4 14.5,4 Z M14.5,5 C14.2238576,5 14,5.22385763 14,5.5 C14,5.77614237 14.2238576,6 14.5,6 C14.7761424,6 15,5.77614237 15,5.5 C15,5.22385763 14.7761424,5 14.5,5 Z" fill="currentColor" fill-rule="nonzero"></path>
    </g>
</svg>
