<?xml version="1.0" encoding="UTF-8"?>
<svg width="20px" height="20px" viewBox="0 0 20 20" version="1.1" xmlns="http://www.w3.org/2000/svg" xmlns:xlink="http://www.w3.org/1999/xlink">
    <path d="M2,2.5 C2,2.22385763 2.22385763,2 2.5,2 L11.5,2 C11.7761424,2 12,2.22385763 12,2.5 L12,10.5 C12,10.7761424 11.7761424,11 11.5,11 L2.5,11 C2.22385763,11 2,10.7761424 2,10.5 L2,2.5 Z M3,3 L3,10 L11,10 L11,3 L3,3 Z M14,6 L13.5,6 C13.2238576,6 13,5.77614237 13,5.5 C13,5.22385763 13.2238576,5 13.5,5 L14.5,5 C14.7761424,5 15,5.22385763 15,5.5 L15,13.5 C15,13.7761424 14.7761424,14 14.5,14 L5.5,14 C5.22385763,14 5,13.7761424 5,13.5 L5,12.5 C5,12.2238576 5.22385763,12 5.5,12 C5.77614237,12 6,12.2238576 6,12.5 L6,13 L14,13 L14,6 Z M17,9 L16.5,9 C16.2238576,9 16,8.77614237 16,8.5 C16,8.22385763 16.2238576,8 16.5,8 L17.5,8 C17.7761424,8 18,8.22385763 18,8.5 L18,16.5 C18,16.7761424 17.7761424,17 17.5,17 L8.5,17 C8.22385763,17 8,16.7761424 8,16.5 L8,15.5 C8,15.2238576 8.22385763,15 8.5,15 C8.77614237,15 9,15.2238576 9,15.5 L9,16 L17,16 L17,9 Z" fill="currentColor"></path>
</svg>