<?xml version="1.0" encoding="UTF-8"?>
<svg width="20px" height="20px" viewBox="0 0 20 20" version="1.1" xmlns="http://www.w3.org/2000/svg" xmlns:xlink="http://www.w3.org/1999/xlink">
    <path d="M8.49501904,5 C9.31962363,5 9.92075107,5.55262129 9.98861864,6.34808114 L9.99501904,6.5 L9.99443558,8.07592882 C10.1500503,8.02638702 10.319568,8 10.4997566,8 C11.0597076,8 11.5166102,8.25482164 11.7734646,8.66746525 C11.9832626,8.55935576 12.229508,8.5 12.4997566,8.5 C13.0675384,8.5 13.5293693,8.76199868 13.784123,9.18486967 C13.9978591,9.06599298 14.2432735,9 14.4997566,9 C15.3243611,9 15.9254886,9.55262129 15.9933562,10.3480811 L15.9997566,10.5 L15.9997566,15.5 C15.9997566,16.8210967 14.9640094,17.9096877 13.6636269,17.9946613 L13.4997566,18 L8.99975655,18 C8.62421461,18 8.26156438,17.8249509 7.9180495,17.510932 L7.79014059,17.3867312 L4.29975655,12.4 C3.83367275,11.7785549 3.89266143,10.8347428 4.48286642,10.3794455 L4.71985532,10.2187615 C5.33723872,9.84332463 6.19297136,9.9291493 6.61233615,10.4728157 L6.69019096,10.5876525 L6.995,10.968 L6.99501904,6.5 C6.99501904,5.64918735 7.69057692,5 8.49501904,5 Z M8.49501904,6 C8.25769775,6 8.04721925,6.17183551 8.00337614,6.40844448 L7.99501904,6.5 L7.99671727,12.3443715 C8.0149945,12.5090624 7.95106625,12.6792647 7.81210407,12.7904344 C7.72838852,12.8574068 7.62974874,12.8931087 7.53029658,12.899108 L7.49501904,12.9 C7.3485467,12.9 7.21678461,12.8370179 7.12533728,12.7366582 L5.82528191,11.1001832 C5.68324123,10.9639735 5.38930663,10.9574688 5.15700443,11.1287465 C4.98911968,11.2294773 4.94493028,11.5087929 5.05907758,11.7324598 L5.10937251,11.8132688 L8.55330994,16.7464466 C8.68255986,16.8756965 8.82944739,16.9656087 8.93896814,16.9919891 L8.99975655,17 L13.4997566,17 C14.275152,17 14.9196993,16.4010642 14.9928453,15.6437457 L14.9997566,15.5 L14.9997566,10.5 C14.9997566,10.1761424 14.8236142,10 14.4997566,10 C14.2624353,10 14.0519568,10.1718355 14.0081136,10.4084445 L13.9997566,10.5 L13.9997566,11.5 C13.9997566,11.7761424 13.7758989,12 13.4997566,12 C13.2542967,12 13.0501482,11.8231248 13.0078122,11.5898756 L12.9997566,11.5 L12.9997566,10 C12.9997566,9.67614237 12.8236142,9.5 12.4997566,9.5 C12.2118831,9.5 12.0407229,9.63917422 12.0062413,9.89755739 L11.9997566,10 L11.9997566,11 C11.9997566,11.2761424 11.7758989,11.5 11.4997566,11.5 C11.2542967,11.5 11.0501482,11.3231248 11.0078122,11.0898756 L10.9997566,11 L10.9997566,9.5 C10.9997566,9.17614237 10.8236142,9 10.4997566,9 C10.2118831,9 10.0407229,9.13917422 10.0062413,9.39755739 L9.99501904,9.545 L9.99501904,11.5 C9.99501904,11.7454599 9.81814388,11.9496084 9.58489467,11.9919443 L9.49501904,12 C9.24955915,12 9.04541067,11.8231248 9.00307471,11.5898756 L8.99501904,11.5 L8.99501904,6.5 C8.99501904,6.17614237 8.81887667,6 8.49501904,6 Z M12.495019,6 C12.7711614,6 12.995019,6.22385763 12.995019,6.5 C12.995019,6.74545989 12.8181439,6.94960837 12.5848947,6.99194433 L12.495019,7 L11.495019,7 C11.2188767,7 10.995019,6.77614237 10.995019,6.5 C10.995019,6.25454011 11.1718942,6.05039163 11.4051434,6.00805567 L11.495019,6 L12.495019,6 Z M5.49501904,6.00805567 C5.77116142,6.00805567 5.99501904,6.23191329 5.99501904,6.50805567 C5.99501904,6.75351556 5.81814388,6.95766404 5.58489467,7 L5.49501904,7.00805567 L4.49501904,7.00805567 C4.21887667,7.00805567 3.99501904,6.78419804 3.99501904,6.50805567 C3.99501904,6.26259578 4.1718942,6.0584473 4.40514341,6.01611134 L4.49501904,6.00805567 L5.49501904,6.00805567 Z M5.92577115,3.23503777 L5.99501904,3.29289322 L6.70212582,4 C6.89738797,4.19526215 6.89738797,4.51184464 6.70212582,4.70710678 C6.52855947,4.88067313 6.25913507,4.89995828 6.06426693,4.76496223 L5.99501904,4.70710678 L5.28791226,4 C5.09265011,3.80473785 5.09265011,3.48815536 5.28791226,3.29289322 C5.46147861,3.11932687 5.73090301,3.10004172 5.92577115,3.23503777 Z M10.2879123,4 L10.995019,3.29289322 C11.1902812,3.09763107 11.5068637,3.09763107 11.7021258,3.29289322 C11.8756922,3.46645957 11.8949773,3.73588397 11.7599813,3.93075211 L11.7021258,4 L10.995019,4.70710678 C10.7997569,4.90236893 10.4831744,4.90236893 10.2879123,4.70710678 C10.1143459,4.53354043 10.0950608,4.26411603 10.2300568,4.06924789 L10.2879123,4 L10.995019,3.29289322 L10.2879123,4 Z M8.49501904,2 C8.74047893,2 8.94462741,2.17687516 8.98696337,2.41012437 L8.99501904,2.5 L8.99501904,3.5 C8.99501904,3.77614237 8.77116142,4 8.49501904,4 C8.24955915,4 8.04541067,3.82312484 8.00307471,3.58987563 L7.99501904,3.5 L7.99501904,2.5 C7.99501904,2.22385763 8.21887667,2 8.49501904,2 Z" fill="currentColor"></path>
</svg>