<?xml version="1.0" encoding="UTF-8"?>
<svg width="20px" height="20px" viewBox="0 0 20 20" version="1.1" xmlns="http://www.w3.org/2000/svg" xmlns:xlink="http://www.w3.org/1999/xlink">
    <g id="help">
        <path d="M10,18 C14.418278,18 18,14.418278 18,10 C18,5.581722 14.418278,2 10,2 C5.581722,2 2,5.581722 2,10 C2,14.418278 5.581722,18 10,18 Z" id="circle" fill="currentColor"></path>
        <path d="M10,12.95 C10.3589851,12.95 10.65,13.2410149 10.65,13.6 C10.65,13.9589851 10.3589851,14.25 10,14.25 C9.64101491,14.25 9.35,13.9589851 9.35,13.6 C9.35,13.2410149 9.64101491,12.95 10,12.95 Z M10,5.75 C11.4589851,5.75 12.65,6.94101491 12.65,8.4 C12.65,9.62227261 11.8084904,10.6752634 10.65,10.9690367 L10.65,11.2 C10.65,11.5589851 10.3589851,11.85 10,11.85 C9.64101491,11.85 9.35,11.5589851 9.35,11.2 L9.35,10.4 C9.35,10.0736499 9.59050819,9.80347354 9.90394776,9.75704767 L10.1292997,9.74377544 C10.810553,9.67789784 11.35,9.0974258 11.35,8.4 C11.35,7.65898509 10.7410149,7.05 10,7.05 C9.25898509,7.05 8.65,7.65898509 8.65,8.4 C8.65,8.75898509 8.35898509,9.05 8,9.05 C7.64101491,9.05 7.35,8.75898509 7.35,8.4 C7.35,6.94101491 8.54101491,5.75 10,5.75 Z" fill="#FFFFFF" fill-rule="nonzero"></path>
    </g>
</svg>