<?xml version="1.0" encoding="UTF-8"?>
<svg width="20px" height="20px" viewBox="0 0 20 20" version="1.1" xmlns="http://www.w3.org/2000/svg" xmlns:xlink="http://www.w3.org/1999/xlink">
    <path d="M10,13 C10.2761424,13 10.5,13.2238576 10.5,13.5 C10.5,13.7761424 10.2761424,14 10,14 C9.72385763,14 9.5,13.7761424 9.5,13.5 C9.5,13.2238576 9.72385763,13 10,13 Z M10.5,11.5 C10.5,11.7761424 10.2761424,12 10,12 C9.72385763,12 9.5,11.7761424 9.5,11.5 L9.5,10.5 C9.5,10.2238576 9.72385763,10 10,10 C10.8238576,10 11.5,9.32385763 11.5,8.5 C11.5,7.67614237 10.8238576,7 10,7 C9.17614237,7 8.5,7.67614237 8.5,8.5 C8.5,8.77614237 8.27614237,9 8,9 C7.72385763,9 7.5,8.77614237 7.5,8.5 C7.5,7.12385763 8.62385763,6 10,6 C11.3761424,6 12.5,7.12385763 12.5,8.5 C12.5,9.70501585 11.6382723,10.7165901 10.5,10.9495396 L10.5,11.5 Z" fill="currentColor"></path>
</svg>