<svg viewBox="0 0 22 23" version="1.1" xmlns="http://www.w3.org/2000/svg" xmlns:xlink="http://www.w3.org/1999/xlink">
    <g id="Page-1" stroke="none" stroke-width="1" fill="none" fill-rule="evenodd">
        <g id="nav-03" class="fillable" transform="translate(-25.000000, -784.000000)" fill="currentColor">
            <g id="icon-info" transform="translate(24.000000, 784.000000)">
                <path d="M12,21.2966102 C6.76127778,21.2966102 2.5,17.0342768 2.5,11.7966102 C2.5,6.5589435 6.76127778,2.29661017 12,2.29661017 C17.2387222,2.29661017 21.5,6.5589435 21.5,11.7966102 C21.5,17.0342768 17.2387222,21.2966102 12,21.2966102 M12,0.796610169 C5.925,0.796610169 1,5.72161017 1,11.7966102 C1,17.8716102 5.925,22.7966102 12,22.7966102 C18.075,22.7966102 23,17.8716102 23,11.7966102 C23,5.72161017 18.075,0.796610169 12,0.796610169 M11.8105,14.7284773 C12.4265,14.7284773 12.9315,15.2341858 12.9315,15.8532773 C12.9315,16.4713654 12.4265,16.9640298 11.8105,16.9640298 C11.1945,16.9640298 10.7045,16.4713654 10.7045,15.8532773 C10.7045,15.2341858 11.1945,14.7284773 11.8105,14.7284773 L11.8105,14.7284773 Z M11.0265,13.8153925 C10.9985,13.6327756 10.9705,13.4501586 10.9705,13.2384434 C10.9705,12.4939281 11.2785,11.8045993 12.0775,11.2005586 L12.7485,10.6948502 C13.1695,10.3858061 13.3515,10.0055214 13.3515,9.58510102 C13.3515,8.93791458 12.8895,8.31982644 11.9515,8.31982644 C10.9565,8.31982644 10.5225,9.12053153 10.5225,9.90718915 C10.5225,10.076762 10.5365,10.2312841 10.5785,10.3577112 L8.8135,10.2874739 C8.7565,10.0898061 8.7435,9.86504678 8.7435,9.65433492 C8.7435,8.13720949 9.8775,6.67527051 11.9515,6.67527051 C14.1225,6.67527051 15.2565,8.05292475 15.2565,9.47171797 C15.2565,10.5824705 14.6965,11.3691281 13.8705,11.9601247 L13.2955,12.367501 C12.8055,12.7186875 12.5395,13.1541586 12.5395,13.7301044 L12.5395,13.8153925 L11.0265,13.8153925 Z" id="Fill-1"></path>
            </g>
        </g>
    </g>
</svg>
