<?xml version="1.0" encoding="UTF-8"?>
<svg width="20px" height="20px" viewBox="0 0 20 20" version="1.1" xmlns="http://www.w3.org/2000/svg" xmlns:xlink="http://www.w3.org/1999/xlink">
    <path d="M10,14 C10.2761424,14 10.5,14.2238576 10.5,14.5 C10.5,14.7761424 10.2761424,15 10,15 C9.72385763,15 9.5,14.7761424 9.5,14.5 C9.5,14.2238576 9.72385763,14 10,14 Z M10.5,9.95811855 L10.5,11.5 C10.5,11.7761424 10.2761424,12 10,12 C9.72385763,12 9.5,11.7761424 9.5,11.5 L9.5,9.5 C9.5,9.22385763 9.72385763,9 10,9 C11.0988576,9 12,8.09885763 12,7 C12,5.90114237 11.0988576,5 10,5 C8.90114237,5 8,5.90114237 8,7 C8,7.27614237 7.77614237,7.5 7.5,7.5 C7.22385763,7.5 7,7.27614237 7,7 C7,5.34885763 8.34885763,4 10,4 C11.6511424,4 13,5.34885763 13,7 C13,8.48087885 11.914984,9.718601 10.5,9.95811855 Z" fill="currentColor"></path>
</svg>