<?xml version="1.0" encoding="UTF-8"?>
<svg width="20px" height="20px" viewBox="0 0 20 20" version="1.1" xmlns="http://www.w3.org/2000/svg" xmlns:xlink="http://www.w3.org/1999/xlink">
    <path d="M10,14 C10.2761424,14 10.5,14.2238576 10.5,14.5 C10.5,14.7761424 10.2761424,15 10,15 C9.72385763,15 9.5,14.7761424 9.5,14.5 C9.5,14.2238576 9.72385763,14 10,14 Z M10.5,10.9581185 L10.5,11.5 C10.5,11.7761424 10.2761424,12 10,12 C9.72385763,12 9.5,11.7761424 9.5,11.5 L9.5,10.5 C9.5,10.2238576 9.72385763,10 10,10 C11.0988576,10 12,9.09885763 12,8 C12,6.90114237 11.0988576,6 10,6 C8.90114237,6 8,6.90114237 8,8 C8,8.27614237 7.77614237,8.5 7.5,8.5 C7.22385763,8.5 7,8.27614237 7,8 C7,6.34885763 8.34885763,5 10,5 C11.6511424,5 13,6.34885763 13,8 C13,9.48087885 11.914984,10.718601 10.5,10.9581185 Z" fill="currentColor"></path>
</svg>