<?xml version="1.0" encoding="UTF-8"?>
<svg width="20px" height="20px" viewBox="0 0 20 20" version="1.1" xmlns="http://www.w3.org/2000/svg" xmlns:xlink="http://www.w3.org/1999/xlink">
    <g stroke="none" stroke-width="1" fill="none" fill-rule="evenodd">
        <path d="M10,2 C11.2783769,2 12.4867202,2.29984971 13.5585352,2.83305455 C13.8150401,2.62474943 14.1429517,2.5 14.5,2.5 C15.3284271,2.5 16,3.17157288 16,4 C16,4.20544993 15.9586956,4.40125269 15.8839377,4.57955729 C17.1974013,6.00447188 18,7.90850746 18,10 C18,14.418278 14.418278,18 10,18 C5.581722,18 2,14.418278 2,10 C2,5.581722 5.581722,2 10,2 Z M10,3 C6.13400675,3 3,6.13400675 3,10 C3,13.8659932 6.13400675,17 10,17 C13.8659932,17 17,13.8659932 17,10 C17,8.20123925 16.3215395,6.56094144 15.2065619,5.32104986 C14.9963272,5.43605412 14.7556313,5.5 14.5,5.5 C13.6715729,5.5 13,4.82842712 13,4 C13,3.8939384 13.0110078,3.7904478 13.0319433,3.69060837 C12.1159723,3.24772483 11.0869158,3 10,3 Z M10,5 C12.7614237,5 15,7.23857625 15,10 C15,12.7614237 12.7614237,15 10,15 C7.23857625,15 5,12.7614237 5,10 C5,7.23857625 7.23857625,5 10,5 Z M10,6 C7.790861,6 6,7.790861 6,10 C6,12.209139 7.790861,14 10,14 C12.209139,14 14,12.209139 14,10 C14,7.790861 12.209139,6 10,6 Z M10,8.5 C10.8284271,8.5 11.5,9.17157288 11.5,10 C11.5,10.8284271 10.8284271,11.5 10,11.5 C9.17157288,11.5 8.5,10.8284271 8.5,10 C8.5,9.17157288 9.17157288,8.5 10,8.5 Z M10,9.5 C9.72385763,9.5 9.5,9.72385763 9.5,10 C9.5,10.2761424 9.72385763,10.5 10,10.5 C10.2761424,10.5 10.5,10.2761424 10.5,10 C10.5,9.72385763 10.2761424,9.5 10,9.5 Z M14.5,3.5 L14.4101244,3.50805567 C14.1768752,3.55039163 14,3.75454011 14,4 C14,4.24545989 14.1768752,4.44960837 14.4101244,4.49194433 L14.5,4.5 C14.7761424,4.5 15,4.27614237 15,4 C15,3.87727006 14.9557812,3.76486796 14.8824063,3.67785636 L14.822,3.617 L14.7523596,3.56826466 C14.6782855,3.52487307 14.5920475,3.5 14.5,3.5 Z" fill="currentColor"></path>
    </g>
</svg>