<?xml version="1.0" encoding="UTF-8"?>
<svg width="20px" height="20px" viewBox="0 0 20 20" version="1.1" xmlns="http://www.w3.org/2000/svg" xmlns:xlink="http://www.w3.org/1999/xlink">
    <path d="M6.545,3 L6.545,4.125 L6.35,4.125 C5.24,4.125 4.88,4.605 4.88,5.7 L4.88,8.16 C4.88,9.165 4.28,9.825 3.32,10.005 C4.28,10.185 4.88,10.845 4.88,11.85 L4.88,14.295 C4.88,15.39 5.24,15.87 6.35,15.87 L6.545,15.87 L6.545,16.995 L6.35,16.995 C4.595,16.995 3.65,16.065 3.65,14.205 L3.65,12.165 C3.65,11.055 2.87,10.65 2,10.65 L2,9.36 C2.87,9.36 3.65,8.955 3.65,7.845 L3.65,5.79 C3.65,3.93 4.595,3 6.35,3 L6.545,3 Z M13.645,3 C15.4,3 16.345,3.93 16.345,5.79 L16.345,7.845 C16.345,8.955 17.125,9.36 17.995,9.36 L17.995,10.65 C17.125,10.65 16.345,11.055 16.345,12.165 L16.345,14.205 C16.345,16.065 15.4,16.995 13.645,16.995 L13.45,16.995 L13.45,15.87 L13.645,15.87 C14.755,15.87 15.115,15.39 15.115,14.295 L15.115,11.85 C15.115,10.845 15.715,10.185 16.675,10.005 C15.715,9.825 15.115,9.165 15.115,8.16 L15.115,5.7 C15.115,4.605 14.755,4.125 13.645,4.125 L13.45,4.125 L13.45,3 L13.645,3 Z M11,6 L11,9 L14,9 L14,11 L11,11 L11,14 L9,14 L9,11 L6,11 L6,9 L9,9 L9,6 L11,6 Z" fill="currentColor"></path>
</svg>