<?xml version="1.0" encoding="UTF-8"?>
<svg width="20px" height="20px" viewBox="0 0 20 20" version="1.1" xmlns="http://www.w3.org/2000/svg" xmlns:xlink="http://www.w3.org/1999/xlink">
    <g stroke="none" stroke-width="1" fill="none" fill-rule="evenodd">
        <path d="M11.281,17 C11.5571424,17 11.781,17.2238576 11.781,17.5 C11.781,17.7454599 11.6041248,17.9496084 11.3708756,17.9919443 L11.281,18 L9.281,18 C9.00485763,18 8.781,17.7761424 8.781,17.5 C8.781,17.2545401 8.95787516,17.0503916 9.19112437,17.0080557 L9.281,17 L11.281,17 Z M12.281,15 C12.5571424,15 12.781,15.2238576 12.781,15.5 C12.781,15.7454599 12.6041248,15.9496084 12.3708756,15.9919443 L12.281,16 L8.281,16 C8.00485763,16 7.781,15.7761424 7.781,15.5 C7.781,15.2545401 7.95787516,15.0503916 8.19112437,15.0080557 L8.281,15 L12.281,15 Z M10.281,2 C12.984086,2 15.1635724,4.10835255 15.2764103,6.78200873 L15.281,7 L15.281,7 C15.281,8.10818511 14.9459111,9.11345191 14.2547047,10.0321819 C13.6577473,10.7037589 13.3298532,11.7093683 13.2860568,12.8375666 L13.281,13.1 L13.281,13.4 C13.281,13.6454599 13.1041248,13.8496084 12.8708756,13.8919443 L12.781,13.9 L7.781,13.9 C7.53554011,13.9 7.33139163,13.7231248 7.28905567,13.4898756 L7.281,13.4 L7.281,13.1 C7.281,12.0176914 6.92164867,10.9156806 6.3013717,10.0253957 C5.63809463,9.25157244 5.281,8.15053066 5.281,7 C5.281,4.22385763 7.50485763,2 10.281,2 Z M10.281,3 C8.124532,3 6.38905612,4.67012837 6.28585599,6.79910147 L6.281,7 L6.281,7 C6.281,7.92446934 6.5630358,8.79407973 7.09061596,9.41326883 C7.79770621,10.4233978 8.2136908,11.6099853 8.27350447,12.801986 L8.276,12.9 L12.284,12.9 L12.286338,12.809847 C12.3325989,11.5600036 12.6795282,10.4130311 13.3263982,9.58525948 L13.481,9.4 C14.0160889,8.68654809 14.281,7.89181489 14.281,7 C14.281,4.77614237 12.5048576,3 10.281,3 Z" fill="currentColor"></path>
    </g>
</svg>
