<?xml version="1.0" encoding="UTF-8"?>
<svg width="20px" height="20px" viewBox="0 0 20 20" version="1.1" xmlns="http://www.w3.org/2000/svg" xmlns:xlink="http://www.w3.org/1999/xlink">
    <path d="M8.99990557,9.99970277 L6.49990557,9.99970277 C6.16771613,9.99970277 5.92788414,9.68175031 6.0191436,9.36234221 L8.0191436,2.36234221 C8.08047239,2.14769143 8.27666539,1.99970277 8.49990557,1.99970277 L12.4999056,1.99970277 C12.8536379,1.99970277 13.0955168,2.35696591 12.9641439,2.68539811 L11.2384221,6.99970277 L13.4999056,6.99970277 C13.8536379,6.99970277 14.0955168,7.35696591 13.9641439,7.68539811 L9.96414392,17.6853981 C9.75968276,18.196551 8.99990557,18.0502313 8.99990557,17.4997028 L8.99990557,9.99970277 Z M8.87705628,2.99970277 L7.16277056,8.99970277 L9.49990557,8.99970277 C9.77604795,8.99970277 9.99990557,9.2235604 9.99990557,9.49970277 L9.99990557,14.9034116 L12.7613891,7.99970277 L10.4999056,7.99970277 C10.1461733,7.99970277 9.90429435,7.64243963 10.0356672,7.31400743 L11.7613891,2.99970277 L8.87705628,2.99970277 Z" fill="currentColor"></path>
</svg>