<?xml version="1.0" encoding="UTF-8"?>
<svg width="20px" height="20px" viewBox="0 0 20 20" version="1.1" xmlns="http://www.w3.org/2000/svg" xmlns:xlink="http://www.w3.org/1999/xlink">
    <path d="M3,11 L3,16.5 C3,16.7761424 2.77614237,17 2.5,17 C2.22385763,17 2,16.7761424 2,16.5 L2,3.5 C2,3.22385763 2.22385763,3 2.5,3 C2.77614237,3 3,3.22385763 3,3.5 L3,10 L17.5,10 C17.7761424,10 18,10.2238576 18,10.5 C18,10.7761424 17.7761424,11 17.5,11 L3,11 Z M6.71100091,6.6146844 L9.00172287,5.92746781 C9.0395606,5.13272605 9.69588976,4.5 10.5,4.5 C10.9973076,4.5 11.4380906,4.74201079 11.7110009,5.1146844 L14.0017229,4.42746781 C14.0395606,3.63272605 14.6958898,3 15.5,3 C16.3284271,3 17,3.67157288 17,4.5 C17,5.32842712 16.3284271,6 15.5,6 C15.0026924,6 14.5619094,5.75798921 14.2889991,5.3853156 L11.9982771,6.07253219 C11.9604394,6.86727395 11.3041102,7.5 10.5,7.5 C10.0026924,7.5 9.56190944,7.25798921 9.28899909,6.8853156 L6.99827713,7.57253219 C6.9604394,8.36727395 6.30411024,9 5.5,9 C4.67157288,9 4,8.32842712 4,7.5 C4,6.67157288 4.67157288,6 5.5,6 C5.9973076,6 6.43809056,6.24201079 6.71100091,6.6146844 Z" fill="currentColor"></path>
</svg>