<?xml version="1.0" encoding="UTF-8"?>
<svg width="20px" height="20px" viewBox="0 0 20 20" version="1.1" xmlns="http://www.w3.org/2000/svg" xmlns:xlink="http://www.w3.org/1999/xlink">
    <path d="M16.5,16 C16.7761424,16 17,16.2238576 17,16.5 C17,16.7761424 16.7761424,17 16.5,17 L2.5,17 C2.22385763,17 2,16.7761424 2,16.5 C2,16.2238576 2.22385763,16 2.5,16 L16.5,16 Z M3.17548453,4.37736083 C2.96511879,4.19847298 2.93960092,3.88292059 3.11848878,3.67255484 C3.29737663,3.4621891 3.61292902,3.43667123 3.82329477,3.61555909 C5.30934945,4.87924933 6.54316796,5.49644997 7.49743652,5.49644997 C8.27133428,5.49644997 8.77738754,5.7813409 9.5056498,6.44804391 C9.54836528,6.48714869 9.60570489,6.54009654 9.70337811,6.63024762 C10.4028868,7.27373133 10.8131013,7.5 11.5,7.5 C12.7550499,7.5 14.0117408,7.18466699 15.2748218,6.54972817 C15.521545,6.42570279 15.8220961,6.52516899 15.9461214,6.77189214 C16.0701468,7.0186153 15.9706806,7.31916637 15.7239575,7.44319175 C14.3252547,8.14630632 12.9156858,8.5 11.5,8.5 C10.5028167,8.5 9.89351696,8.16391867 9.02635822,7.36621234 C8.92653388,7.27407984 8.87121827,7.22300097 8.83040453,7.18563717 C8.27068375,6.67322901 7.95667695,6.49644997 7.49743652,6.49644997 C6.25688086,6.49644997 4.8253348,5.78033726 3.17548453,4.37736083 Z M3.69503127,13.4565951 C3.44090565,13.564645 3.14730438,13.4462272 3.0392545,13.1921016 C2.93120461,12.937976 3.0496224,12.6443747 3.30374803,12.5363248 C4.92857406,11.8454765 6.32395845,11.49646 7.49743652,11.49646 C8.11431198,11.49646 8.52459656,11.4968681 9.16883593,11.4979101 L9.36568085,11.4982306 C10.1487639,11.4995034 10.6582613,11.5 11.5,11.5 C12.7550499,11.5 14.0117408,11.184667 15.2748218,10.5497282 C15.521545,10.4257028 15.8220961,10.525169 15.9461214,10.7718921 C16.0701468,11.0186153 15.9706806,11.3191664 15.7239575,11.4431918 C14.3252547,12.1463063 12.9156858,12.5 11.5,12.5 C10.6576566,12.5 10.1476398,12.4995029 9.36405548,12.4982293 L9.1672184,12.4979088 C8.52347473,12.4968676 8.11369925,12.49646 7.49743652,12.49646 C6.47609038,12.49646 5.20611018,12.8141101 3.69503127,13.4565951 Z M3.30374803,8.45659511 C3.0496224,8.34854523 2.93120461,8.05494396 3.0392545,7.80081834 C3.14730438,7.54669271 3.44090565,7.42827493 3.69503127,7.53632481 C5.20611018,8.17880981 6.47609038,8.49645996 7.49743652,8.49645996 C8.1983603,8.49645996 8.67283583,8.63024812 9.37643375,8.95287892 C9.47637311,8.99893327 9.47637311,8.99893327 9.5741083,9.04411704 C10.2974544,9.37741083 10.7411672,9.5 11.5,9.5 C12.7550499,9.5 14.0117408,9.18466699 15.2748218,8.54972817 C15.521545,8.42570279 15.8220961,8.52516899 15.9461214,8.77189214 C16.0701468,9.0186153 15.9706806,9.31916637 15.7239575,9.44319175 C14.3252547,10.1463063 12.9156858,10.5 11.5,10.5 C10.5747508,10.5 9.99894941,10.3409174 9.15562803,9.95234292 C9.05586565,9.90622387 9.05586565,9.90622387 8.95962058,9.8618711 C8.37523545,9.59390464 8.02965093,9.49645996 7.49743652,9.49645996 C6.32395845,9.49645996 4.92857406,9.14744345 3.30374803,8.45659511 Z" fill="currentColor"></path>
</svg>