<?xml version="1.0" encoding="UTF-8"?>
<svg width="20px" height="20px" viewBox="0 0 20 20" version="1.1" xmlns="http://www.w3.org/2000/svg" xmlns:xlink="http://www.w3.org/1999/xlink">
    <path d="M16.5,16 C16.7761424,16 17,16.2238576 17,16.5 C17,16.7761424 16.7761424,17 16.5,17 L2.5,17 C2.22385763,17 2,16.7761424 2,16.5 C2,16.2238576 2.22385763,16 2.5,16 L16.5,16 Z M3,7.5 C3,7.22385763 3.22385763,7 3.5,7 C3.77614237,7 4,7.22385763 4,7.5 C4,11.0059174 5.7751475,12 15.5,12 C15.7761424,12 16,12.2238576 16,12.5 C16,12.7761424 15.7761424,13 15.5,13 C5.29628107,13 3,11.7140826 3,7.5 Z M6,5.5 C6,5.22385763 6.22385763,5 6.5,5 C6.77614237,5 7,5.22385763 7,5.5 C7,8.16163358 8.84440613,9 15.5,9 C15.7761424,9 16,9.22385763 16,9.5 C16,9.77614237 15.7761424,10 15.5,10 C8.35559387,10 6,8.92927551 6,5.5 Z M9,3.5 C9,3.22385763 9.22385763,3 9.5,3 C9.77614237,3 10,3.22385763 10,3.5 C10,5.12964401 11.740712,6 15.5,6 C15.7761424,6 16,6.22385763 16,6.5 C16,6.77614237 15.7761424,7 15.5,7 C11.259288,7 9,5.87035599 9,3.5 Z" fill="currentColor"></path>
</svg>