<?xml version="1.0" encoding="UTF-8"?>
<svg width="20px" height="20px" viewBox="0 0 20 20" version="1.1" xmlns="http://www.w3.org/2000/svg" xmlns:xlink="http://www.w3.org/1999/xlink">
    <path d="M16.5,16 C16.7761424,16 17,16.2238576 17,16.5 C17,16.7761424 16.7761424,17 16.5,17 L2.5,17 C2.22385763,17 2,16.7761424 2,16.5 C2,16.2238576 2.22385763,16 2.5,16 L16.5,16 Z M11.9122636,9.83462768 C11.216063,8.97541816 11,7.58776363 11,5.5 C11,5.22385763 11.2238576,5 11.5,5 C11.7761424,5 12,5.22385763 12,5.5 C12,9.11993606 12.5238476,10 15.5,10 C15.7761424,10 16,10.2238576 16,10.5 C16,10.7761424 15.7761424,11 15.5,11 C5.29628107,11 3,9.7140826 3,5.5 C3,5.22385763 3.22385763,5 3.5,5 C3.77614237,5 4,5.22385763 4,5.5 C4,7.89335789 4.82726829,9.11613064 8.44617687,9.65117553 C7.35358059,8.7879722 7,7.45529438 7,5.5 C7,5.22385763 7.22385763,5 7.5,5 C7.77614237,5 8,5.22385763 8,5.5 C8,8.25226091 8.66594307,9.43771997 11.9122636,9.83462768 L11.9122636,9.83462768 Z" fill="currentColor"></path>
</svg>