<?xml version="1.0" encoding="UTF-8"?>
<svg width="20px" height="20px" viewBox="0 0 20 20" version="1.1" xmlns="http://www.w3.org/2000/svg" xmlns:xlink="http://www.w3.org/1999/xlink">
    <path d="M6.9632464,10 L6.03314995,8.90248619 C5.86748771,8.96549744 5.68777311,9 5.5,9 C4.67157288,9 4,8.32842712 4,7.5 C4,6.67157288 4.67157288,6 5.5,6 C6.32842712,6 7,6.67157288 7,7.5 C7,7.77562678 6.92565918,8.03389033 6.79593461,8.25583358 L8.27404174,10 L12.3462935,10 L14.2652142,7.35188942 C14.0979636,7.10992461 14,6.81640262 14,6.5 C14,5.67157288 14.6715729,5 15.5,5 C16.3284271,5 17,5.67157288 17,6.5 C17,7.32842712 16.3284271,8 15.5,8 C15.3523111,8 15.2096074,7.97865577 15.0748053,7.93888375 L13.5812428,10 L17.5,10 C17.7761424,10 18,10.2238576 18,10.5 C18,10.7761424 17.7761424,11 17.5,11 L12.8566051,11 L11.7347858,12.5481106 C11.9020364,12.7900754 12,13.0835974 12,13.4 C12,14.2284271 11.3284271,14.9 10.5,14.9 C9.67157288,14.9 9,14.2284271 9,13.4 C9,13.1243732 9.07434082,12.8661097 9.20406539,12.6441664 L7.81070402,11 L3,11 L3,16.5 C3,16.7761424 2.77614237,17 2.5,17 C2.22385763,17 2,16.7761424 2,16.5 L2,3.5 C2,3.22385763 2.22385763,3 2.5,3 C2.77614237,3 3,3.22385763 3,3.5 L3,10 L6.9632464,10 Z M11.6216558,11 L9.12149937,11 L9.96685005,11.9975138 C10.1325123,11.9345026 10.3122269,11.9 10.5,11.9 C10.6476889,11.9 10.7903926,11.9213442 10.9251947,11.9611163 L11.6216558,11 Z" fill="currentColor"></path>
</svg>