<?xml version="1.0" encoding="UTF-8"?>
<svg width="20px" height="20px" viewBox="0 0 20 20" version="1.1" xmlns="http://www.w3.org/2000/svg" xmlns:xlink="http://www.w3.org/1999/xlink">
    <path d="M16.5,16 C16.7761424,16 17,16.2238576 17,16.5 C17,16.7761424 16.7761424,17 16.5,17 L2.5,17 C2.22385763,17 2,16.7761424 2,16.5 C2,16.2238576 2.22385763,16 2.5,16 L16.5,16 Z M10.9569043,9.14155865 C10.9850658,9.25641311 11,9.37646252 11,9.5 C11,10.3284271 10.3284271,11 9.5,11 C8.67157288,11 8,10.3284271 8,9.5 C8,9.33674447 8.02608076,9.17958043 8.07430307,9.0324471 L5.31459744,6.75974835 C5.08002691,6.91174202 4.80032033,7 4.5,7 C3.67157288,7 3,6.32842712 3,5.5 C3,4.67157288 3.67157288,4 4.5,4 C5.32842712,4 6,4.67157288 6,5.5 C6,5.66325553 5.97391924,5.82041957 5.92569693,5.9675529 L8.68540256,8.24025165 C8.91997309,8.08825798 9.19967967,8 9.5,8 C9.84109919,8 10.1556065,8.11385337 10.4075926,8.3056308 L13.0105443,6.67878598 C13.0035816,6.62016083 13,6.56049868 13,6.5 C13,5.67157288 13.6715729,5 14.5,5 C15.3284271,5 16,5.67157288 16,6.5 C16,7.32842712 15.3284271,8 14.5,8 C14.0950001,8 13.7274886,7.83949282 13.4576067,7.57861963 L10.9569043,9.14155865 L10.9569043,9.14155865 Z" fill="currentColor"></path>
</svg>