<?xml version="1.0" encoding="UTF-8"?>
<svg width="20px" height="20px" viewBox="0 0 20 20" version="1.1" xmlns="http://www.w3.org/2000/svg" xmlns:xlink="http://www.w3.org/1999/xlink">
    <path d="M16.5,16 C16.7761424,16 17,16.2238576 17,16.5 C17,16.7761424 16.7761424,17 16.5,17 L2.5,17 C2.22385763,17 2,16.7761424 2,16.5 C2,16.2238576 2.22385763,16 2.5,16 L16.5,16 Z M10.5666024,6.94531528 L13.0072784,5.64870614 C13.0024643,5.59978926 13,5.55018241 13,5.5 C13,4.67157288 13.6715729,4 14.5,4 C15.3284271,4 16,4.67157288 16,5.5 C16,6.32842712 15.3284271,7 14.5,7 C14.0827555,7 13.7053005,6.82964071 13.4333976,6.55468472 L10.9927216,7.85129386 C10.9975357,7.90021074 11,7.94981759 11,8 C11,8.82842712 10.3284271,9.5 9.5,9.5 C9.19967967,9.5 8.91997309,9.41174202 8.68540256,9.25974835 L5.92569693,11.5324471 C5.97391924,11.6795804 6,11.8367445 6,12 C6,12.8284271 5.32842712,13.5 4.5,13.5 C3.67157288,13.5 3,12.8284271 3,12 C3,11.1715729 3.67157288,10.5 4.5,10.5 C4.80032033,10.5 5.08002691,10.588258 5.31459744,10.7402517 L8.07430307,8.4675529 C8.02608076,8.32041957 8,8.16325553 8,8 C8,7.17157288 8.67157288,6.5 9.5,6.5 C9.91724453,6.5 10.2946995,6.67035929 10.5666024,6.94531528 Z" fill="currentColor"></path>
</svg>