<svg width="20px" height="20px" viewBox="0 0 20 20" version="1.1" xmlns="http://www.w3.org/2000/svg" xmlns:xlink="http://www.w3.org/1999/xlink"><g stroke="none" stroke-width="1" fill="none" fill-rule="evenodd"><path d="M14,8 C16.209139,8 18,9.790861 18,12 C18,14.209139 16.209139,16 14,16 L10,16 C8.13643475,16 6.57052105,14.7256022 6.12621352,13.0007613 L7.17102423,13.0009007 C7.56444181,14.1128456 8.5948672,14.9237055 9.82372721,14.9949073 L10,15 L14,15 C15.6568542,15 17,13.6568542 17,12 C17,10.4023191 15.75108,9.09633912 14.1762728,9.00509269 L14,9 L10,9 C9.11145274,9 8.31312878,9.3862919 7.76380548,10.0000983 L6.53519846,9.99987956 C7.22683444,8.80434324 8.51948501,8 10,8 L14,8 Z M6,12 C3.790861,12 2,10.209139 2,8 C2,5.790861 3.790861,4 6,4 L10,4 C11.8639271,4 13.4300871,5.27489272 13.8740452,7.00024347 L12.8293257,7.00008893 C12.4361695,5.88763555 11.4054973,5.0763156 10.1762728,5.00509269 L10,5 L6,5 C4.34314575,5 3,6.34314575 3,8 C3,9.59768088 4.24891996,10.9036609 5.82372721,10.9949073 L6,11 L10,11 C10.8880739,11 11.6860206,10.6141196 12.2353163,10.0008825 L13.4642293,10.0011092 C12.7724528,11.1961002 11.4801068,12 10,12 L6,12 Z" fill="currentColor" fill-rule="nonzero"></path></g></svg>
