<?xml version="1.0" encoding="UTF-8"?>
<svg width="20px" height="20px" viewBox="0 0 20 20" version="1.1" xmlns="http://www.w3.org/2000/svg" xmlns:xlink="http://www.w3.org/1999/xlink">
    <g stroke="none" stroke-width="1" fill="none" fill-rule="evenodd">
        <path d="M18,12 L18,13 L6,13 L6,12 L18,12 Z M18,15 L18,16 L2,16 L2,15 L18,15 Z M4,12 L4,13 L2,13 L2,12 L4,12 Z M18,6 L18,7 L2,7 L2,6 L18,6 Z M18,3 L18,4 L6,4 L6,3 L18,3 Z M4,3 L4,4 L2,4 L2,3 L4,3 Z" fill="currentColor"></path>
    </g>
</svg>
