<svg width="20px" height="20px"  viewBox="0 0 20 20" xmlns="http://www.w3.org/2000/svg"><path fill="currentColor" d="M16 8c0 .887-.241 1.86-.69 2.906-.498 1.162-1.238 2.387-2.157 3.64a32.094 32.094 0 0 1-1.92 2.365l-.332.365-.302.324-.245.254a.5.5 0 0 1-.708 0l-.245-.254-.302-.324-.332-.365a32.094 32.094 0 0 1-1.92-2.365c-.919-1.253-1.66-2.478-2.157-3.64C4.24 9.86 4 8.887 4 8a6 6 0 1 1 12 0zm-6 8.778l.155-.167.331-.366a31.107 31.107 0 0 0 1.86-2.29c.878-1.197 1.58-2.36 2.045-3.443.4-.931.609-1.777.609-2.512A5 5 0 0 0 5 8c0 .735.21 1.58.609 2.512.464 1.083 1.167 2.246 2.044 3.442.592.807 1.226 1.58 1.86 2.291l.332.366.155.167zM10 5c1.7 0 3 1.3 3 3s-1.3 3-3 3-3-1.3-3-3 1.3-3 3-3zm0 1c-1.1 0-2 .9-2 2s.9 2 2 2 2-.9 2-2-.9-2-2-2z"/></svg>
