<?xml version="1.0" encoding="UTF-8"?>
<svg width="20px" height="20px" viewBox="0 0 20 20" version="1.1" xmlns="http://www.w3.org/2000/svg" xmlns:xlink="http://www.w3.org/1999/xlink">
    <path d="M8,9 L8,7.5 C8,6.11928813 9.11928813,5 10.5,5 C11.8807119,5 13,6.11928813 13,7.5 L13,9 L13.5,9 C13.7761424,9 14,9.22385763 14,9.5 L14,14.5 C14,14.7761424 13.7761424,15 13.5,15 L7.5,15 C7.22385763,15 7,14.7761424 7,14.5 L7,9.5 C7,9.22385763 7.22385763,9 7.5,9 L8,9 Z M9,9 L12,9 L12,7.5 C12,6.67157288 11.3284271,6 10.5,6 C9.67157288,6 9,6.67157288 9,7.5 L9,9 Z M8,10 L8,14 L13,14 L13,10 L8,10 Z" fill="currentColor"></path>
</svg>