<?xml version="1.0" encoding="UTF-8"?>
<svg width="20px" height="20px" viewBox="0 0 20 20" version="1.1" xmlns="http://www.w3.org/2000/svg" xmlns:xlink="http://www.w3.org/1999/xlink">
    <path d="M7,9 L7,7.5 C7,5.56700338 8.56700338,4 10.5,4 C12.4329966,4 14,5.56700338 14,7.5 L14,9 L14.5,9 C14.7761424,9 15,9.22385763 15,9.5 L15,15.5 C15,15.7761424 14.7761424,16 14.5,16 L6.5,16 C6.22385763,16 6,15.7761424 6,15.5 L6,9.5 C6,9.22385763 6.22385763,9 6.5,9 L7,9 Z M8,9 L13,9 L13,7.5 C13,6.11928813 11.8807119,5 10.5,5 C9.11928813,5 8,6.11928813 8,7.5 L8,9 Z M7,10 L7,15 L14,15 L14,10 L7,10 Z" fill="currentColor"></path>
</svg>