<?xml version="1.0" encoding="UTF-8"?>
<svg width="20px" height="20px" viewBox="0 0 20 20" version="1.1" xmlns="http://www.w3.org/2000/svg" xmlns:xlink="http://www.w3.org/1999/xlink">
    <path d="M7,9 L7,6.5 C7,4.56700338 8.56700338,3 10.5,3 C12.4329966,3 14,4.56700338 14,6.5 L14,9 L14.5,9 C14.7761424,9 15,9.22385763 15,9.5 L15,16.5 C15,16.7761424 14.7761424,17 14.5,17 L6.5,17 C6.22385763,17 6,16.7761424 6,16.5 L6,9.5 C6,9.22385763 6.22385763,9 6.5,9 L7,9 Z M8,9 L13,9 L13,6.5 C13,5.11928813 11.8807119,4 10.5,4 C9.11928813,4 8,5.11928813 8,6.5 L8,9 Z M7,10 L7,16 L14,16 L14,10 L7,10 Z" fill="currentColor"></path>
</svg>