<?xml version="1.0" encoding="UTF-8"?>
<svg width="20px" height="20px" viewBox="0 0 20 20" version="1.1" xmlns="http://www.w3.org/2000/svg" xmlns:xlink="http://www.w3.org/1999/xlink">
    <path d="M7,10 C7,11.6238576 8.37614237,13 10,13 C11.6238576,13 13,11.6238576 13,10 L13,7 C13,6.72385763 13.2238576,6.5 13.5,6.5 L17.5,6.5 C17.7761424,6.5 18,6.72385763 18,7 L18,10 C18,14.3761424 14.3761424,18 10,18 C5.62385763,18 2,14.3761424 2,10 L2,7 C2,6.72385763 2.22385763,6.5 2.5,6.5 L6.5,6.5 C6.77614237,6.5 7,6.72385763 7,7 L7,10 Z M14,7.5 L14,10 C14,12.1761424 12.1761424,14 10,14 C7.82385763,14 6,12.1761424 6,10 L6,7.5 L3,7.5 L3,10 C3,13.8238576 6.17614237,17 10,17 C13.8238576,17 17,13.8238576 17,10 L17,7.5 L14,7.5 Z M17.5,2 C17.7761424,2 18,2.22385763 18,2.5 L18,5 C18,5.27614237 17.7761424,5.5 17.5,5.5 L13.5,5.5 C13.2238576,5.5 13,5.27614237 13,5 L13,2.5 C13,2.22385763 13.2238576,2 13.5,2 L17.5,2 Z M17,3 L14,3 L14,4.5 L17,4.5 L17,3 Z M6.5,2 C6.77614237,2 7,2.22385763 7,2.5 L7,5 C7,5.27614237 6.77614237,5.5 6.5,5.5 L2.5,5.5 C2.22385763,5.5 2,5.27614237 2,5 L2,2.5 C2,2.22385763 2.22385763,2 2.5,2 L6.5,2 Z M6,3 L3,3 L3,4.5 L6,4.5 L6,3 Z" fill="currentColor"></path>
</svg>