<svg width="20px" height="20px" viewBox="0 0 20 20" version="1.1" xmlns="http://www.w3.org/2000/svg" xmlns:xlink="http://www.w3.org/1999/xlink"><g stroke="none" stroke-width="1" fill="none" fill-rule="evenodd"><path d="M10,2 C14.418278,2 18,5.36255577 18,9.51047852 C18,13.6584013 14.418278,17.020957 10,17.020957 C9.14253943,17.020957 8.3165866,16.894311 7.54220711,16.6598566 L5.78556846,17.8317092 C5.32603978,18.1384897 4.70517043,18.0141423 4.39881797,17.5539716 C4.2683058,17.3579299 4.21100174,17.1220824 4.23698453,16.8879106 L4.45391288,14.9231928 C2.94124215,13.556798 2,11.6368317 2,9.51047852 C2,5.36255577 5.581722,2 10,2 Z M10,3 C6.12038553,3 3,5.92944856 3,9.51047852 C3,11.1979498 3.69332202,12.7841652 4.91563973,13.9846559 L5.50404306,14.524203 L5.23122544,16.9998076 L7.38005828,15.5659355 L7.83198121,15.7027615 C8.52539897,15.9127036 9.25421364,16.020957 10,16.020957 C13.8796145,16.020957 17,13.0915085 17,9.51047852 C17,5.92944856 13.8796145,3 10,3 Z" fill="currentColor"></path></g></svg>
