<?xml version="1.0" encoding="UTF-8"?>
<svg width="20px" height="20px" viewBox="0 0 20 20" version="1.1" xmlns="http://www.w3.org/2000/svg" xmlns:xlink="http://www.w3.org/1999/xlink">
    <path d="M4.5,10 C4.77614237,10 5,10.2238576 5,10.5 L5,11 L10.5,11 C10.7454599,11 10.9496084,11.1768752 10.9919443,11.4101244 L11,11.5 C11,12.4931775 10.6150878,13.3721121 9.98129746,14.0007697 L10.8,14 C11.1886024,14 11.5379448,13.8971603 11.8437657,13.7073835 L11.9930297,13.6053239 L15.6,10.8 C16.2214451,10.3339162 17.1652572,10.3929049 17.6205545,10.9831099 L17.7812378,11.2200993 C18.1566642,11.837491 18.0706716,12.6933568 17.5243191,13.1148513 L17.4089108,13.1931592 L13.2535534,16.4535534 C12.9185786,16.7885282 12.4257425,16.9597525 11.8989127,16.9936669 L11.7,17 L5,16.999 L5,17.5 C5,17.7761424 4.77614237,18 4.5,18 L2.5,18 C2.22385763,18 2,17.7761424 2,17.5 L2,10.5 C2,10.2238576 2.22385763,10 2.5,10 L4.5,10 Z M4,11 L3,11 L3,17 L4,17 L4,11 Z M16.2817548,11.5488283 L16.2069703,11.5946761 L12.6,14.4 C12.1415096,14.7438678 11.6093839,14.9504891 11.0225782,14.9921597 L10.8,15 L7.5,15 L7.41012437,14.9919443 C7.17687516,14.9496084 7,14.7454599 7,14.5 C7,14.2238576 7.22385763,14 7.5,14 C8.69207331,14 9.6404236,13.2457027 9.91759106,12.1645681 L9.95407888,12 L5,12 L5,15.999 L11.7,16 C12.0085141,16 12.2950562,15.9286857 12.4972879,15.7848234 L12.5910892,15.7068408 L16.8998168,12.3255254 C17.0360265,12.1834847 17.0425312,11.8895501 16.8712535,11.6572479 C16.7705227,11.4893631 16.4912071,11.4451737 16.2817548,11.5488283 Z M11.5,4 C11.7454599,4 11.9496084,4.17687516 11.9919443,4.41012437 L12,4.5 L12,5 L12.5,5 C12.7454599,5 12.9496084,5.17687516 12.9919443,5.41012437 L13,5.5 C13,5.74545989 12.8231248,5.94960837 12.5898756,5.99194433 L12.5,6 L11.5,6 C11.1761424,6 11,6.17614237 11,6.5 C11,6.82385763 11.1761424,7 11.5,7 C12.3761424,7 13,7.62385763 13,8.5 C13,9.19750388 12.6046066,9.73511276 12.001302,9.92534453 L12,10.5 C12,10.7761424 11.7761424,11 11.5,11 C11.2545401,11 11.0503916,10.8231248 11.0080557,10.5898756 L11,10.5 L11,10 L10.5,10 C10.2238576,10 10,9.77614237 10,9.5 C10,9.25454011 10.1768752,9.05039163 10.4101244,9.00805567 L10.5,9 L11.5,9 C11.8238576,9 12,8.82385763 12,8.5 C12,8.21212656 11.8608258,8.0409664 11.6024426,8.0064848 L11.3480811,7.9935996 C10.5526213,7.92573203 10,7.32460459 10,6.5 C10,5.80210862 10.3958328,5.26428994 10.9997037,5.07433874 L11,4.5 C11,4.22385763 11.2238576,4 11.5,4 Z M11.5,2 C14.5761424,2 17,4.42385763 17,7.5 C17,8.35144802 16.8627688,9.09249632 16.5472136,9.7236068 C16.423719,9.97059605 16.1233825,10.0707082 15.8763932,9.9472136 C15.629404,9.82371897 15.5292918,9.52338245 15.6527864,9.2763932 C15.8901723,8.80162133 16,8.20855198 16,7.5 C16,4.97614237 14.0238576,3 11.5,3 C8.97614237,3 7,4.97614237 7,7.5 C7,8.03392706 7.1232894,8.58872938 7.37434165,9.34188612 C7.46166554,9.60385778 7.32008554,9.88701776 7.05811388,9.97434165 C6.79614222,10.0616655 6.51298224,9.92008554 6.42565835,9.65811388 C6.14337726,8.81127062 6,8.16607294 6,7.5 C6,4.42385763 8.42385763,2 11.5,2 Z" fill="currentColor"></path>
</svg>