<?xml version="1.0" encoding="UTF-8"?>
<svg width="20px" height="20px" viewBox="0 0 20 20" version="1.1" xmlns="http://www.w3.org/2000/svg" xmlns:xlink="http://www.w3.org/1999/xlink">
    <path d="M10,6 C8.93333333,6 8,5.06666667 8,4 C8,2.93333333 8.93333333,2 10,2 C11.0666667,2 12,2.93333333 12,4 C12,5.06666667 11.0666667,6 10,6 Z M10,3 C9.4,3 9,3.4 9,4 C9,4.6 9.4,5 10,5 C10.6,5 11,4.6 11,4 C11,3.4 10.6,3 10,3 Z M10,18 C8.93333333,18 8,17.0666667 8,16 C8,14.9333333 8.93333333,14 10,14 C11.0666667,14 12,14.9333333 12,16 C12,17.0666667 11.0666667,18 10,18 Z M10,15 C9.4,15 9,15.4 9,16 C9,16.6 9.4,17 10,17 C10.6,17 11,16.6 11,16 C11,15.4 10.6,15 10,15 Z M10,12 C8.93333333,12 8,11.0666667 8,10 C8,8.93333333 8.93333333,8 10,8 C11.0666667,8 12,8.93333333 12,10 C12,11.0666667 11.0666667,12 10,12 Z M10,9 C9.4,9 9,9.4 9,10 C9,10.6 9.4,11 10,11 C10.6,11 11,10.6 11,10 C11,9.4 10.6,9 10,9 Z" fill="currentColor"></path>
</svg>