<?xml version="1.0" encoding="UTF-8"?>
<svg width="20px" height="20px" viewBox="0 0 20 20" version="1.1" xmlns="http://www.w3.org/2000/svg" xmlns:xlink="http://www.w3.org/1999/xlink">
    <path d="M8.26566871,11.0284956 L12.2941643,7 L9.25863044,7 C8.98248806,7 8.75863044,6.77614237 8.75863044,6.5 C8.75863044,6.22385763 8.98248806,6 9.25863044,6 L13.5012711,6 C13.7774135,6 14.0012711,6.22385763 14.0012711,6.5 L14.0012711,10.7426407 C14.0012711,11.0187831 13.7774135,11.2426407 13.5012711,11.2426407 C13.2251287,11.2426407 13.0012711,11.0187831 13.0012711,10.7426407 L13.0012711,7.70710678 L8.97197017,11.7364077 C8.99040921,11.8189814 9,11.907093 9,12 L9,17 C9,17.6 8.6,18 8,18 L3,18 C2.4,18 2,17.6 2,17 L2,12 C2,11.4 2.4,11 3,11 L8,11 C8.0936862,11 8.18249623,11.0097523 8.26566871,11.0284956 Z M8,12.019458 C7.99345802,12.0130388 7.9869776,12.0065499 7.98056747,12 L3,12 L3,17 L8,17 L8,12.019458 Z M5,8.5 L5,3 C5,2.4 5.4,2 6,2 L17,2 C17.6,2 18,2.4 18,3 L18,14 C18,14.6 17.6,15 17,15 L11.5,15 C11.2238576,15 11,14.7761424 11,14.5 C11,14.2238576 11.2238576,14 11.5,14 L17,14 L17,3 L6,3 L6,8.5 C6,8.77614237 5.77614237,9 5.5,9 C5.22385763,9 5,8.77614237 5,8.5 Z" fill="currentColor"></path>
</svg>