<?xml version="1.0" encoding="UTF-8"?>
<svg xmlns="http://www.w3.org/2000/svg" width="20" height="20" viewBox="0 0 20 20">
<path fill="currentColor" d="M10.5 3a.5.5 0 0 1 .5.5v1.522A5.502 5.502 0 0 1 15.978 10H17.5a.5.5 0 1 1 0 1h-1.522A5.502 5.502 0 0 1 11 15.979L11 17.5a.5.5 0 1 1-1 0v-1.522A5.502 5.502 0 0 1 5.022 11L3.5 11a.5.5 0 1 1 0-1h1.522A5.502 5.502 0 0 1 10 5.022V3.5a.5.5 0 0 1 .5-.5zm0 3a4.5 4.5 0 1 0 0 9 4.5 4.5 0 0 0 0-9zm0 2a2.5 2.5 0 1 1 0 5 2.5 2.5 0 0 1 0-5zm0 1a1.5 1.5 0 1 0 0 3 1.5 1.5 0 0 0 0-3z" id="a"/>
</svg>