<?xml version="1.0" encoding="UTF-8"?>
<svg xmlns="http://www.w3.org/2000/svg" width="20" height="20" viewBox="0 0 20 20">
  <path fill="currentColor" d="M10.854 3.146L12.707 5a.5.5 0 0 1-.708.708l-.999-1V10l5.293.001-.758-.757a.5.5 0 0 1 .708-.708l1.61 1.611a.5.5 0 0 1 0 .708l-1.731 1.731a.5.5 0 0 1-.708-.707l.879-.878H12.51a.51.51 0 0 1-.01 0H11v5.293l.878-.879a.5.5 0 0 1 .708.708l-1.732 1.732a.5.5 0 0 1-.708 0l-1.731-1.732a.5.5 0 0 1 .707-.708l.878.879V11H4.707l.879.878a.5.5 0 0 1-.708.708l-1.732-1.732a.5.5 0 0 1 0-.708l1.732-1.732a.5.5 0 0 1 .708.708L4.707 10H8.49a.51.51 0 0 1 .01 0l1.5-.001V4.707l-.878.879a.5.5 0 0 1-.708-.708l1.732-1.732a.5.5 0 0 1 .708 0z"/>
</svg>