<?xml version="1.0" encoding="UTF-8"?>
<svg width="20px" height="20px" viewBox="0 0 20 20" version="1.1" xmlns="http://www.w3.org/2000/svg" xmlns:xlink="http://www.w3.org/1999/xlink">
    <path d="M9.5,3 C9.77614237,3 10,3.22385763 10,3.5 C10,3.77614237 9.77614237,4 9.5,4 L5.5,4 C4.67614237,4 4,4.67614237 4,5.5 L4,14.5 C4,15.3238576 4.67614237,16 5.5,16 L14.5,16 C15.3238576,16 16,15.3238576 16,14.5 L16,10.5 C16,10.2238576 16.2238576,10 16.5,10 C16.7761424,10 17,10.2238576 17,10.5 L17,14.5 C17,15.8761424 15.8761424,17 14.5,17 L5.5,17 C4.12385763,17 3,15.8761424 3,14.5 L3,5.5 C3,4.12385763 4.12385763,3 5.5,3 L9.5,3 Z M14.5,2 C16.4329966,2 18,3.56700338 18,5.5 C18,7.43299662 16.4329966,9 14.5,9 C12.5670034,9 11,7.43299662 11,5.5 C11,3.56700338 12.5670034,2 14.5,2 Z M14.5,3 C13.1192881,3 12,4.11928813 12,5.5 C12,6.88071187 13.1192881,8 14.5,8 C15.8807119,8 17,6.88071187 17,5.5 C17,4.11928813 15.8807119,3 14.5,3 Z" fill="currentColor"></path>
</svg>