<?xml version="1.0" encoding="UTF-8"?>
<svg width="20px" height="20px" viewBox="0 0 20 20" version="1.1" xmlns="http://www.w3.org/2000/svg" xmlns:xlink="http://www.w3.org/1999/xlink">
    <path d="M9.81430466,3.03576165 L2.31430466,6.03576165 C2.26683824,6.05474822 2.22474812,6.07919469 2.1880343,6.10786421 L2.17352701,6.12128671 C2.0670797,6.21003882 2.00998118,6.33590532 2.00119762,6.4648006 L2.00149314,6.53892982 C2.01103051,6.66639581 2.06804458,6.79078056 2.17249317,6.87947862 L2.26689639,6.94245158 L2.31430466,6.96423835 L5,8.038 L5,14.5 C5,14.6791394 5.09550186,14.8420796 5.2461651,14.9308038 L5.32590674,14.9687126 C8.93822035,16.3104291 11.0617797,16.3104291 14.6740933,14.9687126 C14.8420231,14.9063387 14.9615149,14.7600793 14.9922283,14.5879512 L15,14.5 L15,8.038 L17.6856953,6.96423835 C18.1047682,6.79660919 18.1047682,6.20339081 17.6856953,6.03576165 L10.1856953,3.03576165 C10.0664898,2.98807945 9.93351018,2.98807945 9.81430466,3.03576165 Z M6,8.438 L9.81430466,9.96423835 C9.93351018,10.0119206 10.0664898,10.0119206 10.1856953,9.96423835 L14,8.438 L14,14.1500873 C11.0447814,15.2059756 9.22779239,15.2482111 6.36363214,14.2767939 L6,14.1500873 L6,8.438 Z M2.5,8 C2.25454011,8 2.05039163,8.17687516 2.00805567,8.41012437 L2,8.5 L2,12 C2,12.2761424 2.22385763,12.5 2.5,12.5 C2.74545989,12.5 2.94960837,12.3231248 2.99194433,12.0898756 L3,12 L3,8.5 C3,8.22385763 2.77614237,8 2.5,8 Z M10,4.03851648 L16.1537088,6.5 L10,8.96148352 L5.097,7 L9.5,7 C9.74545989,7 9.94960837,6.82312484 9.99194433,6.58987563 L10,6.5 C10,6.25454011 9.82312484,6.05039163 9.58987563,6.00805567 L9.5,6 L5.097,6 L10,4.03851648 Z" fill="currentColor"></path>
</svg>