<svg viewBox="0 0 20 20" xmlns="http://www.w3.org/2000/svg" xmlns:xlink="http://www.w3.org/1999/xlink"><defs><path d="M9.5 2a.5.5 0 010 1H3v14h14v-6.5a.5.5 0 111 0V17c0 .5523-.4477 1-1 1H3c-.5523 0-1-.4477-1-1V3c0-.5523.4477-1 1-1h6.5zM17 2c.5523 0 1 .4477 1 1v4.5a.5.5 0 11-1 0V3.763l-7.4749 7.4758a.5.5 0 01-.707-.707L16.349 3H12.5a.5.5 0 110-1H17z" id="a"/></defs><g fill="none" fill-rule="evenodd"><mask id="b" fill="#fff"><use xlink:href="#a"/></mask><use fill="currentColor" fill-rule="nonzero" xlink:href="#a"/><path fill="currentColor" mask="url(#b)" d="M0 0h20v20H0z"/></g></svg>
