<?xml version="1.0" encoding="UTF-8"?>
<svg width="20px" height="20px" viewBox="0 0 20 20" version="1.1" xmlns="http://www.w3.org/2000/svg" xmlns:xlink="http://www.w3.org/1999/xlink">
    <path d="M8.5,5 C8.74545989,5 8.94960837,5.17687516 8.99194433,5.41012437 L9,5.5 L9,14.5 C9,14.7454599 8.82312484,14.9496084 8.58987563,14.9919443 L8.5,15 L5.5,15 C5.25454011,15 5.05039163,14.8231248 5.00805567,14.5898756 L5,14.5 L5,5.5 C5,5.25454011 5.17687516,5.05039163 5.41012437,5.00805567 L5.5,5 L8.5,5 Z M14.5,5 C14.7454599,5 14.9496084,5.17687516 14.9919443,5.41012437 L15,5.5 L15,14.5 C15,14.7454599 14.8231248,14.9496084 14.5898756,14.9919443 L14.5,15 L11.5,15 C11.2545401,15 11.0503916,14.8231248 11.0080557,14.5898756 L11,14.5 L11,5.5 C11,5.25454011 11.1768752,5.05039163 11.4101244,5.00805567 L11.5,5 L14.5,5 Z M8,6 L6,6 L6,14 L8,14 L8,6 Z M14,6 L12,6 L12,14 L14,14 L14,6 Z" fill="currentColor"></path>
</svg>