<?xml version="1.0" encoding="UTF-8"?>
<svg width="20px" height="20px" viewBox="0 0 20 20" version="1.1" xmlns="http://www.w3.org/2000/svg" xmlns:xlink="http://www.w3.org/1999/xlink">
    <path d="M20,17.3741567 C20,17.6809636 19.7789168,17.9361342 19.4873668,17.989051 L19.3750261,17.9991201 L0.626136581,17.9991201 C0.158996241,17.9991201 -0.123234656,17.5174288 0.0528809344,17.1229661 C0.0303365115,17.0459478 0.0148701236,16.9643157 0.00706413417,16.879241 L0.00117324441,16.7491934 L0.00117324441,4.24992667 C0.00117324441,3.58122922 0.457982789,3.07665557 1.09982226,3.00798534 L1.25109992,3 L18.7500733,3 C19.4187708,3 19.9233444,3.45680954 19.9920147,4.09864902 L20,4.24992667 L20,17.3741567 Z M5.62584327,12.1244647 L1.92606032,16.7491934 L9.32437629,16.7491934 L5.62584327,12.1244647 Z M14.3715802,10.722047 L9.60061009,15.068042 L10.9280322,16.7491934 L18.7500733,16.7491934 L18.7500733,14.7730593 L14.3715802,10.722047 Z M18.7500733,4.24992667 L1.25109992,4.24992667 L1.24992667,15.5930112 L5.13782889,10.7341119 C5.36299865,10.4526497 5.77079335,10.4245034 6.0324881,10.6496732 L6.11385765,10.7341119 L8.80823326,14.1005988 L13.9544234,9.41262609 C14.1643023,9.22140313 14.4716851,9.19855974 14.704832,9.34344874 L14.7997063,9.41581146 L18.7489001,13.0681593 L18.7500733,4.24992667 Z" id="picture" fill="currentColor"></path>
</svg>