<?xml version="1.0" encoding="UTF-8"?>
<svg width="20px" height="20px" viewBox="0 0 20 20" version="1.1" xmlns="http://www.w3.org/2000/svg" xmlns:xlink="http://www.w3.org/1999/xlink">
    <path d="M9,3.6 L9,11 L16.4,11 C16.5504271,11 16.6853389,11.0664291 16.7770004,11.1715522 C16.8704725,11.2807793 16.9165658,11.4239205 16.8946796,11.572747 C16.3541803,15.248142 13.2183421,18 9.5,18 C5.32385763,18 2,14.6761424 2,10.5 C2,6.78165786 4.75185798,3.6458197 8.427253,3.10532043 C8.70045699,3.06514338 8.95450251,3.25404902 8.99467957,3.527253 C8.998275,3.55170192 9.00003584,3.5759974 9.00006587,3.59999992 L9,3.6 Z M8,4.20486507 C5.10342912,4.89612382 3,7.47702778 3,10.5 C3,14.1238576 5.87614237,17 9.5,17 C12.5229722,17 15.1038762,14.8965709 15.7951349,12 L8.5,12 C8.22385763,12 8,11.7761424 8,11.5 L8,4.20486507 Z M10,2.5 C10,2.22385763 10.2238576,2 10.5,2 C14.6761424,2 18,5.32385763 18,9.5 C18,9.77614237 17.7761424,10 17.5,10 L10.5,10 C10.2238576,10 10,9.77614237 10,9.5 L10,2.5 Z M11,9 L16.9815915,9 C16.7433568,5.78002968 14.2199703,3.2566432 11,3.01840848 L11,9 Z" fill="currentColor"></path>
</svg>