<?xml version="1.0" encoding="UTF-8"?>
<svg width="20px" height="20px" viewBox="0 0 20 20" version="1.1" xmlns="http://www.w3.org/2000/svg" xmlns:xlink="http://www.w3.org/1999/xlink">
    <path d="M17.4153188,8.75056611 C17.5464133,8.94136741 17.7050055,9.21284763 17.8910956,9.56500677 C18.0363028,9.83981485 18.0363026,10.1602021 17.8910883,10.435007 C17.7050014,10.7871595 17.5464116,11.0586351 17.4153188,11.2494339 C15.8673575,13.5024123 13.124976,15 10,15 C6.87502395,15 4.13264254,13.5024123 2.58468119,11.2494339 C2.4535867,11.0586326 2.29499446,10.7871524 2.10890444,10.4349932 C1.96369723,10.1601852 1.96369738,9.83979789 2.10891173,9.56499297 C2.2949986,9.21284054 2.45358842,8.94136492 2.58468119,8.75056611 C4.13264254,6.49758771 6.87502395,5 10,5 C13.124976,5 15.8673575,6.49758771 17.4153188,8.75056611 Z M3,10 C4.24309027,12.3649473 6.91026998,14 10,14 C13.08973,14 15.7569097,12.3649473 17,10 C15.7569097,7.63505267 13.08973,6 10,6 C6.91026998,6 4.24309027,7.63505267 3,10 Z M10,12 C8.8954305,12 8,11.1045695 8,10 C8,8.8954305 8.8954305,8 10,8 C11.1045695,8 12,8.8954305 12,10 C12,11.1045695 11.1045695,12 10,12 Z M10,11 C10.5522847,11 11,10.5522847 11,10 C11,9.44771525 10.5522847,9 10,9 C9.44771525,9 9,9.44771525 9,10 C9,10.5522847 9.44771525,11 10,11 Z" fill="currentColor"></path>
</svg>