<?xml version="1.0" encoding="UTF-8"?>
<svg width="20px" height="20px" viewBox="0 0 20 20" version="1.1" xmlns="http://www.w3.org/2000/svg" xmlns:xlink="http://www.w3.org/1999/xlink">
    <path d="M7.5,7 C5.01471863,7 3,9.01471863 3,11.5 C3,13.9852814 5.01471863,16 7.5,16 L11.5,16 C11.7761424,16 12,16.2238576 12,16.5 C12,16.7761424 11.7761424,17 11.5,17 L7.5,17 C4.46243388,17 2,14.5375661 2,11.5 C2,8.46243388 4.46243388,6 7.5,6 L16.2985012,5.99924488 L14.1591058,3.85333855 C13.9644851,3.65812555 13.9644851,3.34162274 14.1591058,3.14640975 C14.3537265,2.95119675 14.669269,2.95119675 14.8638897,3.14640975 L17.8540345,6.14565463 C18.0486552,6.34086762 18.0486552,6.65737043 17.8540345,6.85258343 L14.8638897,9.85182831 C14.669269,10.0470413 14.3537265,10.0470413 14.1591058,9.85182831 C13.9644851,9.65661531 13.9644851,9.34011251 14.1591058,9.14489951 L16.2974974,7 L7.5,7 Z" fill="currentColor"></path>
</svg>