<?xml version="1.0" encoding="UTF-8"?>
<svg width="20px" height="20px" viewBox="0 0 20 20" version="1.1" xmlns="http://www.w3.org/2000/svg" xmlns:xlink="http://www.w3.org/1999/xlink">
    <path d="M16.2651888,6.87402509 C15.0933047,4.5274741 12.6867265,3 10,3 C6.13400675,3 3,6.13400675 3,10 C3,13.8659932 6.13400675,17 10,17 C12.809282,17 15.3122748,15.3299956 16.417758,12.7998142 C16.5283176,12.5467703 16.8230764,12.431264 17.0761203,12.5418236 C17.3291641,12.6523831 17.4446705,12.9471419 17.3341109,13.2001858 C16.0708746,16.0914253 13.2103141,18 10,18 C5.581722,18 2,14.418278 2,10 C2,5.581722 5.581722,2 10,2 C12.9528486,2 15.6097941,3.61471714 17,6.12362545 L17,4.2 C17,3.92385763 17.2238576,3.7 17.5,3.7 C17.7761424,3.7 18.0000374,3.92385763 18.0000374,4.2 L18.0000374,7.4 C18.0000374,7.41677102 17.9991743,7.43334918 17.9975613,7.44969606 C18.0008288,7.48235893 18.0009109,7.51582866 17.9975186,7.54975186 C17.9700414,7.82452379 17.7250201,8.02499579 17.4502481,7.9975186 L14.4502481,7.6975186 C14.1754762,7.6700414 13.9750042,7.42502007 14.0024814,7.15024814 C14.0299586,6.87547621 14.2749799,6.67500421 14.5497519,6.7024814 L16.2651888,6.87402509 L16.2651888,6.87402509 Z" fill="currentColor"></path>
</svg>