<?xml version="1.0" encoding="UTF-8"?>
<svg width="20px" height="20px" viewBox="0 0 20 20" version="1.1" xmlns="http://www.w3.org/2000/svg" xmlns:xlink="http://www.w3.org/1999/xlink">
    <path d="M3.73484864,6.87402509 L5.45028554,6.7024814 C5.72505747,6.67500421 5.9700788,6.87547621 5.99755599,7.15024814 C6.02503318,7.42502007 5.82456119,7.6700414 5.54978926,7.6975186 L2.54978926,7.9975186 C2.27501732,8.02499579 2.02999599,7.82452379 2.0025188,7.54975186 C1.99912648,7.51582866 1.99920862,7.48235893 2.00247607,7.44969606 C2.0008631,7.43334918 2,7.41677102 2,7.4 L2,4.2 C2,3.92385763 2.22389502,3.7 2.5000374,3.7 C2.77617977,3.7 3.0000374,3.92385763 3.0000374,4.2 L3.0000374,6.12362545 C4.39024332,3.61471714 7.04718878,2 10.0000374,2 C14.4183154,2 18.0000374,5.581722 18.0000374,10 C18.0000374,14.418278 14.4183154,18 10.0000374,18 C6.78972325,18 3.92916278,16.0914253 2.66592649,13.2001858 C2.55536693,12.9471419 2.67087327,12.6523831 2.92391712,12.5418236 C3.17696098,12.431264 3.47171979,12.5467703 3.58227936,12.7998142 C4.68776264,15.3299956 7.19075541,17 10.0000374,17 C13.8660306,17 17.0000374,13.8659932 17.0000374,10 C17.0000374,6.13400675 13.8660306,3 10.0000374,3 C7.31331094,3 4.90673274,4.5274741 3.73484864,6.87402509 L3.73484864,6.87402509 Z" fill="currentColor"></path>
</svg>