<?xml version="1.0" encoding="UTF-8"?>
<svg width="20px" height="20px" viewBox="0 0 20 20" version="1.1" xmlns="http://www.w3.org/2000/svg" xmlns:xlink="http://www.w3.org/1999/xlink">
    <path d="M3.76410469,9.0328156 L8.4179806,11.1807583 L15.3574879,4.39546232 L3.76410469,9.0328156 Z M9.38968391,11.6292368 L15.1143876,14.2714077 L16.7550277,4.42756727 L9.38968391,11.6292368 Z M8.99985248,15.2195834 L10.2698259,13.136827 L8.99985248,12.5506854 L8.99985248,15.2195834 Z M8.92675057,17.2603037 C8.66372158,17.6916713 7.99984697,17.5052348 7.99984697,16.9999998 L7.99984697,12.089147 L2.29032339,9.45397969 C1.89186614,9.27007635 1.90669589,8.69874615 2.31415714,8.53576165 L17.3033939,2.54006696 C17.3205212,2.53275596 17.3379705,2.52644669 17.3556533,2.52113816 C17.704529,2.41451002 18.0546893,2.71236055 17.9930494,3.08219949 L15.9930494,15.0821995 C15.9388149,15.4076065 15.5898552,15.5922252 15.2903234,15.4539797 L11.1838388,13.5586791 L8.92675057,17.2603037 Z" fill="currentColor"></path>
</svg>