<?xml version="1.0" encoding="UTF-8"?>
<svg width="20px" height="20px" viewBox="0 0 20 20" version="1.1" xmlns="http://www.w3.org/2000/svg" xmlns:xlink="http://www.w3.org/1999/xlink">
    <path d="M10,12 C8.8954305,12 8,11.1045695 8,10 C8,8.8954305 8.8954305,8 10,8 C11.1045695,8 12,8.8954305 12,10 C12,11.1045695 11.1045695,12 10,12 Z M10,11 C10.5522847,11 11,10.5522847 11,10 C11,9.44771525 10.5522847,9 10,9 C9.44771525,9 9,9.44771525 9,10 C9,10.5522847 9.44771525,11 10,11 Z M7.97468354,17.4936709 L7.97468354,15.624152 C7.21916219,15.342517 6.59458594,15.0025901 6.0842926,14.5735707 L4.48153735,15.5014817 C4.2392717,15.6417407 3.9291644,15.5587934 3.78927312,15.3163152 L2.27028578,12.6834038 C2.13069439,12.4414454 2.2134252,12.1321476 2.45517151,11.9921892 L4.05534533,11.0657728 C3.97198482,10.6702439 3.92405063,10.3098922 3.92405063,10 C3.92405063,9.69010783 3.97198482,9.32975614 4.05534533,8.9342272 L2.45517151,8.00781078 C2.2134252,7.86785239 2.13069439,7.55855464 2.27028578,7.31659623 L3.78927312,4.68368483 C3.9291644,4.44120662 4.2392717,4.35825927 4.48153735,4.49851834 L6.08096568,5.42450316 C6.63826474,4.93871498 7.2862143,4.56396487 7.97468354,4.34650788 L7.97468354,2.50632911 C7.97468354,2.22669127 8.20137481,2 8.48101266,2 L11.5189873,2 C11.7986252,2 12.0253165,2.22669127 12.0253165,2.50632911 L12.0253165,4.34650788 C12.7137857,4.56396487 13.3617353,4.93871498 13.9190343,5.42450316 L15.5184626,4.49851834 C15.7607283,4.35825927 16.0708356,4.44120662 16.2107269,4.68368483 L17.7297142,7.31659623 C17.8693056,7.55855464 17.7865748,7.86785239 17.5448285,8.00781078 L15.9446547,8.9342272 C16.0280152,9.32975614 16.0759494,9.69010783 16.0759494,10 C16.0759494,10.3098922 16.0280152,10.6702439 15.9446547,11.0657728 L17.5448285,11.9921892 C17.7865748,12.1321476 17.8693056,12.4414454 17.7297142,12.6834038 L16.2107269,15.3163152 C16.0708356,15.5587934 15.7607283,15.6417407 15.5184626,15.5014817 L13.9190343,14.5754968 C13.3617353,15.061285 12.7137857,15.4360351 12.0253165,15.6534921 L12.0253165,17.4936709 C12.0253165,17.7733087 11.7986252,18 11.5189873,18 L8.48101266,18 C8.20137481,18 7.97468354,17.7733087 7.97468354,17.4936709 Z M4.41301481,14.3710261 L5.89820948,13.5111766 C6.09673201,13.3962425 6.34772231,13.4291332 6.50992748,13.5913383 C7.0110138,14.0924247 7.70702934,14.4741106 8.64112798,14.7854768 C8.8478835,14.8543953 8.98734177,15.0478833 8.98734177,15.2658228 L8.98734177,16.9873418 L11.0126582,16.9873418 L11.0126582,15.2658228 C11.0126582,15.028507 11.1774846,14.8230319 11.4091491,14.7715509 C12.1719761,14.6020337 12.9050092,14.1764016 13.4900725,13.5913383 C13.6522777,13.4291332 13.903268,13.3962425 14.1017905,13.5111766 L15.5869852,14.3710261 L16.5999239,12.6152657 L15.1133994,11.7546462 C14.9180024,11.6415216 14.8211172,11.4126928 14.8758772,11.1936528 C14.9932457,10.7241787 15.0632911,10.3039064 15.0632911,10 C15.0632911,9.69609364 14.9932457,9.27582127 14.8758772,8.80634715 C14.8211172,8.5873072 14.9180024,8.35847836 15.1133994,8.24535378 L16.5999239,7.38473431 L15.5869852,5.62897389 L14.1017905,6.48882344 C13.903268,6.60375753 13.6522777,6.57086684 13.4900725,6.40866166 C12.9050092,5.82359837 12.1719761,5.39796626 11.4091491,5.22844914 C11.1774846,5.17696813 11.0126582,4.97149299 11.0126582,4.73417722 L11.0126582,3.01265823 L8.98734177,3.01265823 L8.98734177,4.73417722 C8.98734177,4.97149299 8.82251545,5.17696813 8.59085086,5.22844914 C7.82802386,5.39796626 7.09499077,5.82359837 6.50992748,6.40866166 C6.34772231,6.57086684 6.09673201,6.60375753 5.89820948,6.48882344 L4.41301481,5.62897389 L3.40007611,7.38473431 L4.88660064,8.24535378 C5.08199764,8.35847836 5.17888277,8.5873072 5.12412278,8.80634715 C5.00675426,9.27582127 4.93670886,9.69609364 4.93670886,10 C4.93670886,10.3039064 5.00675426,10.7241787 5.12412278,11.1936528 C5.17888277,11.4126928 5.08199764,11.6415216 4.88660064,11.7546462 L3.40007611,12.6152657 L4.41301481,14.3710261 Z" fill="currentColor"></path>
</svg>