<?xml version="1.0" encoding="UTF-8"?>
<svg width="20px" height="20px" viewBox="0 0 20 20" version="1.1" xmlns="http://www.w3.org/2000/svg" xmlns:xlink="http://www.w3.org/1999/xlink">
    <path d="M13.1464466,4.14644661 C13.320013,3.97288026 13.5894374,3.95359511 13.7843055,4.08859116 L13.8535534,4.14644661 L16.8535534,7.14644661 C17.0488155,7.34170876 17.0488155,7.65829124 16.8535534,7.85355339 C16.679987,8.02711974 16.4105626,8.04640489 16.2156945,7.91140884 L16.1464466,7.85355339 L14,5.70710678 L14,15.5 C14,15.7761424 13.7761424,16 13.5,16 C13.2545401,16 13.0503916,15.8231248 13.0080557,15.5898756 L13,15.5 L13,5.70710678 L10.8535534,7.85355339 C10.6582912,8.04881554 10.3417088,8.04881554 10.1464466,7.85355339 C9.97288026,7.67998704 9.95359511,7.41056264 10.0885912,7.2156945 L10.1464466,7.14644661 L13.1464466,4.14644661 Z M6.5,4 C6.77614237,4 7,4.22385763 7,4.5 L7,14.2928932 L9.14644661,12.1464466 C9.34170876,11.9511845 9.65829124,11.9511845 9.85355339,12.1464466 C10.0488155,12.3417088 10.0488155,12.6582912 9.85355339,12.8535534 L6.85355339,15.8535534 C6.65829124,16.0488155 6.34170876,16.0488155 6.14644661,15.8535534 L3.14644661,12.8535534 C2.95118446,12.6582912 2.95118446,12.3417088 3.14644661,12.1464466 C3.34170876,11.9511845 3.65829124,11.9511845 3.85355339,12.1464466 L6,14.2928932 L6,4.5 C6,4.22385763 6.22385763,4 6.5,4 Z" fill="currentColor"></path>
</svg>