<?xml version="1.0" encoding="UTF-8"?>
<svg width="20px" height="20px" viewBox="0 0 20 20" version="1.1" xmlns="http://www.w3.org/2000/svg" xmlns:xlink="http://www.w3.org/1999/xlink">
    <path d="M17,6 C17,6.27614237 16.7761424,6.5 16.5,6.5 C16.2238576,6.5 16,6.27614237 16,6 C16,5.47614237 15.5238576,5 15,5 C14.7238576,5 14.5,4.77614237 14.5,4.5 C14.5,4.22385763 14.7238576,4 15,4 C16.0761424,4 17,4.92385763 17,6 Z M10,4 C13.8659932,4 17,7.13400675 17,11 C17,14.8659932 13.8659932,18 10,18 C6.13400675,18 3,14.8659932 3,11 C3,7.13400675 6.13400675,4 10,4 Z M10,5 C6.6862915,5 4,7.6862915 4,11 C4,14.3137085 6.6862915,17 10,17 C13.3137085,17 16,14.3137085 16,11 C16,7.6862915 13.3137085,5 10,5 Z M9,2 L11,2 C11.2761424,2 11.5,2.22385763 11.5,2.5 C11.5,2.77614237 11.2761424,3 11,3 L9,3 C8.72385763,3 8.5,2.77614237 8.5,2.5 C8.5,2.22385763 8.72385763,2 9,2 Z M9.64644661,10.6464466 L12.9464466,7.34644661 C13.1417088,7.15118446 13.4582912,7.15118446 13.6535534,7.34644661 C13.8488155,7.54170876 13.8488155,7.85829124 13.6535534,8.05355339 L10.3535534,11.3535534 C10.1582912,11.5488155 9.84170876,11.5488155 9.64644661,11.3535534 C9.45118446,11.1582912 9.45118446,10.8417088 9.64644661,10.6464466 Z" fill="currentColor"></path>
</svg>