<?xml version="1.0" encoding="UTF-8"?>
<svg width="20px" height="20px" viewBox="0 0 20 20" version="1.1" xmlns="http://www.w3.org/2000/svg" xmlns:xlink="http://www.w3.org/1999/xlink">
    <path d="M16.2651888,6.87402509 C15.0933047,4.5274741 12.6867265,3 10,3 C7.19071801,3 4.68772524,4.67000441 3.58224196,7.2001858 C3.4716824,7.45322966 3.17692359,7.568736 2.92387973,7.45817643 C2.67083587,7.34761687 2.55532953,7.05285806 2.66588909,6.7998142 C3.92912538,3.90857467 6.78968585,2 10,2 C12.9528486,2 15.6097941,3.61471714 17,6.12362545 L17,4.2 C17,3.92385763 17.2238576,3.7 17.5,3.7 C17.7761424,3.7 18.0000374,3.92385763 18.0000374,4.2 L18.0000374,7.4 C18.0000374,7.41677102 17.9991743,7.43334918 17.9975613,7.44969606 C18.0008288,7.48235893 18.0009109,7.51582866 17.9975186,7.54975186 C17.9700414,7.82452379 17.7250201,8.02499579 17.4502481,7.9975186 L14.4502481,7.6975186 C14.1754762,7.6700414 13.9750042,7.42502007 14.0024814,7.15024814 C14.0299586,6.87547621 14.2749799,6.67500421 14.5497519,6.7024814 L16.2651888,6.87402509 L16.2651888,6.87402509 Z M3.73484864,13.1260123 C4.90673274,15.4725633 7.31331094,17.0000374 10.0000374,17.0000374 C12.8093194,17.0000374 15.3123122,15.330033 16.4177954,12.7998516 C16.528355,12.5468077 16.8231138,12.4313014 17.0761577,12.541861 C17.3292015,12.6524205 17.4447079,12.9471793 17.3341483,13.2002232 C16.070912,16.0914627 13.2103515,18.0000374 10.0000374,18.0000374 C7.04718878,18.0000374 4.39024332,16.3853203 3.0000374,13.8764119 L3.0000374,15.8000374 C3.0000374,16.0761798 2.77617977,16.3000374 2.5000374,16.3000374 C2.22389502,16.3000374 2,16.0761798 2,15.8000374 L2,12.6000374 C2,12.5832664 2.0008631,12.5666882 2.00247607,12.5503413 C1.99920862,12.5176785 1.99912648,12.4842087 2.0025188,12.4502855 C2.02999599,12.1755136 2.27501732,11.9750416 2.54978926,12.0025188 L5.54978926,12.3025188 C5.82456119,12.329996 6.02503318,12.5750173 5.99755599,12.8497893 C5.9700788,13.1245612 5.72505747,13.3250332 5.45028554,13.297556 L3.73484864,13.1260123 L3.73484864,13.1260123 Z" fill="currentColor"></path>
</svg>