<?xml version="1.0" encoding="UTF-8"?>
<svg width="20px" height="20px" viewBox="0 0 20 20" version="1.1" xmlns="http://www.w3.org/2000/svg" xmlns:xlink="http://www.w3.org/1999/xlink">
    <path d="M6,15 L6,16 L2,16 L2,15 L6,15 Z M12,15 L12,16 L8,16 L8,15 L12,15 Z M18,15 L18,16 L14,16 L14,15 L18,15 Z M6,11 L6,12 L2,12 L2,11 L6,11 Z M12,11 L12,12 L8,12 L8,11 L12,11 Z M18,11 L18,12 L14,12 L14,11 L18,11 Z M6,7 L6,8 L2,8 L2,7 L6,7 Z M12,7 L12,8 L8,8 L8,7 L12,7 Z M18,7 L18,8 L14,8 L14,7 L18,7 Z M6,3 L6,4 L2,4 L2,3 L6,3 Z M12,3 L12,4 L8,4 L8,3 L12,3 Z M18,3 L18,4 L14,4 L14,3 L18,3 Z" fill="currentColor"></path>
</svg>