<?xml version="1.0" encoding="UTF-8"?>
<svg width="20px" height="20px" viewBox="0 0 20 20" version="1.1" xmlns="http://www.w3.org/2000/svg" xmlns:xlink="http://www.w3.org/1999/xlink">
    <path d="M5,6 L4.5,6 C4.2,6 4,5.8 4,5.5 C4,5.2 4.2,5 4.5,5 L15.5,5 C15.8,5 16,5.2 16,5.5 C16,5.8 15.8,6 15.5,6 L15,6 L15,15.5 C15,16.9 13.9,18 12.5,18 L7.5,18 C6.1,18 5,16.9 5,15.5 L5,6 Z M6,6 L6,15.5 C6,16.3 6.7,17 7.5,17 L12.5,17 C13.3,17 14,16.3 14,15.5 L14,6 L6,6 Z M8.5,8 C8.77614237,8 9,8.22385763 9,8.5 L9,14.5 C9,14.7761424 8.77614237,15 8.5,15 C8.22385763,15 8,14.7761424 8,14.5 L8,8.5 C8,8.22385763 8.22385763,8 8.5,8 Z M11.5,8 C11.7761424,8 12,8.22385763 12,8.5 L12,14.5 C12,14.7761424 11.7761424,15 11.5,15 C11.2238576,15 11,14.7761424 11,14.5 L11,8.5 C11,8.22385763 11.2238576,8 11.5,8 Z M11.5,4 C11.2,4 11,3.80952381 11,3.52380952 L11,2.95238095 L9,2.95238095 L9,3.52380952 C9,3.80952381 8.8,4 8.5,4 C8.2,4 8,3.80952381 8,3.52380952 L8,2.47619048 C8,2.19047619 8.2,2 8.5,2 L11.5,2 C11.8,2 12,2.19047619 12,2.47619048 L12,3.52380952 C12,3.71428571 11.8,4 11.5,4 Z" fill="currentColor"></path>
</svg>