<?xml version="1.0" encoding="UTF-8"?>
<svg width="20px" height="20px" viewBox="0 0 20 20" version="1.1" xmlns="http://www.w3.org/2000/svg" xmlns:xlink="http://www.w3.org/1999/xlink">
    <path d="M12.5,7 L3.70250259,7 L5.84089419,9.14489951 C6.03551489,9.34011251 6.03551489,9.65661531 5.84089419,9.85182831 C5.6462735,10.0470413 5.330731,10.0470413 5.13611031,9.85182831 L2.14596552,6.85258343 C1.95134483,6.65737043 1.95134483,6.34086762 2.14596552,6.14565463 L5.13611031,3.14640975 C5.330731,2.95119675 5.6462735,2.95119675 5.84089419,3.14640975 C6.03551489,3.34162274 6.03551489,3.65812555 5.84089419,3.85333855 L3.70149881,5.99924488 L12.5,6 C15.5375661,6 18,8.46243388 18,11.5 C18,14.5375661 15.5375661,17 12.5,17 L8.5,17 C8.22385763,17 8,16.7761424 8,16.5 C8,16.2238576 8.22385763,16 8.5,16 L12.5,16 C14.9852814,16 17,13.9852814 17,11.5 C17,9.01471863 14.9852814,7 12.5,7 Z" fill="currentColor"></path>
</svg>