<svg viewBox="0 0 15 12" xmlns="http://www.w3.org/2000/svg"><path d="M8.6449.0091a.4924.4924 0 01.3894.5774L6.9325 11.3993a.4924.4924 0 11-.9668-.188L8.0675.3986A.4924.4924 0 018.645.0091zM11 1.899c2.2091 0 4 1.7909 4 4 0 2.1422-1.684 3.891-3.8004 3.9951L11 9.899H9.5a.5.5 0 110-1H11c1.6569 0 3-1.3431 3-3 0-1.5977-1.249-2.9037-2.8237-2.995L11 2.899h-.5a.5.5 0 110-1h.5zm-5.5 0a.5.5 0 010 1H4c-1.6569 0-3 1.3431-3 3 0 1.5977 1.249 2.9037 2.8237 2.995L4 8.8988h.5a.5.5 0 010 1H4c-2.2091 0-4-1.7909-4-4 0-2.1422 1.684-3.891 3.8004-3.9951L4 1.8989h1.5z" fill="currentColor" fill-rule="evenodd"/></svg>
