<?xml version="1.0" encoding="UTF-8"?>
<svg width="20px" height="20px" viewBox="0 0 20 20" version="1.1" xmlns="http://www.w3.org/2000/svg" xmlns:xlink="http://www.w3.org/1999/xlink">
    <path d="M4,9 L3,9 L3,7.5 C3,5.56700338 4.56700338,4 6.5,4 C8.43299662,4 10,5.56700338 10,7.5 L10,9 L16.5,9 C16.7761424,9 17,9.22385763 17,9.5 L17,15.5 C17,15.7761424 16.7761424,16 16.5,16 L8.5,16 C8.22385763,16 8,15.7761424 8,15.5 L8,9.5 C8,9.22385763 8.22385763,9 8.5,9 L9,9 L9,7.5 C9,6.11928813 7.88071187,5 6.5,5 C5.11928813,5 4,6.11928813 4,7.5 L4,9 Z M9,10 L9,15 L16,15 L16,10 L9,10 Z" fill="currentColor"></path>
</svg>