<?xml version="1.0" encoding="UTF-8"?>
<svg width="20px" height="20px" viewBox="0 0 20 20" version="1.1" xmlns="http://www.w3.org/2000/svg" xmlns:xlink="http://www.w3.org/1999/xlink">
    <path d="M3,17 L16,17 L16,14.5 C16,14.2238576 16.2238576,14 16.5,14 C16.7761424,14 17,14.2238576 17,14.5 L17,17.5 C17,17.7761424 16.7761424,18 16.5,18 L2.5,18 C2.22385763,18 2,17.7761424 2,17.5 L2,14.5 C2,14.2238576 2.22385763,14 2.5,14 C2.77614237,14 3,14.2238576 3,14.5 L3,17 Z M9,3.70710678 L6.85355339,5.85355339 C6.65829124,6.04881554 6.34170876,6.04881554 6.14644661,5.85355339 C5.95118446,5.65829124 5.95118446,5.34170876 6.14644661,5.14644661 L9.14644661,2.14644661 C9.34170876,1.95118446 9.65829124,1.95118446 9.85355339,2.14644661 L12.8535534,5.14644661 C13.0488155,5.34170876 13.0488155,5.65829124 12.8535534,5.85355339 C12.6582912,6.04881554 12.3417088,6.04881554 12.1464466,5.85355339 L10,3.70710678 L10,13.5 C10,13.7761424 9.77614237,14 9.5,14 C9.22385763,14 9,13.7761424 9,13.5 L9,3.70710678 Z" fill="currentColor"></path>
</svg>