<?xml version="1.0" encoding="UTF-8"?>
<svg width="20px" height="20px" viewBox="0 0 20 20" version="1.1" xmlns="http://www.w3.org/2000/svg" xmlns:xlink="http://www.w3.org/1999/xlink">
    <path d="M15.8224425,12.1178459 C15.9310347,12.209564 16,12.3467281 16,12.5 L16,15 C16,15.5761424 15.5761424,16 15,16 L5,16 C4.42385763,16 4,15.5761424 4,15 L4,12.5 C4,12.3578576 4.06042014,12.2166948 4.17756453,12.1178543 C7.56380336,9.26071525 12.4361966,9.26071525 15.8224355,12.1178543 L15.8224425,12.1178459 Z M5,12.7364644 L5,15 L15,15 L15,12.7364644 C12.0554056,10.3878452 7.94459439,10.3878452 5,12.7364644 L5,12.7364644 Z M10,9 C8.34314575,9 7,7.65685425 7,6 C7,4.34314575 8.34314575,3 10,3 C11.6568542,3 13,4.34314575 13,6 C13,7.65685425 11.6568542,9 10,9 Z M10,8 C11.1045695,8 12,7.1045695 12,6 C12,4.8954305 11.1045695,4 10,4 C8.8954305,4 8,4.8954305 8,6 C8,7.1045695 8.8954305,8 10,8 Z" fill="currentColor"></path>
</svg>