<svg viewBox="0 0 20 20" xmlns="http://www.w3.org/2000/svg" xmlns:xlink="http://www.w3.org/1999/xlink"><defs><path d="M17.1446 8.7209a.5.5 0 01-.9364.3511c-.352-.9387-.6273-1.509-1.0558-2.1106l-.5101-.8169c-.7126-1.247-1.8771-2.0855-3.3872-2.463-1.5112-.3778-2.951-.1654-4.1306.649-1.247.7127-2.0855 1.8771-2.463 3.3872-.3556 1.4223-.1153 2.8882.6407 4.1167a.5.5 0 01-.8516.524c-.8954-1.4549-1.181-3.1966-.7593-4.8832.4417-1.7666 1.4453-3.1604 2.9005-3.9899 1.3907-.9627 3.1264-1.2188 4.9059-.774 1.7665.4417 3.1604 1.4453 4.0027 2.9201l.4829.7744c.4716.6603.7813 1.3018 1.1613 2.315zm-1.1682 5.6755a.5.5 0 01-1 0v-1.1c0-1.954-.4979-3.7558-1.524-5.435l-.513-.8221c-.4464-.8034-1.2366-1.3844-2.2067-1.564-.8405-.2521-1.7876-.0904-2.6135.4582C7.316 6.3798 6.735 7.17 6.5553 8.1401c-.2521.8405-.0904 1.7876.4451 2.5913l.5048.8078c.3276.546.4712 1.1205.4712 1.7572v1.1a.5.5 0 01-1 0v-1.1c0-.4633-.0992-.8602-.324-1.235l-.492-.7876c-.6888-1.0332-.903-2.2875-.576-3.3668.221-1.215.9879-2.258 2.0147-2.8266 1.0332-.6888 2.2874-.903 3.3667-.5759 1.2151.221 2.258.9878 2.8346 2.027l.5026.8042c1.1256 1.8419 1.6734 3.8243 1.6734 5.9607v1.1zm-2 1a.5.5 0 01-1 0v-2.1c0-1.5776-.408-3.0655-1.224-4.335l-.492-.7876c-.4809-.7213-1.3845-.9761-2.0066-.5613-.7213.4808-.9762 1.3844-.5534 2.019l.5.8c.5257.8411.776 1.8144.776 2.865v2.1a.5.5 0 01-1 0v-2.1c0-.8717-.2031-1.6617-.624-2.335l-.492-.7877c-.742-1.113-.3159-2.6237.8387-3.3934 1.1129-.742 2.6236-.3158 3.4013.851l.4966.7947c.9199 1.4309 1.3794 3.1068 1.3794 4.8703v2.1zm-4.424-6.235a.5.5 0 01.848-.53l.4978.7966c.7312 1.149 1.0782 2.4302 1.0782 3.8684v3.6a.5.5 0 01-1 0v-3.6c0-1.254-.2965-2.3489-.924-3.335l-.5-.8z" id="a"/></defs><g fill="none" fill-rule="evenodd"><mask id="b" fill="#fff"><use xlink:href="#a"/></mask><use fill="currentColor" fill-rule="nonzero" xlink:href="#a"/><path fill="currentColor" mask="url(#b)" d="M0 0h20v20H0z"/></g></svg>
