<?xml version="1.0" encoding="UTF-8"?>
<svg width="20px" height="20px" viewBox="0 0 20 20" version="1.1" xmlns="http://www.w3.org/2000/svg" xmlns:xlink="http://www.w3.org/1999/xlink">
    <path d="M17.1445693,8.72088084 C17.2415293,8.979441 17.1105266,9.26764709 16.8519664,9.36460715 C16.5934062,9.46156721 16.3052002,9.33056445 16.2082401,9.07200428 C15.8562336,8.13332027 15.5808734,7.56293127 15.1524055,6.96144203 L14.6422831,6.14451203 C13.9296766,4.89745068 12.7652044,4.05903071 11.2551369,3.68151381 C9.74391751,3.30370897 8.30415025,3.51613365 7.12447416,4.33056413 C5.8774128,5.04317062 5.03899283,6.2076428 4.66147594,7.71771038 C4.30590532,9.13999283 4.54621084,10.6058565 5.30223385,11.8343938 C5.44695935,12.0695728 5.37363235,12.3775462 5.1384534,12.5222717 C4.90327445,12.6669972 4.59530104,12.5936702 4.45057553,12.3584913 C3.55520189,10.9035091 3.26967633,9.16180319 3.69133344,7.47517475 C4.13296548,5.70864658 5.13656162,4.31476305 6.5917997,3.48534647 C7.98245542,2.52258481 9.71817022,2.26649574 11.4976725,2.71137131 C13.2642007,3.15300336 14.6580842,4.1565995 15.5004038,5.63144309 L15.9832714,6.40582347 C16.4549147,7.06612407 16.7645758,7.70756486 17.1445693,8.72088084 Z M15.9764047,14.3964426 C15.9764047,14.6725849 15.7525471,14.8964426 15.4764047,14.8964426 C15.2002623,14.8964426 14.9764047,14.6725849 14.9764047,14.3964426 L14.9764047,13.2964426 C14.9764047,11.3424099 14.4785429,9.54062427 13.4524055,7.86144203 L12.939326,7.03926403 C12.4930344,6.23593908 11.7028165,5.65489653 10.7327307,5.47535571 C9.89220004,5.22319649 8.94511559,5.38489384 8.11922615,5.9335212 C7.3159012,6.37981284 6.73485866,7.1700307 6.55531783,8.14011651 C6.30315862,8.98064721 6.46485596,9.92773166 7.00040384,10.7314431 L7.50515115,11.5391947 C7.83277875,12.0852407 7.97640469,12.6597444 7.97640469,13.2964426 L7.97640469,14.3964426 C7.97640469,14.6725849 7.75254706,14.8964426 7.47640469,14.8964426 C7.20026231,14.8964426 6.97640469,14.6725849 6.97640469,14.3964426 L6.97640469,13.2964426 C6.97640469,12.8331407 6.87717348,12.4362159 6.65240553,12.061442 L6.16037954,11.2737927 C5.47155997,10.2405633 5.25742278,8.98633118 5.58446973,7.90699984 C5.80539033,6.69193655 6.57226729,5.64898389 7.59905459,5.08041742 C8.63228394,4.39159784 9.88651607,4.17746065 10.9658474,4.50450761 C12.1809107,4.72542821 13.2238634,5.49230516 13.8004038,6.53144309 L14.3030456,7.33571756 C15.4286333,9.17758836 15.9764047,11.159999 15.9764047,13.2964426 L15.9764047,14.3964426 Z M13.9764047,15.3964426 C13.9764047,15.6725849 13.7525471,15.8964426 13.4764047,15.8964426 C13.2002623,15.8964426 12.9764047,15.6725849 12.9764047,15.3964426 L12.9764047,13.2964426 C12.9764047,11.7188022 12.5684271,10.2308839 11.7524055,8.96144203 L11.2603795,8.17379266 C10.7795436,7.45253873 9.87594146,7.19767659 9.25375478,7.61246771 C8.53250086,8.09330366 8.27763872,8.99690579 8.70040384,9.63144309 L9.20040384,10.4314431 C9.7261298,11.2726046 9.97640469,12.2458959 9.97640469,13.2964426 L9.97640469,15.3964426 C9.97640469,15.6725849 9.75254706,15.8964426 9.47640469,15.8964426 C9.20026231,15.8964426 8.97640469,15.6725849 8.97640469,15.3964426 L8.97640469,13.2964426 C8.97640469,12.4247671 8.77328151,11.6348436 8.35240553,10.961442 L7.86037954,10.1737927 C7.1184139,9.0608442 7.54451904,7.55010778 8.69905459,6.78041742 C9.81200305,6.03845177 11.3227395,6.46455692 12.1004038,7.63144309 L12.5969939,8.42606377 C13.5168823,9.85700118 13.9764047,11.5329065 13.9764047,13.2964426 L13.9764047,15.3964426 Z M9.55240553,9.16144203 C9.40605037,8.92727377 9.47723695,8.61879858 9.71140522,8.47244341 C9.94557348,8.32608824 10.2540487,8.39727483 10.4004038,8.63144309 L10.8982354,9.42800482 C11.6293915,10.5769643 11.9764047,11.8582438 11.9764047,13.2964426 L11.9764047,16.8964426 C11.9764047,17.1725849 11.7525471,17.3964426 11.4764047,17.3964426 C11.2002623,17.3964426 10.9764047,17.1725849 10.9764047,16.8964426 L10.9764047,13.2964426 C10.9764047,12.0423336 10.6798946,10.947527 10.0524055,9.96144203 L9.55240553,9.16144203 Z" fill="currentColor"></path>
</svg>