<?xml version="1.0" encoding="UTF-8"?>
<svg width="20px" height="20px" viewBox="0 0 20 20" version="1.1" xmlns="http://www.w3.org/2000/svg" xmlns:xlink="http://www.w3.org/1999/xlink">
    <path d="M13.5,6 C13.2238576,6 13,5.77614237 13,5.5 C13,5.22385763 13.2238576,5 13.5,5 L17,5 C17.5761424,5 18,5.42385763 18,6 L18,15 C18,15.5761424 17.5761424,16 17,16 L3,16 C2.42385763,16 2,15.5761424 2,15 L2,6 C2,5.42385763 2.42385763,5 3,5 L6.5,5 C6.77614237,5 7,5.22385763 7,5.5 C7,5.77614237 6.77614237,6 6.5,6 L3,6 L3,15 L17,15 L17,6 L13.5,6 Z M6.5,11 C5.67157288,11 5,10.3284271 5,9.5 C5,8.67157288 5.67157288,8 6.5,8 C7.32842712,8 8,8.67157288 8,9.5 C8,10.3284271 7.32842712,11 6.5,11 Z M6.5,10 C6.77614237,10 7,9.77614237 7,9.5 C7,9.22385763 6.77614237,9 6.5,9 C6.22385763,9 6,9.22385763 6,9.5 C6,9.77614237 6.22385763,10 6.5,10 Z M8.75193551,12.0681105 C8.90554437,12.1577157 9,12.3221665 9,12.5 L9,13.5 C9,13.7761424 8.77614237,14 8.5,14 L4.5,14 C4.22385763,14 4,13.7761424 4,13.5 L4,12.5 C4,12.3221665 4.09445563,12.1577157 4.24806449,12.0681105 C5.60374574,11.2772965 7.39625426,11.2772965 8.75193551,12.0681105 Z M8,13 L8,12.8016746 C7.07318943,12.3661085 5.92681057,12.3661085 5,12.8016746 L5,13 L8,13 Z M10.5,11 C10.2238576,11 10,10.7761424 10,10.5 C10,10.2238576 10.2238576,10 10.5,10 L14.5,10 C14.7761424,10 15,10.2238576 15,10.5 C15,10.7761424 14.7761424,11 14.5,11 L10.5,11 Z M10.5,13 C10.2238576,13 10,12.7761424 10,12.5 C10,12.2238576 10.2238576,12 10.5,12 L14.5,12 C14.7761424,12 15,12.2238576 15,12.5 C15,12.7761424 14.7761424,13 14.5,13 L10.5,13 Z M12,6.5 C12,6.77614237 11.7761424,7 11.5,7 L8.5,7 C8.22385763,7 8,6.77614237 8,6.5 L8,5 C8,3.92385763 8.92385763,3 10,3 C11.0761424,3 12,3.92385763 12,5 L12,6.5 Z M11,6 L11,5 C11,4.47614237 10.5238576,4 10,4 C9.47614237,4 9,4.47614237 9,5 L9,6 L11,6 Z" fill="currentColor"></path>
</svg>