<?xml version="1.0" encoding="UTF-8"?>
<svg width="20px" height="20px" viewBox="0 0 20 20" version="1.1" xmlns="http://www.w3.org/2000/svg" xmlns:xlink="http://www.w3.org/1999/xlink">
    <path d="M13.9519433,14.2858403 C13.9827587,14.3507551 14,14.4233641 14,14.5 L14,16 C14,16.5761424 13.5761424,17 13,17 L3,17 C2.42385763,17 2,16.5761424 2,16 L2,14.5 C2,14.3578576 2.06042014,14.2166948 2.17756453,14.1178543 C5.56380336,11.2607152 10.4361966,11.2607152 13.8224355,14.1178543 C13.8810077,14.1672745 13.9253837,14.2272754 13.9551256,14.292689 L13.9519433,14.2858403 Z M3,14.7364644 L3,16 L13,16 L13,14.7364644 C10.0554056,12.3878452 5.94459439,12.3878452 3,14.7364644 L3,14.7364644 Z M17.9506423,12.2831209 C17.982273,12.3487246 18,12.4222921 18,12.5 L18,14 C18,14.5761424 17.5761424,15 17,15 L15.5,15 C15.2238576,15 15,14.7761424 15,14.5 C15,14.2238576 15.2238576,14 15.5,14 L17,14 L17,12.7397233 C15.4275075,11.509241 13.6142551,10.9094116 11.7237826,10.9994341 C11.4479528,11.0125688 11.2137007,10.7996124 11.2005659,10.5237826 C11.1874312,10.2479528 11.4003876,10.0137007 11.6762174,10.0005659 C13.8927765,9.8950155 16.0156272,10.6298484 17.8178536,12.1140349 C17.8778387,12.1634343 17.9233585,12.2238858 17.9538921,12.2900072 L17.9506423,12.2831209 Z M12.5894427,8.99193496 C12.3177545,9.0413328 12.0574629,8.86113089 12.008065,8.58944272 C11.9586672,8.31775455 12.1388691,8.05746289 12.4105573,8.00806504 C13.3141225,7.84378047 14,7.01599723 14,6 C14,4.87614237 13.1238576,4 12,4 C11.4406096,4 11.0460413,4.1434794 10.6123475,4.4904344 C10.3967166,4.66293918 10.0820704,4.62797849 9.9095656,4.41234752 C9.73706082,4.19671656 9.77202151,3.88207037 9.98765248,3.7095656 C10.5956254,3.22318727 11.2093904,3 12,3 C13.6761424,3 15,4.32385763 15,6 C15,7.49779587 13.9699754,8.74092901 12.5894427,8.99193496 Z M8,11 C6.34314575,11 5,9.65685425 5,8 C5,6.34314575 6.34314575,5 8,5 C9.65685425,5 11,6.34314575 11,8 C11,9.65685425 9.65685425,11 8,11 Z M8,10 C9.1045695,10 10,9.1045695 10,8 C10,6.8954305 9.1045695,6 8,6 C6.8954305,6 6,6.8954305 6,8 C6,9.1045695 6.8954305,10 8,10 Z" fill="currentColor"></path>
</svg>