<?xml version="1.0" encoding="UTF-8"?>
<svg width="20px" height="20px" viewBox="0 0 20 20" version="1.1" xmlns="http://www.w3.org/2000/svg" xmlns:xlink="http://www.w3.org/1999/xlink">
    <path d="M17.836154,17.1542143 C18.0271262,17.3536741 18.0202456,17.6701818 17.8207857,17.861154 C17.6213259,18.0521262 17.3048182,18.0452456 17.113846,17.8457857 L12.7947411,13.3791651 C11.6494882,14.3880251 10.1462113,15 8.5,15 C4.91014913,15 2,12.0898509 2,8.5 C2,4.91014913 4.91014913,2 8.5,2 C12.0898509,2 15,4.91014913 15,8.5 C15,10.0834681 14.4337854,11.5346898 13.4927776,12.6622434 L17.836154,17.1542143 Z M8.5,14 C11.5375661,14 14,11.5375661 14,8.5 C14,5.46243388 11.5375661,3 8.5,3 C5.46243388,3 3,5.46243388 3,8.5 C3,11.5375661 5.46243388,14 8.5,14 Z M11,8 L11,9 L6,9 L6,8 L11,8 Z" fill="currentColor"></path>
</svg>