<svg width="16" height="16" viewBox="0 0 16 16"
  xmlns:xlink="http://www.w3.org/1999/xlink">
  <path d="M8 7h2.5c.2761424 0 .5.22385763.5.5 0 .27614237-.2238576.5-.5.5h-3c-.13807119 0-.26307119-.05596441-.35355339-.14644661C7.05596441 7.76307119 7 7.63807119 7 7.5v-4c0-.27614237.22385763-.5.5-.5.27614237 0 .5.22385763.5.5V7zm-.5 8C3.35786438 15 0 11.6421356 0 7.5 0 3.35786438 3.35786438 0 7.5 0 11.6421356 0 15 3.35786438 15 7.5c0 4.1421356-3.3578644 7.5-7.5 7.5zm0-1c3.5898509 0 6.5-2.9101491 6.5-6.5C14 3.91014913 11.0898509 1 7.5 1 3.91014913 1 1 3.91014913 1 7.5 1 11.0898509 3.91014913 14 7.5 14z" fill="currentColor"/>
</svg>
