<svg width="16" height="16" viewBox="0 0 16 16" xmlns="http://www.w3.org/2000/svg"><path d="M7.031.997a.997.997 0 0 0-.996.996v8.969c0 .55.446.996.996.996h6.976c.55 0 .996-.446.996-.996V1.993a.997.997 0 0 0-.996-.996H7.03zm0-.997h6.976C15.107 0 16 .892 16 1.993v8.969c0 1.1-.892 1.993-1.993 1.993H7.03c-1.1 0-1.993-.892-1.993-1.993V1.993C5.038.893 5.93 0 7.031 0zm2.934 13.793h.997A2.21 2.21 0 0 1 8.747 16H2.215A2.21 2.21 0 0 1 0 13.793V5.252a2.21 2.21 0 0 1 1.961-2.193c.081-.009 1.586-.014 2.306-.014v.997c-.425 0-2.176.006-2.193.008A1.213 1.213 0 0 0 .997 5.252v8.541c0 .668.545 1.21 1.218 1.21h6.532c.673 0 1.218-.542 1.218-1.21z" fill="currentColor"/></svg>
