<?xml version="1.0" encoding="UTF-8"?>
<svg width="20px" height="20px" viewBox="0 0 20 20" version="1.1" xmlns="http://www.w3.org/2000/svg" xmlns:xlink="http://www.w3.org/1999/xlink">
    <path d="M3,15 L16,15 L16,13.5 C16,13.2238576 16.2238576,13 16.5,13 C16.7761424,13 17,13.2238576 17,13.5 L17,15.5 C17,15.7761424 16.7761424,16 16.5,16 L2.5,16 C2.22385763,16 2,15.7761424 2,15.5 L2,13.5 C2,13.2238576 2.22385763,13 2.5,13 C2.77614237,13 3,13.2238576 3,13.5 L3,15 Z M9,11.2928932 L9,3.5 C9,3.22385763 9.22385763,3 9.5,3 C9.77614237,3 10,3.22385763 10,3.5 L10,11.2928932 L12.1464466,9.14644661 C12.3417088,8.95118446 12.6582912,8.95118446 12.8535534,9.14644661 C13.0488155,9.34170876 13.0488155,9.65829124 12.8535534,9.85355339 L9.85355339,12.8535534 C9.65829124,13.0488155 9.34170876,13.0488155 9.14644661,12.8535534 L6.14644661,9.85355339 C5.95118446,9.65829124 5.95118446,9.34170876 6.14644661,9.14644661 C6.34170876,8.95118446 6.65829124,8.95118446 6.85355339,9.14644661 L9,11.2928932 Z"></path>
</svg>