<svg width="16" height="16" viewBox="0 0 16 16"
    xmlns:xlink="http://www.w3.org/1999/xlink">
    <path d="M2.77605053 13.0244747l-.03010329.1708716-.03384672.0930784.09307847-.0338467.17087154-.0301033h1.19289321l7.85355336-7.85355335c.1952622-.19526215.5118447-.19526215.7071068 0 .1952622.19526214.1952622.51184463 0 .70710678L4.72960392 14.0780281c-.09376819.0937682-.22094515.1464466-.35355339.1464466H3.06413801l-1.01721595.3698967c-.39901312.1450957-.78586393-.2417551-.64076825-.6407682l.36989672-1.017216v-1.3119125c0-.1326082.05267842-.2597852.1464466-.3535534l8-7.99999995c.19526217-.19526215.51184467-.19526215.70710677 0 .1952622.19526214.1952622.51184463 0 .70710678L2.77605053 11.8315815v1.1928932zM11.1214466 2.07092135l.1-.1c.7952622-.79526215 2.0118446-.79526215 2.8071068 0 .7952621.79526214.7952621 2.01184463 0 2.80710678l-.1.1c-.1952622.19526214-.5118446.19526214-.7071068 0l-2.1-2.1c-.1952621-.19526215-.1952621-.51184464 0-.70710678zm2.2.60710678c-.3138452-.31384516-.7351284-.38432592-1.0972287-.21144228l1.308671 1.308671c.1728836-.36210029.1024029-.78338356-.2114423-1.09722872z" fill="currentColor" />
</svg>
