<?xml version="1.0" encoding="UTF-8"?>
<svg width="20px" height="20px" viewBox="0 0 20 20" version="1.1" xmlns="http://www.w3.org/2000/svg" xmlns:xlink="http://www.w3.org/1999/xlink">
    <path fill="currentColor" d="M9,15.5657415 L11,14.2324081 L11,10.5004539 C11,10.3978459 11.0309078,10.3024569 11.0839211,10.2230889 L14.5657807,5 L5.43421935,5 L8.91603483,10.2231183 C8.94449167,10.2658068 8.96551812,10.3112796 8.9794194,10.3580108 C8.99227305,10.3996506 9,10.4491499 9,10.5004539 L9,15.5657415 L9,15.5657415 Z M8.7773795,16.9160692 C8.69800867,16.9690884 8.60261423,17 8.5,17 C8.22385763,17 8,16.7761424 8,16.5 L8,10.6518322 L4.23239689,5 L4,5 C3.72385763,5 3.5,4.77614237 3.5,4.5 C3.5,4.22385763 3.72385763,3.99994685 4,3.99994685 L4.49224385,3.99994685 C4.49711079,3.99994685 4.50197579,3.99994685 4.50683726,3.99994685 L15.4931586,3.99994685 C15.4980242,3.99994685 15.5028892,3.99994685 15.5077561,3.99994685 L16,3.99994685 C16.2761424,3.99994685 16.5,4.22385763 16.5,4.5 C16.5,4.77614237 16.2761424,5 16,5 L15.7676031,5 L12,10.6518322 L12,14.5 C12,14.6735281 11.9116013,14.8264097 11.7773795,14.9160692 L8.7773501,16.9160251 L8.7773795,16.9160692 Z"></path>
</svg>
