<svg width="20" height="20" viewBox="0 0 20 20" xmlns:xlink="http://www.w3.org/1999/xlink">
  <defs>
    <path d="M10 13c.2761424 0 .5.2238576.5.5s-.2238576.5-.5.5c-.27614237 0-.5-.2238576-.5-.5s.22385763-.5.5-.5zm.5-1.5c0 .2761424-.2238576.5-.5.5-.27614237 0-.5-.2238576-.5-.5v-1c0-.2761424.22385763-.5.5-.5.8238576 0 1.5-.67614237 1.5-1.5S10.8238576 7 10 7c-.82385763 0-1.5.67614237-1.5 1.5 0 .27614237-.22385763.5-.5.5-.27614237 0-.5-.22385763-.5-.5C7.5 7.12385763 8.62385763 6 10 6c1.3761424 0 2.5 1.12385763 2.5 2.5 0 1.20501585-.8617277 2.2165901-2 2.4495396V11.5z" id="a-info"/>
  </defs>
  <g fill="none" fill-rule="evenodd">
    <circle fill="#E1E4E5" cx="10" cy="10" r="10"/>
    <mask id="b-info" fill="#fff">
      <use xlink:href="#a-info"/>
    </mask>
    <use fill="#B2B7B9" xlink:href="#a-info"/>
    <path fill="#FFF" mask="url(#b-info)" d="M0 0h20v20H0z"/>
  </g>
</svg>
