<svg viewBox="0 0 16 16" xmlns="http://www.w3.org/2000/svg"><g fill="none" fill-rule="evenodd"><rect fill="#232325" transform="matrix(1 0 0 -1 0 16)" width="16" height="16" rx="8"/><path d="M8.672 9.365c0-.48.256-.757.63-1.034l.405-.299c.64-.48 1.034-1.067 1.034-1.92 0-1.067-.864-2.101-2.592-2.101-1.557 0-2.485 1.056-2.485 2.304 0 .138.01.298.043.448l1.493.053a1.66 1.66 0 0 1-.032-.395c0-.501.363-1.002.981-1.002.64 0 .95.405.95.821a.874.874 0 0 1-.384.747l-.544.405c-.608.459-.811 1.003-.811 1.504 0 .17.01.32.043.47h1.269zm-1.515 1.558c0 .501.406.917.918.917a.926.926 0 0 0 .928-.917.929.929 0 0 0-.928-.928.92.92 0 0 0-.918.928z" fill="#FFF"/></g></svg>
