<?xml version="1.0" encoding="UTF-8"?>
<svg width="20px" height="20px" viewBox="0 0 20 20" version="1.1"
  xmlns="http://www.w3.org/2000/svg"
  xmlns:xlink="http://www.w3.org/1999/xlink">
  <g stroke="none" stroke-width="1" fill="none" fill-rule="evenodd">
    <rect fill-opacity="0" fill="#FFFFFF" fill-rule="nonzero" x="0" y="0" width="20" height="20"></rect>
    <path d="M6.50024373,9.5 C7.10732845,9.9561144 7.5,10.6822005 7.5,11.5 L7.5,14.5 C7.5,15.3284271 8.17157288,16 9,16 L9,17 C7.61928813,17 6.5,15.8807119 6.5,14.5 L6.5,11.5 C6.5,10.6715729 5.82842712,10 5,10 L5,9 C5.82842712,9 6.5,8.32842712 6.5,7.5 L6.5,4.5 C6.5,3.11928813 7.61928813,2 9,2 L9,3 C8.17157288,3 7.5,3.67157288 7.5,4.5 L7.5,7.5 C7.5,8.31779948 7.10732845,9.0438856 6.50024373,9.5 Z M11.5002437,9.5 C12.1073285,9.9561144 12.5,10.6822005 12.5,11.5 L12.5,14.5 C12.5,15.3284271 13.1715729,16 14,16 L14,17 C12.6192881,17 11.5,15.8807119 11.5,14.5 L11.5,11.5 C11.5,10.6715729 10.8284271,10 10,10 L10,9 C10.8284271,9 11.5,8.32842712 11.5,7.5 L11.5,4.5 C11.5,3.11928813 12.6192881,2 14,2 L14,3 C13.1715729,3 12.5,3.67157288 12.5,4.5 L12.5,7.5 C12.5,8.31779948 12.1073285,9.0438856 11.5002437,9.5 Z" fill="currentColor" fill-rule="nonzero"></path>
  </g>
</svg>
