<?xml version="1.0" encoding="UTF-8"?>
<svg width="22px" height="22px" viewBox="0 0 22 22" version="1.1"
  xmlns="http://www.w3.org/2000/svg"
  xmlns:xlink="http://www.w3.org/1999/xlink">
  <g stroke="none" stroke-width="1" fill="none" fill-rule="evenodd">
    <g transform="translate(-199.000000, -260.000000)">
      <g transform="translate(192.000000, 253.000000)">
        <rect opacity="0.100097656" x="0" y="0" width="36" height="36" rx="2"></rect>
        <path d="M18.75,25.7141756 L18.75,28.25 L17.25,28.25 L17.25,25.7141756 C13.6522311,25.3686901 10.7729769,22.5634038 10.3139209,19 L7.5,19 L7.5,17.5 L10.2658699,17.5 C10.5077223,13.7018192 13.4855431,10.6473166 17.25,10.2858244 L17.25,7.75 L18.75,7.75 L18.75,10.2858244 C22.6783005,10.6630501 25.75,13.9728081 25.75,18 L28.5,18 L28.5,19.5 L25.6049494,19.5 C24.9532489,22.823086 22.1777246,25.385019 18.75,25.7141756 Z M18,24.25 C21.4517797,24.25 24.25,21.4517797 24.25,18 C24.25,14.5482203 21.4517797,11.75 18,11.75 C14.5482203,11.75 11.75,14.5482203 11.75,18 C11.75,21.4517797 14.5482203,24.25 18,24.25 Z M18,21 C16.3431458,21 15,19.6568542 15,18 C15,16.3431458 16.3431458,15 18,15 C19.6568542,15 21,16.3431458 21,18 C21,19.6568542 19.6568542,21 18,21 Z" fill="currentColor" fill-rule="nonzero"></path>
      </g>
    </g>
  </g>
</svg>
