<svg viewBox="0 0 17 17" xmlns="http://www.w3.org/2000/svg"><path d="M15.8686 15.8685a.4443.4443 0 0 1-.631 0L11.0584 11.69c-1.068.9218-2.4417 1.4994-3.9636 1.4994C3.7286 13.1894 1 10.4616 1 7.0942 1 3.7278 3.7286 1 7.0948 1c3.3663 0 6.0949 2.7278 6.0949 6.0942 0 1.522-.5776 2.8967-1.5003 3.9657l4.1783 4.1784a.4424.4424 0 0 1 .001.6302zM12.253 7.0942c0-2.8478-2.3095-5.1574-5.1572-5.1574-2.8477 0-5.1572 2.3096-5.1572 5.1574 0 2.8488 2.3095 5.1584 5.1572 5.1584 2.8477 0 5.1572-2.3096 5.1572-5.1584z" fill="currentColor" stroke="currentColor" fill-rule="evenodd"/></svg>
