<svg xmlns="http://www.w3.org/2000/svg" width="16" height="16" viewBox="0 0 16 16">
    <path d="M0 0h16v16H0z" fill="none"/>
    <path fill="currentColor" d="M3 4h-.5c-.3 0-.5-.2-.5-.5s.2-.5.5-.5h11c.3 0 .5.2.5.5s-.2.5-.5.5H13v9.5c0 1.4-1.1 2.5-2.5 2.5h-5C4.1 16 3 14.9 3 13.5V4zm1 0v9.5c0 .8.7 1.5 1.5 1.5h5c.8 0 1.5-.7 1.5-1.5V4H4zm2.5 2a.5.5 0 0 1 .5.5v6a.5.5 0 1 1-1 0v-6a.5.5 0 0 1 .5-.5zm3 0a.5.5 0 0 1 .5.5v6a.5.5 0 1 1-1 0v-6a.5.5 0 0 1 .5-.5zm0-4c-.3 0-.5-.19-.5-.476V.952H7v.572C7 1.81 6.8 2 6.5 2S6 1.81 6 1.524V.476C6 .19 6.2 0 6.5 0h3c.3 0 .5.19.5.476v1.048c0 .19-.2.476-.5.476z" id="a"/>
</svg>
